<?xml version="1.0" encoding="utf-8" standalone="no"?>
<!DOCTYPE svg PUBLIC "-//W3C//DTD SVG 1.1//EN"
  "http://www.w3.org/Graphics/SVG/1.1/DTD/svg11.dtd">
<svg xmlns:xlink="http://www.w3.org/1999/xlink" width="720pt" height="360pt" viewBox="0 0 720 360" xmlns="http://www.w3.org/2000/svg" version="1.1">
 <metadata>
  <rdf:RDF xmlns:dc="http://purl.org/dc/elements/1.1/" xmlns:cc="http://creativecommons.org/ns#" xmlns:rdf="http://www.w3.org/1999/02/22-rdf-syntax-ns#">
   <cc:Work>
    <dc:type rdf:resource="http://purl.org/dc/dcmitype/StillImage"/>
    <dc:date>2024-01-11T14:14:14.540020</dc:date>
    <dc:format>image/svg+xml</dc:format>
    <dc:creator>
     <cc:Agent>
      <dc:title>Matplotlib v3.7.1, https://matplotlib.org/</dc:title>
     </cc:Agent>
    </dc:creator>
   </cc:Work>
  </rdf:RDF>
 </metadata>
 <defs>
  <style type="text/css">*{stroke-linejoin: round; stroke-linecap: butt}</style>
 </defs>
 <g id="figure_1">
  <g id="patch_1">
   <path d="M 0 360 
L 720 360 
L 720 0 
L 0 0 
z
" style="fill: #ffffff"/>
  </g>
  <g id="axes_1">
   <g id="patch_2">
    <path d="M 49.32 309.78 
L 350.055 309.78 
L 350.055 29.04 
L 49.32 29.04 
z
" style="fill: #ffffff"/>
   </g>
   <g id="matplotlib.axis_1">
    <g id="xtick_1">
     <g id="line2d_1">
      <path d="M 62.989773 309.78 
L 62.989773 29.04 
" clip-path="url(#pdebc662a5d)" style="fill: none; stroke: #cccccc; stroke-linecap: round"/>
     </g>
     <g id="text_1">
      <!-- −10.0 -->
      <g style="fill: #262626" transform="translate(46.134851 327.638281) scale(0.11 -0.11)">
       <defs>
        <path id="DejaVuSans-2212" d="M 678 2272 
L 4684 2272 
L 4684 1741 
L 678 1741 
L 678 2272 
z
" transform="scale(0.015625)"/>
        <path id="DejaVuSans-31" d="M 794 531 
L 1825 531 
L 1825 4091 
L 703 3866 
L 703 4441 
L 1819 4666 
L 2450 4666 
L 2450 531 
L 3481 531 
L 3481 0 
L 794 0 
L 794 531 
z
" transform="scale(0.015625)"/>
        <path id="DejaVuSans-30" d="M 2034 4250 
Q 1547 4250 1301 3770 
Q 1056 3291 1056 2328 
Q 1056 1369 1301 889 
Q 1547 409 2034 409 
Q 2525 409 2770 889 
Q 3016 1369 3016 2328 
Q 3016 3291 2770 3770 
Q 2525 4250 2034 4250 
z
M 2034 4750 
Q 2819 4750 3233 4129 
Q 3647 3509 3647 2328 
Q 3647 1150 3233 529 
Q 2819 -91 2034 -91 
Q 1250 -91 836 529 
Q 422 1150 422 2328 
Q 422 3509 836 4129 
Q 1250 4750 2034 4750 
z
" transform="scale(0.015625)"/>
        <path id="DejaVuSans-2e" d="M 684 794 
L 1344 794 
L 1344 0 
L 684 0 
L 684 794 
z
" transform="scale(0.015625)"/>
       </defs>
       <use xlink:href="#DejaVuSans-2212"/>
       <use xlink:href="#DejaVuSans-31" x="83.789062"/>
       <use xlink:href="#DejaVuSans-30" x="147.412109"/>
       <use xlink:href="#DejaVuSans-2e" x="211.035156"/>
       <use xlink:href="#DejaVuSans-30" x="242.822266"/>
      </g>
     </g>
    </g>
    <g id="xtick_2">
     <g id="line2d_2">
      <path d="M 97.164205 309.78 
L 97.164205 29.04 
" clip-path="url(#pdebc662a5d)" style="fill: none; stroke: #cccccc; stroke-linecap: round"/>
     </g>
     <g id="text_2">
      <!-- −7.5 -->
      <g style="fill: #262626" transform="translate(83.808658 327.638281) scale(0.11 -0.11)">
       <defs>
        <path id="DejaVuSans-37" d="M 525 4666 
L 3525 4666 
L 3525 4397 
L 1831 0 
L 1172 0 
L 2766 4134 
L 525 4134 
L 525 4666 
z
" transform="scale(0.015625)"/>
        <path id="DejaVuSans-35" d="M 691 4666 
L 3169 4666 
L 3169 4134 
L 1269 4134 
L 1269 2991 
Q 1406 3038 1543 3061 
Q 1681 3084 1819 3084 
Q 2600 3084 3056 2656 
Q 3513 2228 3513 1497 
Q 3513 744 3044 326 
Q 2575 -91 1722 -91 
Q 1428 -91 1123 -41 
Q 819 9 494 109 
L 494 744 
Q 775 591 1075 516 
Q 1375 441 1709 441 
Q 2250 441 2565 725 
Q 2881 1009 2881 1497 
Q 2881 1984 2565 2268 
Q 2250 2553 1709 2553 
Q 1456 2553 1204 2497 
Q 953 2441 691 2322 
L 691 4666 
z
" transform="scale(0.015625)"/>
       </defs>
       <use xlink:href="#DejaVuSans-2212"/>
       <use xlink:href="#DejaVuSans-37" x="83.789062"/>
       <use xlink:href="#DejaVuSans-2e" x="147.412109"/>
       <use xlink:href="#DejaVuSans-35" x="179.199219"/>
      </g>
     </g>
    </g>
    <g id="xtick_3">
     <g id="line2d_3">
      <path d="M 131.338636 309.78 
L 131.338636 29.04 
" clip-path="url(#pdebc662a5d)" style="fill: none; stroke: #cccccc; stroke-linecap: round"/>
     </g>
     <g id="text_3">
      <!-- −5.0 -->
      <g style="fill: #262626" transform="translate(117.983089 327.638281) scale(0.11 -0.11)">
       <use xlink:href="#DejaVuSans-2212"/>
       <use xlink:href="#DejaVuSans-35" x="83.789062"/>
       <use xlink:href="#DejaVuSans-2e" x="147.412109"/>
       <use xlink:href="#DejaVuSans-30" x="179.199219"/>
      </g>
     </g>
    </g>
    <g id="xtick_4">
     <g id="line2d_4">
      <path d="M 165.513068 309.78 
L 165.513068 29.04 
" clip-path="url(#pdebc662a5d)" style="fill: none; stroke: #cccccc; stroke-linecap: round"/>
     </g>
     <g id="text_4">
      <!-- −2.5 -->
      <g style="fill: #262626" transform="translate(152.157521 327.638281) scale(0.11 -0.11)">
       <defs>
        <path id="DejaVuSans-32" d="M 1228 531 
L 3431 531 
L 3431 0 
L 469 0 
L 469 531 
Q 828 903 1448 1529 
Q 2069 2156 2228 2338 
Q 2531 2678 2651 2914 
Q 2772 3150 2772 3378 
Q 2772 3750 2511 3984 
Q 2250 4219 1831 4219 
Q 1534 4219 1204 4116 
Q 875 4013 500 3803 
L 500 4441 
Q 881 4594 1212 4672 
Q 1544 4750 1819 4750 
Q 2544 4750 2975 4387 
Q 3406 4025 3406 3419 
Q 3406 3131 3298 2873 
Q 3191 2616 2906 2266 
Q 2828 2175 2409 1742 
Q 1991 1309 1228 531 
z
" transform="scale(0.015625)"/>
       </defs>
       <use xlink:href="#DejaVuSans-2212"/>
       <use xlink:href="#DejaVuSans-32" x="83.789062"/>
       <use xlink:href="#DejaVuSans-2e" x="147.412109"/>
       <use xlink:href="#DejaVuSans-35" x="179.199219"/>
      </g>
     </g>
    </g>
    <g id="xtick_5">
     <g id="line2d_5">
      <path d="M 199.6875 309.78 
L 199.6875 29.04 
" clip-path="url(#pdebc662a5d)" style="fill: none; stroke: #cccccc; stroke-linecap: round"/>
     </g>
     <g id="text_5">
      <!-- 0.0 -->
      <g style="fill: #262626" transform="translate(190.940781 327.638281) scale(0.11 -0.11)">
       <use xlink:href="#DejaVuSans-30"/>
       <use xlink:href="#DejaVuSans-2e" x="63.623047"/>
       <use xlink:href="#DejaVuSans-30" x="95.410156"/>
      </g>
     </g>
    </g>
    <g id="xtick_6">
     <g id="line2d_6">
      <path d="M 233.861932 309.78 
L 233.861932 29.04 
" clip-path="url(#pdebc662a5d)" style="fill: none; stroke: #cccccc; stroke-linecap: round"/>
     </g>
     <g id="text_6">
      <!-- 2.5 -->
      <g style="fill: #262626" transform="translate(225.115213 327.638281) scale(0.11 -0.11)">
       <use xlink:href="#DejaVuSans-32"/>
       <use xlink:href="#DejaVuSans-2e" x="63.623047"/>
       <use xlink:href="#DejaVuSans-35" x="95.410156"/>
      </g>
     </g>
    </g>
    <g id="xtick_7">
     <g id="line2d_7">
      <path d="M 268.036364 309.78 
L 268.036364 29.04 
" clip-path="url(#pdebc662a5d)" style="fill: none; stroke: #cccccc; stroke-linecap: round"/>
     </g>
     <g id="text_7">
      <!-- 5.0 -->
      <g style="fill: #262626" transform="translate(259.289645 327.638281) scale(0.11 -0.11)">
       <use xlink:href="#DejaVuSans-35"/>
       <use xlink:href="#DejaVuSans-2e" x="63.623047"/>
       <use xlink:href="#DejaVuSans-30" x="95.410156"/>
      </g>
     </g>
    </g>
    <g id="xtick_8">
     <g id="line2d_8">
      <path d="M 302.210795 309.78 
L 302.210795 29.04 
" clip-path="url(#pdebc662a5d)" style="fill: none; stroke: #cccccc; stroke-linecap: round"/>
     </g>
     <g id="text_8">
      <!-- 7.5 -->
      <g style="fill: #262626" transform="translate(293.464077 327.638281) scale(0.11 -0.11)">
       <use xlink:href="#DejaVuSans-37"/>
       <use xlink:href="#DejaVuSans-2e" x="63.623047"/>
       <use xlink:href="#DejaVuSans-35" x="95.410156"/>
      </g>
     </g>
    </g>
    <g id="xtick_9">
     <g id="line2d_9">
      <path d="M 336.385227 309.78 
L 336.385227 29.04 
" clip-path="url(#pdebc662a5d)" style="fill: none; stroke: #cccccc; stroke-linecap: round"/>
     </g>
     <g id="text_9">
      <!-- 10.0 -->
      <g style="fill: #262626" transform="translate(324.139134 327.638281) scale(0.11 -0.11)">
       <use xlink:href="#DejaVuSans-31"/>
       <use xlink:href="#DejaVuSans-30" x="63.623047"/>
       <use xlink:href="#DejaVuSans-2e" x="127.246094"/>
       <use xlink:href="#DejaVuSans-30" x="159.033203"/>
      </g>
     </g>
    </g>
    <g id="text_10">
     <!-- Energy (eV) -->
     <g style="fill: #262626" transform="translate(164.295 343.044062) scale(0.12 -0.12)">
      <defs>
       <path id="DejaVuSans-45" d="M 628 4666 
L 3578 4666 
L 3578 4134 
L 1259 4134 
L 1259 2753 
L 3481 2753 
L 3481 2222 
L 1259 2222 
L 1259 531 
L 3634 531 
L 3634 0 
L 628 0 
L 628 4666 
z
" transform="scale(0.015625)"/>
       <path id="DejaVuSans-6e" d="M 3513 2113 
L 3513 0 
L 2938 0 
L 2938 2094 
Q 2938 2591 2744 2837 
Q 2550 3084 2163 3084 
Q 1697 3084 1428 2787 
Q 1159 2491 1159 1978 
L 1159 0 
L 581 0 
L 581 3500 
L 1159 3500 
L 1159 2956 
Q 1366 3272 1645 3428 
Q 1925 3584 2291 3584 
Q 2894 3584 3203 3211 
Q 3513 2838 3513 2113 
z
" transform="scale(0.015625)"/>
       <path id="DejaVuSans-65" d="M 3597 1894 
L 3597 1613 
L 953 1613 
Q 991 1019 1311 708 
Q 1631 397 2203 397 
Q 2534 397 2845 478 
Q 3156 559 3463 722 
L 3463 178 
Q 3153 47 2828 -22 
Q 2503 -91 2169 -91 
Q 1331 -91 842 396 
Q 353 884 353 1716 
Q 353 2575 817 3079 
Q 1281 3584 2069 3584 
Q 2775 3584 3186 3129 
Q 3597 2675 3597 1894 
z
M 3022 2063 
Q 3016 2534 2758 2815 
Q 2500 3097 2075 3097 
Q 1594 3097 1305 2825 
Q 1016 2553 972 2059 
L 3022 2063 
z
" transform="scale(0.015625)"/>
       <path id="DejaVuSans-72" d="M 2631 2963 
Q 2534 3019 2420 3045 
Q 2306 3072 2169 3072 
Q 1681 3072 1420 2755 
Q 1159 2438 1159 1844 
L 1159 0 
L 581 0 
L 581 3500 
L 1159 3500 
L 1159 2956 
Q 1341 3275 1631 3429 
Q 1922 3584 2338 3584 
Q 2397 3584 2469 3576 
Q 2541 3569 2628 3553 
L 2631 2963 
z
" transform="scale(0.015625)"/>
       <path id="DejaVuSans-67" d="M 2906 1791 
Q 2906 2416 2648 2759 
Q 2391 3103 1925 3103 
Q 1463 3103 1205 2759 
Q 947 2416 947 1791 
Q 947 1169 1205 825 
Q 1463 481 1925 481 
Q 2391 481 2648 825 
Q 2906 1169 2906 1791 
z
M 3481 434 
Q 3481 -459 3084 -895 
Q 2688 -1331 1869 -1331 
Q 1566 -1331 1297 -1286 
Q 1028 -1241 775 -1147 
L 775 -588 
Q 1028 -725 1275 -790 
Q 1522 -856 1778 -856 
Q 2344 -856 2625 -561 
Q 2906 -266 2906 331 
L 2906 616 
Q 2728 306 2450 153 
Q 2172 0 1784 0 
Q 1141 0 747 490 
Q 353 981 353 1791 
Q 353 2603 747 3093 
Q 1141 3584 1784 3584 
Q 2172 3584 2450 3431 
Q 2728 3278 2906 2969 
L 2906 3500 
L 3481 3500 
L 3481 434 
z
" transform="scale(0.015625)"/>
       <path id="DejaVuSans-79" d="M 2059 -325 
Q 1816 -950 1584 -1140 
Q 1353 -1331 966 -1331 
L 506 -1331 
L 506 -850 
L 844 -850 
Q 1081 -850 1212 -737 
Q 1344 -625 1503 -206 
L 1606 56 
L 191 3500 
L 800 3500 
L 1894 763 
L 2988 3500 
L 3597 3500 
L 2059 -325 
z
" transform="scale(0.015625)"/>
       <path id="DejaVuSans-20" transform="scale(0.015625)"/>
       <path id="DejaVuSans-28" d="M 1984 4856 
Q 1566 4138 1362 3434 
Q 1159 2731 1159 2009 
Q 1159 1288 1364 580 
Q 1569 -128 1984 -844 
L 1484 -844 
Q 1016 -109 783 600 
Q 550 1309 550 2009 
Q 550 2706 781 3412 
Q 1013 4119 1484 4856 
L 1984 4856 
z
" transform="scale(0.015625)"/>
       <path id="DejaVuSans-56" d="M 1831 0 
L 50 4666 
L 709 4666 
L 2188 738 
L 3669 4666 
L 4325 4666 
L 2547 0 
L 1831 0 
z
" transform="scale(0.015625)"/>
       <path id="DejaVuSans-29" d="M 513 4856 
L 1013 4856 
Q 1481 4119 1714 3412 
Q 1947 2706 1947 2009 
Q 1947 1309 1714 600 
Q 1481 -109 1013 -844 
L 513 -844 
Q 928 -128 1133 580 
Q 1338 1288 1338 2009 
Q 1338 2731 1133 3434 
Q 928 4138 513 4856 
z
" transform="scale(0.015625)"/>
      </defs>
      <use xlink:href="#DejaVuSans-45"/>
      <use xlink:href="#DejaVuSans-6e" x="63.183594"/>
      <use xlink:href="#DejaVuSans-65" x="126.5625"/>
      <use xlink:href="#DejaVuSans-72" x="188.085938"/>
      <use xlink:href="#DejaVuSans-67" x="227.449219"/>
      <use xlink:href="#DejaVuSans-79" x="290.925781"/>
      <use xlink:href="#DejaVuSans-20" x="350.105469"/>
      <use xlink:href="#DejaVuSans-28" x="381.892578"/>
      <use xlink:href="#DejaVuSans-65" x="420.90625"/>
      <use xlink:href="#DejaVuSans-56" x="482.429688"/>
      <use xlink:href="#DejaVuSans-29" x="550.837891"/>
     </g>
    </g>
   </g>
   <g id="matplotlib.axis_2">
    <g id="ytick_1">
     <g id="line2d_10">
      <path d="M 49.32 297.019091 
L 350.055 297.019091 
" clip-path="url(#pdebc662a5d)" style="fill: none; stroke: #cccccc; stroke-linecap: round"/>
     </g>
     <g id="text_11">
      <!-- 0 -->
      <g style="fill: #262626" transform="translate(32.82125 301.198232) scale(0.11 -0.11)">
       <use xlink:href="#DejaVuSans-30"/>
      </g>
     </g>
    </g>
    <g id="ytick_2">
     <g id="line2d_11">
      <path d="M 49.32 241.914226 
L 350.055 241.914226 
" clip-path="url(#pdebc662a5d)" style="fill: none; stroke: #cccccc; stroke-linecap: round"/>
     </g>
     <g id="text_12">
      <!-- 2 -->
      <g style="fill: #262626" transform="translate(32.82125 246.093367) scale(0.11 -0.11)">
       <use xlink:href="#DejaVuSans-32"/>
      </g>
     </g>
    </g>
    <g id="ytick_3">
     <g id="line2d_12">
      <path d="M 49.32 186.809361 
L 350.055 186.809361 
" clip-path="url(#pdebc662a5d)" style="fill: none; stroke: #cccccc; stroke-linecap: round"/>
     </g>
     <g id="text_13">
      <!-- 4 -->
      <g style="fill: #262626" transform="translate(32.82125 190.988502) scale(0.11 -0.11)">
       <defs>
        <path id="DejaVuSans-34" d="M 2419 4116 
L 825 1625 
L 2419 1625 
L 2419 4116 
z
M 2253 4666 
L 3047 4666 
L 3047 1625 
L 3713 1625 
L 3713 1100 
L 3047 1100 
L 3047 0 
L 2419 0 
L 2419 1100 
L 313 1100 
L 313 1709 
L 2253 4666 
z
" transform="scale(0.015625)"/>
       </defs>
       <use xlink:href="#DejaVuSans-34"/>
      </g>
     </g>
    </g>
    <g id="ytick_4">
     <g id="line2d_13">
      <path d="M 49.32 131.704496 
L 350.055 131.704496 
" clip-path="url(#pdebc662a5d)" style="fill: none; stroke: #cccccc; stroke-linecap: round"/>
     </g>
     <g id="text_14">
      <!-- 6 -->
      <g style="fill: #262626" transform="translate(32.82125 135.883637) scale(0.11 -0.11)">
       <defs>
        <path id="DejaVuSans-36" d="M 2113 2584 
Q 1688 2584 1439 2293 
Q 1191 2003 1191 1497 
Q 1191 994 1439 701 
Q 1688 409 2113 409 
Q 2538 409 2786 701 
Q 3034 994 3034 1497 
Q 3034 2003 2786 2293 
Q 2538 2584 2113 2584 
z
M 3366 4563 
L 3366 3988 
Q 3128 4100 2886 4159 
Q 2644 4219 2406 4219 
Q 1781 4219 1451 3797 
Q 1122 3375 1075 2522 
Q 1259 2794 1537 2939 
Q 1816 3084 2150 3084 
Q 2853 3084 3261 2657 
Q 3669 2231 3669 1497 
Q 3669 778 3244 343 
Q 2819 -91 2113 -91 
Q 1303 -91 875 529 
Q 447 1150 447 2328 
Q 447 3434 972 4092 
Q 1497 4750 2381 4750 
Q 2619 4750 2861 4703 
Q 3103 4656 3366 4563 
z
" transform="scale(0.015625)"/>
       </defs>
       <use xlink:href="#DejaVuSans-36"/>
      </g>
     </g>
    </g>
    <g id="ytick_5">
     <g id="line2d_14">
      <path d="M 49.32 76.599631 
L 350.055 76.599631 
" clip-path="url(#pdebc662a5d)" style="fill: none; stroke: #cccccc; stroke-linecap: round"/>
     </g>
     <g id="text_15">
      <!-- 8 -->
      <g style="fill: #262626" transform="translate(32.82125 80.778772) scale(0.11 -0.11)">
       <defs>
        <path id="DejaVuSans-38" d="M 2034 2216 
Q 1584 2216 1326 1975 
Q 1069 1734 1069 1313 
Q 1069 891 1326 650 
Q 1584 409 2034 409 
Q 2484 409 2743 651 
Q 3003 894 3003 1313 
Q 3003 1734 2745 1975 
Q 2488 2216 2034 2216 
z
M 1403 2484 
Q 997 2584 770 2862 
Q 544 3141 544 3541 
Q 544 4100 942 4425 
Q 1341 4750 2034 4750 
Q 2731 4750 3128 4425 
Q 3525 4100 3525 3541 
Q 3525 3141 3298 2862 
Q 3072 2584 2669 2484 
Q 3125 2378 3379 2068 
Q 3634 1759 3634 1313 
Q 3634 634 3220 271 
Q 2806 -91 2034 -91 
Q 1263 -91 848 271 
Q 434 634 434 1313 
Q 434 1759 690 2068 
Q 947 2378 1403 2484 
z
M 1172 3481 
Q 1172 3119 1398 2916 
Q 1625 2713 2034 2713 
Q 2441 2713 2670 2916 
Q 2900 3119 2900 3481 
Q 2900 3844 2670 4047 
Q 2441 4250 2034 4250 
Q 1625 4250 1398 4047 
Q 1172 3844 1172 3481 
z
" transform="scale(0.015625)"/>
       </defs>
       <use xlink:href="#DejaVuSans-38"/>
      </g>
     </g>
    </g>
    <g id="text_16">
     <!-- Density of States $(e^-/eV)$ -->
     <g style="fill: #262626" transform="translate(26.30125 246.57) rotate(-90) scale(0.12 -0.12)">
      <defs>
       <path id="DejaVuSans-44" d="M 1259 4147 
L 1259 519 
L 2022 519 
Q 2988 519 3436 956 
Q 3884 1394 3884 2338 
Q 3884 3275 3436 3711 
Q 2988 4147 2022 4147 
L 1259 4147 
z
M 628 4666 
L 1925 4666 
Q 3281 4666 3915 4102 
Q 4550 3538 4550 2338 
Q 4550 1131 3912 565 
Q 3275 0 1925 0 
L 628 0 
L 628 4666 
z
" transform="scale(0.015625)"/>
       <path id="DejaVuSans-73" d="M 2834 3397 
L 2834 2853 
Q 2591 2978 2328 3040 
Q 2066 3103 1784 3103 
Q 1356 3103 1142 2972 
Q 928 2841 928 2578 
Q 928 2378 1081 2264 
Q 1234 2150 1697 2047 
L 1894 2003 
Q 2506 1872 2764 1633 
Q 3022 1394 3022 966 
Q 3022 478 2636 193 
Q 2250 -91 1575 -91 
Q 1294 -91 989 -36 
Q 684 19 347 128 
L 347 722 
Q 666 556 975 473 
Q 1284 391 1588 391 
Q 1994 391 2212 530 
Q 2431 669 2431 922 
Q 2431 1156 2273 1281 
Q 2116 1406 1581 1522 
L 1381 1569 
Q 847 1681 609 1914 
Q 372 2147 372 2553 
Q 372 3047 722 3315 
Q 1072 3584 1716 3584 
Q 2034 3584 2315 3537 
Q 2597 3491 2834 3397 
z
" transform="scale(0.015625)"/>
       <path id="DejaVuSans-69" d="M 603 3500 
L 1178 3500 
L 1178 0 
L 603 0 
L 603 3500 
z
M 603 4863 
L 1178 4863 
L 1178 4134 
L 603 4134 
L 603 4863 
z
" transform="scale(0.015625)"/>
       <path id="DejaVuSans-74" d="M 1172 4494 
L 1172 3500 
L 2356 3500 
L 2356 3053 
L 1172 3053 
L 1172 1153 
Q 1172 725 1289 603 
Q 1406 481 1766 481 
L 2356 481 
L 2356 0 
L 1766 0 
Q 1100 0 847 248 
Q 594 497 594 1153 
L 594 3053 
L 172 3053 
L 172 3500 
L 594 3500 
L 594 4494 
L 1172 4494 
z
" transform="scale(0.015625)"/>
       <path id="DejaVuSans-6f" d="M 1959 3097 
Q 1497 3097 1228 2736 
Q 959 2375 959 1747 
Q 959 1119 1226 758 
Q 1494 397 1959 397 
Q 2419 397 2687 759 
Q 2956 1122 2956 1747 
Q 2956 2369 2687 2733 
Q 2419 3097 1959 3097 
z
M 1959 3584 
Q 2709 3584 3137 3096 
Q 3566 2609 3566 1747 
Q 3566 888 3137 398 
Q 2709 -91 1959 -91 
Q 1206 -91 779 398 
Q 353 888 353 1747 
Q 353 2609 779 3096 
Q 1206 3584 1959 3584 
z
" transform="scale(0.015625)"/>
       <path id="DejaVuSans-66" d="M 2375 4863 
L 2375 4384 
L 1825 4384 
Q 1516 4384 1395 4259 
Q 1275 4134 1275 3809 
L 1275 3500 
L 2222 3500 
L 2222 3053 
L 1275 3053 
L 1275 0 
L 697 0 
L 697 3053 
L 147 3053 
L 147 3500 
L 697 3500 
L 697 3744 
Q 697 4328 969 4595 
Q 1241 4863 1831 4863 
L 2375 4863 
z
" transform="scale(0.015625)"/>
       <path id="DejaVuSans-53" d="M 3425 4513 
L 3425 3897 
Q 3066 4069 2747 4153 
Q 2428 4238 2131 4238 
Q 1616 4238 1336 4038 
Q 1056 3838 1056 3469 
Q 1056 3159 1242 3001 
Q 1428 2844 1947 2747 
L 2328 2669 
Q 3034 2534 3370 2195 
Q 3706 1856 3706 1288 
Q 3706 609 3251 259 
Q 2797 -91 1919 -91 
Q 1588 -91 1214 -16 
Q 841 59 441 206 
L 441 856 
Q 825 641 1194 531 
Q 1563 422 1919 422 
Q 2459 422 2753 634 
Q 3047 847 3047 1241 
Q 3047 1584 2836 1778 
Q 2625 1972 2144 2069 
L 1759 2144 
Q 1053 2284 737 2584 
Q 422 2884 422 3419 
Q 422 4038 858 4394 
Q 1294 4750 2059 4750 
Q 2388 4750 2728 4690 
Q 3069 4631 3425 4513 
z
" transform="scale(0.015625)"/>
       <path id="DejaVuSans-61" d="M 2194 1759 
Q 1497 1759 1228 1600 
Q 959 1441 959 1056 
Q 959 750 1161 570 
Q 1363 391 1709 391 
Q 2188 391 2477 730 
Q 2766 1069 2766 1631 
L 2766 1759 
L 2194 1759 
z
M 3341 1997 
L 3341 0 
L 2766 0 
L 2766 531 
Q 2569 213 2275 61 
Q 1981 -91 1556 -91 
Q 1019 -91 701 211 
Q 384 513 384 1019 
Q 384 1609 779 1909 
Q 1175 2209 1959 2209 
L 2766 2209 
L 2766 2266 
Q 2766 2663 2505 2880 
Q 2244 3097 1772 3097 
Q 1472 3097 1187 3025 
Q 903 2953 641 2809 
L 641 3341 
Q 956 3463 1253 3523 
Q 1550 3584 1831 3584 
Q 2591 3584 2966 3190 
Q 3341 2797 3341 1997 
z
" transform="scale(0.015625)"/>
       <path id="DejaVuSans-Oblique-65" d="M 3078 2063 
Q 3088 2113 3092 2166 
Q 3097 2219 3097 2272 
Q 3097 2653 2873 2875 
Q 2650 3097 2266 3097 
Q 1838 3097 1509 2826 
Q 1181 2556 1013 2059 
L 3078 2063 
z
M 3578 1613 
L 903 1613 
Q 884 1494 878 1425 
Q 872 1356 872 1306 
Q 872 872 1139 634 
Q 1406 397 1894 397 
Q 2269 397 2603 481 
Q 2938 566 3225 728 
L 3116 159 
Q 2806 34 2476 -28 
Q 2147 -91 1806 -91 
Q 1078 -91 686 257 
Q 294 606 294 1247 
Q 294 1794 489 2264 
Q 684 2734 1063 3103 
Q 1306 3334 1642 3459 
Q 1978 3584 2356 3584 
Q 2950 3584 3301 3228 
Q 3653 2872 3653 2272 
Q 3653 2128 3634 1964 
Q 3616 1800 3578 1613 
z
" transform="scale(0.015625)"/>
       <path id="DejaVuSans-2f" d="M 1625 4666 
L 2156 4666 
L 531 -594 
L 0 -594 
L 1625 4666 
z
" transform="scale(0.015625)"/>
       <path id="DejaVuSans-Oblique-56" d="M 1319 0 
L 500 4666 
L 1119 4666 
L 1797 653 
L 4063 4666 
L 4750 4666 
L 2053 0 
L 1319 0 
z
" transform="scale(0.015625)"/>
      </defs>
      <use xlink:href="#DejaVuSans-44" transform="translate(0 0.015625)"/>
      <use xlink:href="#DejaVuSans-65" transform="translate(77.001953 0.015625)"/>
      <use xlink:href="#DejaVuSans-6e" transform="translate(138.525391 0.015625)"/>
      <use xlink:href="#DejaVuSans-73" transform="translate(201.904297 0.015625)"/>
      <use xlink:href="#DejaVuSans-69" transform="translate(254.003906 0.015625)"/>
      <use xlink:href="#DejaVuSans-74" transform="translate(281.787109 0.015625)"/>
      <use xlink:href="#DejaVuSans-79" transform="translate(320.996094 0.015625)"/>
      <use xlink:href="#DejaVuSans-20" transform="translate(380.175781 0.015625)"/>
      <use xlink:href="#DejaVuSans-6f" transform="translate(411.962891 0.015625)"/>
      <use xlink:href="#DejaVuSans-66" transform="translate(473.144531 0.015625)"/>
      <use xlink:href="#DejaVuSans-20" transform="translate(508.349609 0.015625)"/>
      <use xlink:href="#DejaVuSans-53" transform="translate(540.136719 0.015625)"/>
      <use xlink:href="#DejaVuSans-74" transform="translate(603.613281 0.015625)"/>
      <use xlink:href="#DejaVuSans-61" transform="translate(642.822266 0.015625)"/>
      <use xlink:href="#DejaVuSans-74" transform="translate(704.101562 0.015625)"/>
      <use xlink:href="#DejaVuSans-65" transform="translate(743.310547 0.015625)"/>
      <use xlink:href="#DejaVuSans-73" transform="translate(804.833984 0.015625)"/>
      <use xlink:href="#DejaVuSans-20" transform="translate(856.933594 0.015625)"/>
      <use xlink:href="#DejaVuSans-28" transform="translate(888.720703 0.015625)"/>
      <use xlink:href="#DejaVuSans-Oblique-65" transform="translate(927.734375 0.015625)"/>
      <use xlink:href="#DejaVuSans-2212" transform="translate(1007.545404 38.296875) scale(0.7)"/>
      <use xlink:href="#DejaVuSans-2f" transform="translate(1082.569818 0.015625)"/>
      <use xlink:href="#DejaVuSans-Oblique-65" transform="translate(1116.261224 0.015625)"/>
      <use xlink:href="#DejaVuSans-Oblique-56" transform="translate(1177.784661 0.015625)"/>
      <use xlink:href="#DejaVuSans-29" transform="translate(1246.192865 0.015625)"/>
     </g>
    </g>
   </g>
   <g id="line2d_15">
    <path d="M 62.989773 175.485311 
L 65.040239 146.031761 
L 67.227402 114.511778 
L 68.047589 105.612343 
L 68.59438 101.672345 
L 69.004473 100.074304 
L 69.277868 99.771227 
L 69.414566 99.853884 
L 69.687961 100.570248 
L 69.961357 102.002974 
L 70.37145 105.58479 
L 70.918241 113.106604 
L 71.60173 126.910373 
L 72.421916 149.034976 
L 73.788893 193.752574 
L 75.292568 240.674367 
L 76.249452 263.239809 
L 77.069639 276.958165 
L 77.753127 284.785811 
L 78.436616 289.968423 
L 78.983407 292.663051 
L 79.530198 294.427785 
L 80.076989 295.53429 
L 80.62378 296.199957 
L 81.307268 296.650439 
L 82.127455 296.888492 
L 83.494432 297.000088 
L 88.41555 297.019089 
L 148.289155 296.912986 
L 149.382736 296.667246 
L 150.202923 296.233571 
L 150.886411 295.576721 
L 151.433202 294.7642 
L 151.979993 293.61361 
L 152.663482 291.577485 
L 153.34697 288.758872 
L 154.167157 284.237517 
L 155.124041 277.459619 
L 156.491018 265.85729 
L 158.951577 244.889889 
L 161.002043 229.984023 
L 164.966277 201.301941 
L 168.247023 176.890485 
L 169.203907 171.572866 
L 170.024093 168.294126 
L 170.570884 166.806295 
L 171.117675 165.924617 
L 171.527768 165.649093 
L 171.801164 165.649093 
L 172.211257 165.924617 
L 172.62135 166.613428 
L 173.031443 167.687973 
L 173.578234 169.837063 
L 174.261723 173.639298 
L 175.081909 179.811043 
L 177.815864 202.073409 
L 178.362655 204.029631 
L 178.63605 204.442918 
L 178.909445 204.415365 
L 179.182841 203.974527 
L 179.592934 202.514248 
L 180.139725 199.070194 
L 180.686516 194.055651 
L 181.506702 184.136775 
L 184.240657 147.822669 
L 184.924145 142.367288 
L 185.470936 139.804911 
L 185.88103 138.978338 
L 186.154425 138.978338 
L 186.42782 139.391625 
L 186.837914 140.851904 
L 187.248007 143.221413 
L 187.794798 147.767564 
L 188.478286 155.427141 
L 189.571868 170.856503 
L 191.212241 194.193413 
L 191.89573 201.301941 
L 192.44252 205.104176 
L 192.852614 206.674665 
L 193.126009 207.087951 
L 193.262707 207.087951 
L 193.536102 206.702217 
L 193.809498 205.765435 
L 194.219591 203.395925 
L 194.766382 198.491592 
L 195.44987 189.757471 
L 196.406755 173.914823 
L 198.593918 136.223095 
L 199.277407 128.921701 
L 199.6875 126.414429 
L 199.960895 125.587856 
L 200.097593 125.450094 
L 200.234291 125.477646 
L 200.507686 126.0838 
L 200.781082 127.378764 
L 201.191175 130.547294 
L 201.737966 136.856801 
L 202.558152 149.475815 
L 204.745316 185.569502 
L 205.565502 194.744462 
L 206.112293 198.794669 
L 206.659084 201.164178 
L 206.93248 201.742779 
L 207.205875 201.935647 
L 207.47927 201.715227 
L 207.752666 201.136626 
L 208.162759 199.59369 
L 208.70955 196.31495 
L 209.393039 190.30852 
L 210.213225 180.554959 
L 211.170109 166.172589 
L 214.587552 110.68199 
L 215.271041 103.76633 
L 215.817832 99.936542 
L 216.364623 97.594585 
L 216.774716 96.823117 
L 217.048111 96.740459 
L 217.321507 97.015984 
L 217.594902 97.677242 
L 218.004995 99.275283 
L 218.551786 102.664232 
L 219.235275 108.835977 
L 220.055461 118.83751 
L 221.285741 137.40785 
L 222.926114 161.984619 
L 223.7463 171.324894 
L 224.429789 177.000695 
L 225.113277 180.720274 
L 225.660068 182.428524 
L 226.070161 183.034678 
L 226.480255 183.089783 
L 226.75365 182.869363 
L 227.163743 182.125448 
L 227.710534 180.417197 
L 228.257325 177.992583 
L 229.077511 173.170907 
L 231.674768 156.060846 
L 232.221559 154.104624 
L 232.631652 153.415813 
L 232.905048 153.388261 
L 233.178443 153.691337 
L 233.588536 154.848539 
L 233.99863 156.832315 
L 234.54542 160.717208 
L 235.228909 167.495106 
L 236.049095 177.909925 
L 237.279375 196.618027 
L 239.876632 236.844578 
L 241.106911 252.246388 
L 242.337191 264.72764 
L 243.430773 273.646362 
L 244.524355 280.821016 
L 245.481239 285.810761 
L 246.438123 289.684633 
L 247.258309 292.183639 
L 248.078495 294.00761 
L 248.898682 295.260144 
L 249.718868 296.060266 
L 250.539055 296.533893 
L 251.495939 296.82041 
L 252.862916 296.972858 
L 255.323475 296.991996 
L 256.82715 296.8454 
L 257.647336 296.582936 
L 258.330825 296.140995 
L 258.877616 295.54724 
L 259.424407 294.643796 
L 259.971198 293.327065 
L 260.517989 291.481052 
L 261.201477 288.265683 
L 261.884966 283.887602 
L 262.705152 276.977452 
L 263.662036 266.711415 
L 264.892316 250.786109 
L 267.216177 216.951722 
L 270.223527 171.076922 
L 271.453807 148.235956 
L 272.820784 118.396671 
L 274.87125 72.935158 
L 275.828134 56.596565 
L 276.511623 48.303283 
L 277.058414 44.032656 
L 277.468507 42.2693 
L 277.741902 41.800909 
L 277.8786 41.800909 
L 278.151995 42.186643 
L 278.425391 43.150978 
L 278.835484 45.630697 
L 279.382275 50.700345 
L 280.065764 59.682438 
L 281.022648 75.993478 
L 282.936416 114.318911 
L 284.166695 136.498619 
L 285.12358 149.861549 
L 285.943766 158.347698 
L 286.90065 165.649093 
L 288.67772 178.130345 
L 289.634605 186.947123 
L 292.368559 213.976059 
L 293.052048 218.053819 
L 293.598839 220.065147 
L 294.008932 220.809063 
L 294.282327 220.946825 
L 294.555723 220.753958 
L 294.829118 220.313119 
L 295.239211 219.073259 
L 295.649305 217.254799 
L 296.196095 213.893402 
L 297.016282 207.253266 
L 299.886934 181.932581 
L 300.570423 178.626289 
L 301.117214 177.083352 
L 301.527307 176.559856 
L 301.800702 176.477199 
L 302.210795 176.725171 
L 302.620889 177.358877 
L 303.16768 178.736498 
L 303.851168 181.216217 
L 304.534657 184.467404 
L 305.491541 190.280968 
L 306.585123 198.436488 
L 308.908984 218.053819 
L 310.139264 227.449199 
L 311.096148 233.23521 
L 311.916334 236.872131 
L 312.599823 238.911011 
L 313.283311 240.178423 
L 313.830102 240.701919 
L 314.513591 240.867234 
L 315.19708 240.509052 
L 315.607173 240.095765 
L 316.290661 238.966116 
L 317.110848 236.927236 
L 317.931034 234.199545 
L 319.9815 225.933815 
L 321.348477 220.836615 
L 322.168664 218.384449 
L 322.852152 216.841512 
L 323.398943 216.014939 
L 323.945734 215.601653 
L 324.355827 215.546548 
L 324.76592 215.68431 
L 325.722805 216.593541 
L 326.542991 217.447666 
L 326.953084 217.695638 
L 327.499875 217.695638 
L 327.909968 217.420114 
L 328.320061 216.896617 
L 329.00355 215.601653 
L 331.190714 210.58711 
L 332.0109 209.292146 
L 333.78797 206.647112 
L 334.608157 204.608232 
L 335.428343 201.797884 
L 336.385227 197.665019 
L 336.385227 197.665019 
" clip-path="url(#pdebc662a5d)" style="fill: none; stroke: #4c72b0; stroke-width: 1.5; stroke-linecap: round"/>
   </g>
   <g id="line2d_16">
    <path d="M 245.795643 309.78 
L 245.795643 29.04 
" clip-path="url(#pdebc662a5d)" style="fill: none; stroke-dasharray: 5.55,2.4; stroke-dashoffset: 0; stroke: #ff0000; stroke-width: 1.5"/>
   </g>
   <g id="patch_3">
    <path d="M 49.32 309.78 
L 49.32 29.04 
" style="fill: none; stroke: #cccccc; stroke-width: 1.25; stroke-linejoin: miter; stroke-linecap: square"/>
   </g>
   <g id="patch_4">
    <path d="M 350.055 309.78 
L 350.055 29.04 
" style="fill: none; stroke: #cccccc; stroke-width: 1.25; stroke-linejoin: miter; stroke-linecap: square"/>
   </g>
   <g id="patch_5">
    <path d="M 49.32 309.78 
L 350.055 309.78 
" style="fill: none; stroke: #cccccc; stroke-width: 1.25; stroke-linejoin: miter; stroke-linecap: square"/>
   </g>
   <g id="patch_6">
    <path d="M 49.32 29.04 
L 350.055 29.04 
" style="fill: none; stroke: #cccccc; stroke-width: 1.25; stroke-linejoin: miter; stroke-linecap: square"/>
   </g>
   <g id="text_17">
    <!-- Density of States -->
    <g style="fill: #262626" transform="translate(148.272188 23.04) scale(0.12 -0.12)">
     <use xlink:href="#DejaVuSans-44"/>
     <use xlink:href="#DejaVuSans-65" x="77.001953"/>
     <use xlink:href="#DejaVuSans-6e" x="138.525391"/>
     <use xlink:href="#DejaVuSans-73" x="201.904297"/>
     <use xlink:href="#DejaVuSans-69" x="254.003906"/>
     <use xlink:href="#DejaVuSans-74" x="281.787109"/>
     <use xlink:href="#DejaVuSans-79" x="320.996094"/>
     <use xlink:href="#DejaVuSans-20" x="380.175781"/>
     <use xlink:href="#DejaVuSans-6f" x="411.962891"/>
     <use xlink:href="#DejaVuSans-66" x="473.144531"/>
     <use xlink:href="#DejaVuSans-20" x="508.349609"/>
     <use xlink:href="#DejaVuSans-53" x="540.136719"/>
     <use xlink:href="#DejaVuSans-74" x="603.613281"/>
     <use xlink:href="#DejaVuSans-61" x="642.822266"/>
     <use xlink:href="#DejaVuSans-74" x="704.101562"/>
     <use xlink:href="#DejaVuSans-65" x="743.310547"/>
     <use xlink:href="#DejaVuSans-73" x="804.833984"/>
    </g>
   </g>
   <g id="legend_1">
    <g id="patch_7">
     <path d="M 57.02 70.131875 
L 186.481406 70.131875 
Q 188.681406 70.131875 188.681406 67.931875 
L 188.681406 36.74 
Q 188.681406 34.54 186.481406 34.54 
L 57.02 34.54 
Q 54.82 34.54 54.82 36.74 
L 54.82 67.931875 
Q 54.82 70.131875 57.02 70.131875 
z
" style="fill: #ffffff; opacity: 0.8; stroke: #cccccc; stroke-linejoin: miter"/>
    </g>
    <g id="line2d_17">
     <path d="M 59.22 43.448281 
L 70.22 43.448281 
L 81.22 43.448281 
" style="fill: none; stroke: #4c72b0; stroke-width: 1.5; stroke-linecap: round"/>
    </g>
    <g id="text_18">
     <!-- Density of States -->
     <g style="fill: #262626" transform="translate(90.02 47.298281) scale(0.11 -0.11)">
      <use xlink:href="#DejaVuSans-44"/>
      <use xlink:href="#DejaVuSans-65" x="77.001953"/>
      <use xlink:href="#DejaVuSans-6e" x="138.525391"/>
      <use xlink:href="#DejaVuSans-73" x="201.904297"/>
      <use xlink:href="#DejaVuSans-69" x="254.003906"/>
      <use xlink:href="#DejaVuSans-74" x="281.787109"/>
      <use xlink:href="#DejaVuSans-79" x="320.996094"/>
      <use xlink:href="#DejaVuSans-20" x="380.175781"/>
      <use xlink:href="#DejaVuSans-6f" x="411.962891"/>
      <use xlink:href="#DejaVuSans-66" x="473.144531"/>
      <use xlink:href="#DejaVuSans-20" x="508.349609"/>
      <use xlink:href="#DejaVuSans-53" x="540.136719"/>
      <use xlink:href="#DejaVuSans-74" x="603.613281"/>
      <use xlink:href="#DejaVuSans-61" x="642.822266"/>
      <use xlink:href="#DejaVuSans-74" x="704.101562"/>
      <use xlink:href="#DejaVuSans-65" x="743.310547"/>
      <use xlink:href="#DejaVuSans-73" x="804.833984"/>
     </g>
    </g>
    <g id="line2d_18">
     <path d="M 59.22 59.594219 
L 70.22 59.594219 
L 81.22 59.594219 
" style="fill: none; stroke-dasharray: 5.55,2.4; stroke-dashoffset: 0; stroke: #ff0000; stroke-width: 1.5"/>
    </g>
    <g id="text_19">
     <!-- $E_f$ = 3.373 eV -->
     <g style="fill: #262626" transform="translate(90.02 63.444219) scale(0.11 -0.11)">
      <defs>
       <path id="DejaVuSans-Oblique-45" d="M 1081 4666 
L 4031 4666 
L 3928 4134 
L 1606 4134 
L 1338 2753 
L 3566 2753 
L 3463 2222 
L 1234 2222 
L 909 531 
L 3284 531 
L 3181 0 
L 172 0 
L 1081 4666 
z
" transform="scale(0.015625)"/>
       <path id="DejaVuSans-Oblique-66" d="M 3059 4863 
L 2969 4384 
L 2419 4384 
Q 2106 4384 1964 4261 
Q 1822 4138 1753 3809 
L 1691 3500 
L 2638 3500 
L 2553 3053 
L 1606 3053 
L 1013 0 
L 434 0 
L 1031 3053 
L 481 3053 
L 563 3500 
L 1113 3500 
L 1159 3744 
Q 1278 4363 1576 4613 
Q 1875 4863 2516 4863 
L 3059 4863 
z
" transform="scale(0.015625)"/>
       <path id="DejaVuSans-3d" d="M 678 2906 
L 4684 2906 
L 4684 2381 
L 678 2381 
L 678 2906 
z
M 678 1631 
L 4684 1631 
L 4684 1100 
L 678 1100 
L 678 1631 
z
" transform="scale(0.015625)"/>
       <path id="DejaVuSans-33" d="M 2597 2516 
Q 3050 2419 3304 2112 
Q 3559 1806 3559 1356 
Q 3559 666 3084 287 
Q 2609 -91 1734 -91 
Q 1441 -91 1130 -33 
Q 819 25 488 141 
L 488 750 
Q 750 597 1062 519 
Q 1375 441 1716 441 
Q 2309 441 2620 675 
Q 2931 909 2931 1356 
Q 2931 1769 2642 2001 
Q 2353 2234 1838 2234 
L 1294 2234 
L 1294 2753 
L 1863 2753 
Q 2328 2753 2575 2939 
Q 2822 3125 2822 3475 
Q 2822 3834 2567 4026 
Q 2313 4219 1838 4219 
Q 1578 4219 1281 4162 
Q 984 4106 628 3988 
L 628 4550 
Q 988 4650 1302 4700 
Q 1616 4750 1894 4750 
Q 2613 4750 3031 4423 
Q 3450 4097 3450 3541 
Q 3450 3153 3228 2886 
Q 3006 2619 2597 2516 
z
" transform="scale(0.015625)"/>
      </defs>
      <use xlink:href="#DejaVuSans-Oblique-45" transform="translate(0 0.78125)"/>
      <use xlink:href="#DejaVuSans-Oblique-66" transform="translate(63.183594 -15.625) scale(0.7)"/>
      <use xlink:href="#DejaVuSans-20" transform="translate(90.561523 0.78125)"/>
      <use xlink:href="#DejaVuSans-3d" transform="translate(122.348633 0.78125)"/>
      <use xlink:href="#DejaVuSans-20" transform="translate(206.137695 0.78125)"/>
      <use xlink:href="#DejaVuSans-33" transform="translate(237.924805 0.78125)"/>
      <use xlink:href="#DejaVuSans-2e" transform="translate(301.547852 0.78125)"/>
      <use xlink:href="#DejaVuSans-33" transform="translate(333.334961 0.78125)"/>
      <use xlink:href="#DejaVuSans-37" transform="translate(396.958008 0.78125)"/>
      <use xlink:href="#DejaVuSans-33" transform="translate(460.581055 0.78125)"/>
      <use xlink:href="#DejaVuSans-20" transform="translate(524.204102 0.78125)"/>
      <use xlink:href="#DejaVuSans-65" transform="translate(555.991211 0.78125)"/>
      <use xlink:href="#DejaVuSans-56" transform="translate(617.514648 0.78125)"/>
     </g>
    </g>
   </g>
  </g>
  <g id="axes_2">
   <g id="patch_8">
    <path d="M 406.305 309.78 
L 707.04 309.78 
L 707.04 29.04 
L 406.305 29.04 
z
" style="fill: #ffffff"/>
   </g>
   <g id="matplotlib.axis_3">
    <g id="xtick_10">
     <g id="line2d_19">
      <path d="M 419.974773 309.78 
L 419.974773 29.04 
" clip-path="url(#pf9551e1f1e)" style="fill: none; stroke: #cccccc; stroke-linecap: round"/>
     </g>
     <g id="text_20">
      <!-- −10.0 -->
      <g style="fill: #262626" transform="translate(403.119851 327.638281) scale(0.11 -0.11)">
       <use xlink:href="#DejaVuSans-2212"/>
       <use xlink:href="#DejaVuSans-31" x="83.789062"/>
       <use xlink:href="#DejaVuSans-30" x="147.412109"/>
       <use xlink:href="#DejaVuSans-2e" x="211.035156"/>
       <use xlink:href="#DejaVuSans-30" x="242.822266"/>
      </g>
     </g>
    </g>
    <g id="xtick_11">
     <g id="line2d_20">
      <path d="M 454.149205 309.78 
L 454.149205 29.04 
" clip-path="url(#pf9551e1f1e)" style="fill: none; stroke: #cccccc; stroke-linecap: round"/>
     </g>
     <g id="text_21">
      <!-- −7.5 -->
      <g style="fill: #262626" transform="translate(440.793658 327.638281) scale(0.11 -0.11)">
       <use xlink:href="#DejaVuSans-2212"/>
       <use xlink:href="#DejaVuSans-37" x="83.789062"/>
       <use xlink:href="#DejaVuSans-2e" x="147.412109"/>
       <use xlink:href="#DejaVuSans-35" x="179.199219"/>
      </g>
     </g>
    </g>
    <g id="xtick_12">
     <g id="line2d_21">
      <path d="M 488.323636 309.78 
L 488.323636 29.04 
" clip-path="url(#pf9551e1f1e)" style="fill: none; stroke: #cccccc; stroke-linecap: round"/>
     </g>
     <g id="text_22">
      <!-- −5.0 -->
      <g style="fill: #262626" transform="translate(474.968089 327.638281) scale(0.11 -0.11)">
       <use xlink:href="#DejaVuSans-2212"/>
       <use xlink:href="#DejaVuSans-35" x="83.789062"/>
       <use xlink:href="#DejaVuSans-2e" x="147.412109"/>
       <use xlink:href="#DejaVuSans-30" x="179.199219"/>
      </g>
     </g>
    </g>
    <g id="xtick_13">
     <g id="line2d_22">
      <path d="M 522.498068 309.78 
L 522.498068 29.04 
" clip-path="url(#pf9551e1f1e)" style="fill: none; stroke: #cccccc; stroke-linecap: round"/>
     </g>
     <g id="text_23">
      <!-- −2.5 -->
      <g style="fill: #262626" transform="translate(509.142521 327.638281) scale(0.11 -0.11)">
       <use xlink:href="#DejaVuSans-2212"/>
       <use xlink:href="#DejaVuSans-32" x="83.789062"/>
       <use xlink:href="#DejaVuSans-2e" x="147.412109"/>
       <use xlink:href="#DejaVuSans-35" x="179.199219"/>
      </g>
     </g>
    </g>
    <g id="xtick_14">
     <g id="line2d_23">
      <path d="M 556.6725 309.78 
L 556.6725 29.04 
" clip-path="url(#pf9551e1f1e)" style="fill: none; stroke: #cccccc; stroke-linecap: round"/>
     </g>
     <g id="text_24">
      <!-- 0.0 -->
      <g style="fill: #262626" transform="translate(547.925781 327.638281) scale(0.11 -0.11)">
       <use xlink:href="#DejaVuSans-30"/>
       <use xlink:href="#DejaVuSans-2e" x="63.623047"/>
       <use xlink:href="#DejaVuSans-30" x="95.410156"/>
      </g>
     </g>
    </g>
    <g id="xtick_15">
     <g id="line2d_24">
      <path d="M 590.846932 309.78 
L 590.846932 29.04 
" clip-path="url(#pf9551e1f1e)" style="fill: none; stroke: #cccccc; stroke-linecap: round"/>
     </g>
     <g id="text_25">
      <!-- 2.5 -->
      <g style="fill: #262626" transform="translate(582.100213 327.638281) scale(0.11 -0.11)">
       <use xlink:href="#DejaVuSans-32"/>
       <use xlink:href="#DejaVuSans-2e" x="63.623047"/>
       <use xlink:href="#DejaVuSans-35" x="95.410156"/>
      </g>
     </g>
    </g>
    <g id="xtick_16">
     <g id="line2d_25">
      <path d="M 625.021364 309.78 
L 625.021364 29.04 
" clip-path="url(#pf9551e1f1e)" style="fill: none; stroke: #cccccc; stroke-linecap: round"/>
     </g>
     <g id="text_26">
      <!-- 5.0 -->
      <g style="fill: #262626" transform="translate(616.274645 327.638281) scale(0.11 -0.11)">
       <use xlink:href="#DejaVuSans-35"/>
       <use xlink:href="#DejaVuSans-2e" x="63.623047"/>
       <use xlink:href="#DejaVuSans-30" x="95.410156"/>
      </g>
     </g>
    </g>
    <g id="xtick_17">
     <g id="line2d_26">
      <path d="M 659.195795 309.78 
L 659.195795 29.04 
" clip-path="url(#pf9551e1f1e)" style="fill: none; stroke: #cccccc; stroke-linecap: round"/>
     </g>
     <g id="text_27">
      <!-- 7.5 -->
      <g style="fill: #262626" transform="translate(650.449077 327.638281) scale(0.11 -0.11)">
       <use xlink:href="#DejaVuSans-37"/>
       <use xlink:href="#DejaVuSans-2e" x="63.623047"/>
       <use xlink:href="#DejaVuSans-35" x="95.410156"/>
      </g>
     </g>
    </g>
    <g id="xtick_18">
     <g id="line2d_27">
      <path d="M 693.370227 309.78 
L 693.370227 29.04 
" clip-path="url(#pf9551e1f1e)" style="fill: none; stroke: #cccccc; stroke-linecap: round"/>
     </g>
     <g id="text_28">
      <!-- 10.0 -->
      <g style="fill: #262626" transform="translate(681.124134 327.638281) scale(0.11 -0.11)">
       <use xlink:href="#DejaVuSans-31"/>
       <use xlink:href="#DejaVuSans-30" x="63.623047"/>
       <use xlink:href="#DejaVuSans-2e" x="127.246094"/>
       <use xlink:href="#DejaVuSans-30" x="159.033203"/>
      </g>
     </g>
    </g>
    <g id="text_29">
     <!-- Energy (eV) -->
     <g style="fill: #262626" transform="translate(521.28 343.044062) scale(0.12 -0.12)">
      <use xlink:href="#DejaVuSans-45"/>
      <use xlink:href="#DejaVuSans-6e" x="63.183594"/>
      <use xlink:href="#DejaVuSans-65" x="126.5625"/>
      <use xlink:href="#DejaVuSans-72" x="188.085938"/>
      <use xlink:href="#DejaVuSans-67" x="227.449219"/>
      <use xlink:href="#DejaVuSans-79" x="290.925781"/>
      <use xlink:href="#DejaVuSans-20" x="350.105469"/>
      <use xlink:href="#DejaVuSans-28" x="381.892578"/>
      <use xlink:href="#DejaVuSans-65" x="420.90625"/>
      <use xlink:href="#DejaVuSans-56" x="482.429688"/>
      <use xlink:href="#DejaVuSans-29" x="550.837891"/>
     </g>
    </g>
   </g>
   <g id="matplotlib.axis_4">
    <g id="ytick_6">
     <g id="line2d_28">
      <path d="M 406.305 297.224089 
L 707.04 297.224089 
" clip-path="url(#pf9551e1f1e)" style="fill: none; stroke: #cccccc; stroke-linecap: round"/>
     </g>
     <g id="text_30">
      <!-- 0 -->
      <g style="fill: #262626" transform="translate(389.80625 301.40323) scale(0.11 -0.11)">
       <use xlink:href="#DejaVuSans-30"/>
      </g>
     </g>
    </g>
    <g id="ytick_7">
     <g id="line2d_29">
      <path d="M 406.305 250.749712 
L 707.04 250.749712 
" clip-path="url(#pf9551e1f1e)" style="fill: none; stroke: #cccccc; stroke-linecap: round"/>
     </g>
     <g id="text_31">
      <!-- 10 -->
      <g style="fill: #262626" transform="translate(382.8075 254.928852) scale(0.11 -0.11)">
       <use xlink:href="#DejaVuSans-31"/>
       <use xlink:href="#DejaVuSans-30" x="63.623047"/>
      </g>
     </g>
    </g>
    <g id="ytick_8">
     <g id="line2d_30">
      <path d="M 406.305 204.275334 
L 707.04 204.275334 
" clip-path="url(#pf9551e1f1e)" style="fill: none; stroke: #cccccc; stroke-linecap: round"/>
     </g>
     <g id="text_32">
      <!-- 20 -->
      <g style="fill: #262626" transform="translate(382.8075 208.454474) scale(0.11 -0.11)">
       <use xlink:href="#DejaVuSans-32"/>
       <use xlink:href="#DejaVuSans-30" x="63.623047"/>
      </g>
     </g>
    </g>
    <g id="ytick_9">
     <g id="line2d_31">
      <path d="M 406.305 157.800956 
L 707.04 157.800956 
" clip-path="url(#pf9551e1f1e)" style="fill: none; stroke: #cccccc; stroke-linecap: round"/>
     </g>
     <g id="text_33">
      <!-- 30 -->
      <g style="fill: #262626" transform="translate(382.8075 161.980097) scale(0.11 -0.11)">
       <use xlink:href="#DejaVuSans-33"/>
       <use xlink:href="#DejaVuSans-30" x="63.623047"/>
      </g>
     </g>
    </g>
    <g id="ytick_10">
     <g id="line2d_32">
      <path d="M 406.305 111.326578 
L 707.04 111.326578 
" clip-path="url(#pf9551e1f1e)" style="fill: none; stroke: #cccccc; stroke-linecap: round"/>
     </g>
     <g id="text_34">
      <!-- 40 -->
      <g style="fill: #262626" transform="translate(382.8075 115.505719) scale(0.11 -0.11)">
       <use xlink:href="#DejaVuSans-34"/>
       <use xlink:href="#DejaVuSans-30" x="63.623047"/>
      </g>
     </g>
    </g>
    <g id="ytick_11">
     <g id="line2d_33">
      <path d="M 406.305 64.8522 
L 707.04 64.8522 
" clip-path="url(#pf9551e1f1e)" style="fill: none; stroke: #cccccc; stroke-linecap: round"/>
     </g>
     <g id="text_35">
      <!-- 50 -->
      <g style="fill: #262626" transform="translate(382.8075 69.031341) scale(0.11 -0.11)">
       <use xlink:href="#DejaVuSans-35"/>
       <use xlink:href="#DejaVuSans-30" x="63.623047"/>
      </g>
     </g>
    </g>
    <g id="text_36">
     <!-- Integrated Density of States $(e^-)$ -->
     <g style="fill: #262626" transform="translate(376.2875 270.09) rotate(-90) scale(0.12 -0.12)">
      <defs>
       <path id="DejaVuSans-49" d="M 628 4666 
L 1259 4666 
L 1259 0 
L 628 0 
L 628 4666 
z
" transform="scale(0.015625)"/>
       <path id="DejaVuSans-64" d="M 2906 2969 
L 2906 4863 
L 3481 4863 
L 3481 0 
L 2906 0 
L 2906 525 
Q 2725 213 2448 61 
Q 2172 -91 1784 -91 
Q 1150 -91 751 415 
Q 353 922 353 1747 
Q 353 2572 751 3078 
Q 1150 3584 1784 3584 
Q 2172 3584 2448 3432 
Q 2725 3281 2906 2969 
z
M 947 1747 
Q 947 1113 1208 752 
Q 1469 391 1925 391 
Q 2381 391 2643 752 
Q 2906 1113 2906 1747 
Q 2906 2381 2643 2742 
Q 2381 3103 1925 3103 
Q 1469 3103 1208 2742 
Q 947 2381 947 1747 
z
" transform="scale(0.015625)"/>
      </defs>
      <use xlink:href="#DejaVuSans-49" transform="translate(0 0.015625)"/>
      <use xlink:href="#DejaVuSans-6e" transform="translate(29.492188 0.015625)"/>
      <use xlink:href="#DejaVuSans-74" transform="translate(92.871094 0.015625)"/>
      <use xlink:href="#DejaVuSans-65" transform="translate(132.080078 0.015625)"/>
      <use xlink:href="#DejaVuSans-67" transform="translate(193.603516 0.015625)"/>
      <use xlink:href="#DejaVuSans-72" transform="translate(257.080078 0.015625)"/>
      <use xlink:href="#DejaVuSans-61" transform="translate(298.193359 0.015625)"/>
      <use xlink:href="#DejaVuSans-74" transform="translate(359.472656 0.015625)"/>
      <use xlink:href="#DejaVuSans-65" transform="translate(398.681641 0.015625)"/>
      <use xlink:href="#DejaVuSans-64" transform="translate(460.205078 0.015625)"/>
      <use xlink:href="#DejaVuSans-20" transform="translate(523.681641 0.015625)"/>
      <use xlink:href="#DejaVuSans-44" transform="translate(555.46875 0.015625)"/>
      <use xlink:href="#DejaVuSans-65" transform="translate(632.470703 0.015625)"/>
      <use xlink:href="#DejaVuSans-6e" transform="translate(693.994141 0.015625)"/>
      <use xlink:href="#DejaVuSans-73" transform="translate(757.373047 0.015625)"/>
      <use xlink:href="#DejaVuSans-69" transform="translate(809.472656 0.015625)"/>
      <use xlink:href="#DejaVuSans-74" transform="translate(837.255859 0.015625)"/>
      <use xlink:href="#DejaVuSans-79" transform="translate(876.464844 0.015625)"/>
      <use xlink:href="#DejaVuSans-20" transform="translate(935.644531 0.015625)"/>
      <use xlink:href="#DejaVuSans-6f" transform="translate(967.431641 0.015625)"/>
      <use xlink:href="#DejaVuSans-66" transform="translate(1028.613281 0.015625)"/>
      <use xlink:href="#DejaVuSans-20" transform="translate(1063.818359 0.015625)"/>
      <use xlink:href="#DejaVuSans-53" transform="translate(1095.605469 0.015625)"/>
      <use xlink:href="#DejaVuSans-74" transform="translate(1159.082031 0.015625)"/>
      <use xlink:href="#DejaVuSans-61" transform="translate(1198.291016 0.015625)"/>
      <use xlink:href="#DejaVuSans-74" transform="translate(1259.570312 0.015625)"/>
      <use xlink:href="#DejaVuSans-65" transform="translate(1298.779297 0.015625)"/>
      <use xlink:href="#DejaVuSans-73" transform="translate(1360.302734 0.015625)"/>
      <use xlink:href="#DejaVuSans-20" transform="translate(1412.402344 0.015625)"/>
      <use xlink:href="#DejaVuSans-28" transform="translate(1444.189453 0.015625)"/>
      <use xlink:href="#DejaVuSans-Oblique-65" transform="translate(1483.203125 0.015625)"/>
      <use xlink:href="#DejaVuSans-2212" transform="translate(1563.014154 38.296875) scale(0.7)"/>
      <use xlink:href="#DejaVuSans-29" transform="translate(1638.038568 0.015625)"/>
     </g>
    </g>
   </g>
   <g id="line2d_34">
    <path d="M 419.974773 297.019091 
L 421.478448 294.549954 
L 423.11882 291.391555 
L 425.032589 287.111265 
L 428.996823 277.94187 
L 430.090405 276.031773 
L 431.047289 274.758375 
L 431.867475 273.959016 
L 432.824359 273.336259 
L 433.781243 272.964464 
L 435.011523 272.732092 
L 436.515198 272.634496 
L 440.479432 272.606611 
L 509.78518 272.504368 
L 511.425552 272.299881 
L 513.065925 271.867669 
L 514.706298 271.151963 
L 516.34667 270.152764 
L 518.397136 268.554046 
L 520.310905 266.73225 
L 522.36137 264.413179 
L 524.548534 261.503883 
L 527.282489 257.321189 
L 532.477002 249.216057 
L 534.800864 246.241697 
L 536.031143 244.847466 
L 537.261423 243.360286 
L 537.944911 242.523747 
L 539.721982 239.921182 
L 541.909145 236.017334 
L 544.369705 231.230473 
L 547.513752 226.071817 
L 549.154125 224.026944 
L 550.794498 222.214444 
L 552.161475 220.541366 
L 552.708266 219.84425 
L 553.801848 218.171173 
L 555.578918 214.964441 
L 560.226641 205.71604 
L 561.45692 203.81059 
L 563.507386 201.208025 
L 564.46427 200.09264 
L 565.967945 198.233665 
L 566.514736 197.536549 
L 568.155109 195.119881 
L 569.795482 192.145521 
L 571.70925 188.009302 
L 578.270741 172.672757 
L 581.96158 166.584613 
L 585.242325 161.937176 
L 586.335907 160.264098 
L 587.156093 158.962815 
L 593.444189 148.459606 
L 594.947864 146.600631 
L 596.588236 145.066977 
L 598.502005 143.858643 
L 601.919448 142.789732 
L 602.876332 142.696783 
L 603.423123 142.603835 
L 606.840566 142.510886 
L 607.250659 142.464411 
L 617.913082 142.371463 
L 618.459873 142.278514 
L 619.143361 142.185565 
L 621.877316 141.163129 
L 623.654386 139.861846 
L 625.704852 137.631076 
L 627.61862 134.842613 
L 628.985598 132.332997 
L 630.489273 129.033316 
L 631.719552 125.826584 
L 633.223227 121.457993 
L 638.417741 105.842602 
L 641.151695 99.615035 
L 645.936116 91.667916 
L 648.259977 88.693556 
L 655.368259 81.30413 
L 658.649005 76.656692 
L 659.605889 75.215987 
L 664.527007 68.709574 
L 667.397659 65.921111 
L 668.491241 65.084572 
L 669.038032 64.666303 
L 673.412359 61.598994 
L 673.95915 61.180725 
L 675.18943 60.251237 
L 676.009616 59.554121 
L 676.693105 58.996429 
L 678.060082 57.741621 
L 678.470175 57.369826 
L 683.664689 52.21117 
L 684.074782 51.839375 
L 690.636273 45.007641 
L 691.593157 43.892256 
L 692.686739 42.637448 
L 693.370227 41.800909 
L 693.370227 41.800909 
" clip-path="url(#pf9551e1f1e)" style="fill: none; stroke: #4c72b0; stroke-width: 1.5; stroke-linecap: round"/>
   </g>
   <g id="line2d_35">
    <path d="M 602.780643 309.78 
L 602.780643 29.04 
" clip-path="url(#pf9551e1f1e)" style="fill: none; stroke-dasharray: 5.55,2.4; stroke-dashoffset: 0; stroke: #ff0000; stroke-width: 1.5"/>
   </g>
   <g id="patch_9">
    <path d="M 406.305 309.78 
L 406.305 29.04 
" style="fill: none; stroke: #cccccc; stroke-width: 1.25; stroke-linejoin: miter; stroke-linecap: square"/>
   </g>
   <g id="patch_10">
    <path d="M 707.04 309.78 
L 707.04 29.04 
" style="fill: none; stroke: #cccccc; stroke-width: 1.25; stroke-linejoin: miter; stroke-linecap: square"/>
   </g>
   <g id="patch_11">
    <path d="M 406.305 309.78 
L 707.04 309.78 
" style="fill: none; stroke: #cccccc; stroke-width: 1.25; stroke-linejoin: miter; stroke-linecap: square"/>
   </g>
   <g id="patch_12">
    <path d="M 406.305 29.04 
L 707.04 29.04 
" style="fill: none; stroke: #cccccc; stroke-width: 1.25; stroke-linejoin: miter; stroke-linecap: square"/>
   </g>
   <g id="text_37">
    <!-- Integrated Density of States -->
    <g style="fill: #262626" transform="translate(471.928125 23.04) scale(0.12 -0.12)">
     <use xlink:href="#DejaVuSans-49"/>
     <use xlink:href="#DejaVuSans-6e" x="29.492188"/>
     <use xlink:href="#DejaVuSans-74" x="92.871094"/>
     <use xlink:href="#DejaVuSans-65" x="132.080078"/>
     <use xlink:href="#DejaVuSans-67" x="193.603516"/>
     <use xlink:href="#DejaVuSans-72" x="257.080078"/>
     <use xlink:href="#DejaVuSans-61" x="298.193359"/>
     <use xlink:href="#DejaVuSans-74" x="359.472656"/>
     <use xlink:href="#DejaVuSans-65" x="398.681641"/>
     <use xlink:href="#DejaVuSans-64" x="460.205078"/>
     <use xlink:href="#DejaVuSans-20" x="523.681641"/>
     <use xlink:href="#DejaVuSans-44" x="555.46875"/>
     <use xlink:href="#DejaVuSans-65" x="632.470703"/>
     <use xlink:href="#DejaVuSans-6e" x="693.994141"/>
     <use xlink:href="#DejaVuSans-73" x="757.373047"/>
     <use xlink:href="#DejaVuSans-69" x="809.472656"/>
     <use xlink:href="#DejaVuSans-74" x="837.255859"/>
     <use xlink:href="#DejaVuSans-79" x="876.464844"/>
     <use xlink:href="#DejaVuSans-20" x="935.644531"/>
     <use xlink:href="#DejaVuSans-6f" x="967.431641"/>
     <use xlink:href="#DejaVuSans-66" x="1028.613281"/>
     <use xlink:href="#DejaVuSans-20" x="1063.818359"/>
     <use xlink:href="#DejaVuSans-53" x="1095.605469"/>
     <use xlink:href="#DejaVuSans-74" x="1159.082031"/>
     <use xlink:href="#DejaVuSans-61" x="1198.291016"/>
     <use xlink:href="#DejaVuSans-74" x="1259.570312"/>
     <use xlink:href="#DejaVuSans-65" x="1298.779297"/>
     <use xlink:href="#DejaVuSans-73" x="1360.302734"/>
    </g>
   </g>
   <g id="legend_2">
    <g id="patch_13">
     <path d="M 414.005 70.131875 
L 604.569687 70.131875 
Q 606.769688 70.131875 606.769688 67.931875 
L 606.769688 36.74 
Q 606.769688 34.54 604.569687 34.54 
L 414.005 34.54 
Q 411.805 34.54 411.805 36.74 
L 411.805 67.931875 
Q 411.805 70.131875 414.005 70.131875 
z
" style="fill: #ffffff; opacity: 0.8; stroke: #cccccc; stroke-linejoin: miter"/>
    </g>
    <g id="line2d_36">
     <path d="M 416.205 43.448281 
L 427.205 43.448281 
L 438.205 43.448281 
" style="fill: none; stroke: #4c72b0; stroke-width: 1.5; stroke-linecap: round"/>
    </g>
    <g id="text_38">
     <!-- Integrated Density of States -->
     <g style="fill: #262626" transform="translate(447.005 47.298281) scale(0.11 -0.11)">
      <use xlink:href="#DejaVuSans-49"/>
      <use xlink:href="#DejaVuSans-6e" x="29.492188"/>
      <use xlink:href="#DejaVuSans-74" x="92.871094"/>
      <use xlink:href="#DejaVuSans-65" x="132.080078"/>
      <use xlink:href="#DejaVuSans-67" x="193.603516"/>
      <use xlink:href="#DejaVuSans-72" x="257.080078"/>
      <use xlink:href="#DejaVuSans-61" x="298.193359"/>
      <use xlink:href="#DejaVuSans-74" x="359.472656"/>
      <use xlink:href="#DejaVuSans-65" x="398.681641"/>
      <use xlink:href="#DejaVuSans-64" x="460.205078"/>
      <use xlink:href="#DejaVuSans-20" x="523.681641"/>
      <use xlink:href="#DejaVuSans-44" x="555.46875"/>
      <use xlink:href="#DejaVuSans-65" x="632.470703"/>
      <use xlink:href="#DejaVuSans-6e" x="693.994141"/>
      <use xlink:href="#DejaVuSans-73" x="757.373047"/>
      <use xlink:href="#DejaVuSans-69" x="809.472656"/>
      <use xlink:href="#DejaVuSans-74" x="837.255859"/>
      <use xlink:href="#DejaVuSans-79" x="876.464844"/>
      <use xlink:href="#DejaVuSans-20" x="935.644531"/>
      <use xlink:href="#DejaVuSans-6f" x="967.431641"/>
      <use xlink:href="#DejaVuSans-66" x="1028.613281"/>
      <use xlink:href="#DejaVuSans-20" x="1063.818359"/>
      <use xlink:href="#DejaVuSans-53" x="1095.605469"/>
      <use xlink:href="#DejaVuSans-74" x="1159.082031"/>
      <use xlink:href="#DejaVuSans-61" x="1198.291016"/>
      <use xlink:href="#DejaVuSans-74" x="1259.570312"/>
      <use xlink:href="#DejaVuSans-65" x="1298.779297"/>
      <use xlink:href="#DejaVuSans-73" x="1360.302734"/>
     </g>
    </g>
    <g id="line2d_37">
     <path d="M 416.205 59.594219 
L 427.205 59.594219 
L 438.205 59.594219 
" style="fill: none; stroke-dasharray: 5.55,2.4; stroke-dashoffset: 0; stroke: #ff0000; stroke-width: 1.5"/>
    </g>
    <g id="text_39">
     <!-- $E_f$ = 3.373 eV -->
     <g style="fill: #262626" transform="translate(447.005 63.444219) scale(0.11 -0.11)">
      <use xlink:href="#DejaVuSans-Oblique-45" transform="translate(0 0.78125)"/>
      <use xlink:href="#DejaVuSans-Oblique-66" transform="translate(63.183594 -15.625) scale(0.7)"/>
      <use xlink:href="#DejaVuSans-20" transform="translate(90.561523 0.78125)"/>
      <use xlink:href="#DejaVuSans-3d" transform="translate(122.348633 0.78125)"/>
      <use xlink:href="#DejaVuSans-20" transform="translate(206.137695 0.78125)"/>
      <use xlink:href="#DejaVuSans-33" transform="translate(237.924805 0.78125)"/>
      <use xlink:href="#DejaVuSans-2e" transform="translate(301.547852 0.78125)"/>
      <use xlink:href="#DejaVuSans-33" transform="translate(333.334961 0.78125)"/>
      <use xlink:href="#DejaVuSans-37" transform="translate(396.958008 0.78125)"/>
      <use xlink:href="#DejaVuSans-33" transform="translate(460.581055 0.78125)"/>
      <use xlink:href="#DejaVuSans-20" transform="translate(524.204102 0.78125)"/>
      <use xlink:href="#DejaVuSans-65" transform="translate(555.991211 0.78125)"/>
      <use xlink:href="#DejaVuSans-56" transform="translate(617.514648 0.78125)"/>
     </g>
    </g>
   </g>
  </g>
 </g>
 <defs>
  <clipPath id="pdebc662a5d">
   <rect x="49.32" y="29.04" width="300.735" height="280.74"/>
  </clipPath>
  <clipPath id="pf9551e1f1e">
   <rect x="406.305" y="29.04" width="300.735" height="280.74"/>
  </clipPath>
 </defs>
</svg>
