<?xml version="1.0" encoding="utf-8" standalone="no"?>
<!DOCTYPE svg PUBLIC "-//W3C//DTD SVG 1.1//EN"
  "http://www.w3.org/Graphics/SVG/1.1/DTD/svg11.dtd">
<svg xmlns:xlink="http://www.w3.org/1999/xlink" width="720pt" height="360pt" viewBox="0 0 720 360" xmlns="http://www.w3.org/2000/svg" version="1.1">
 <metadata>
  <rdf:RDF xmlns:dc="http://purl.org/dc/elements/1.1/" xmlns:cc="http://creativecommons.org/ns#" xmlns:rdf="http://www.w3.org/1999/02/22-rdf-syntax-ns#">
   <cc:Work>
    <dc:type rdf:resource="http://purl.org/dc/dcmitype/StillImage"/>
    <dc:date>2024-01-11T16:09:17.568551</dc:date>
    <dc:format>image/svg+xml</dc:format>
    <dc:creator>
     <cc:Agent>
      <dc:title>Matplotlib v3.7.1, https://matplotlib.org/</dc:title>
     </cc:Agent>
    </dc:creator>
   </cc:Work>
  </rdf:RDF>
 </metadata>
 <defs>
  <style type="text/css">*{stroke-linejoin: round; stroke-linecap: butt}</style>
 </defs>
 <g id="figure_1">
  <g id="patch_1">
   <path d="M 0 360 
L 720 360 
L 720 0 
L 0 0 
z
" style="fill: #ffffff"/>
  </g>
  <g id="axes_1">
   <g id="patch_2">
    <path d="M 49.32 309.78 
L 350.055 309.78 
L 350.055 29.04 
L 49.32 29.04 
z
" style="fill: #ffffff"/>
   </g>
   <g id="matplotlib.axis_1">
    <g id="xtick_1">
     <g id="line2d_1">
      <path d="M 62.989773 309.78 
L 62.989773 29.04 
" clip-path="url(#peb868d1dc4)" style="fill: none; stroke: #cccccc; stroke-linecap: round"/>
     </g>
     <g id="text_1">
      <!-- −10.0 -->
      <g style="fill: #262626" transform="translate(46.134851 327.638281) scale(0.11 -0.11)">
       <defs>
        <path id="DejaVuSans-2212" d="M 678 2272 
L 4684 2272 
L 4684 1741 
L 678 1741 
L 678 2272 
z
" transform="scale(0.015625)"/>
        <path id="DejaVuSans-31" d="M 794 531 
L 1825 531 
L 1825 4091 
L 703 3866 
L 703 4441 
L 1819 4666 
L 2450 4666 
L 2450 531 
L 3481 531 
L 3481 0 
L 794 0 
L 794 531 
z
" transform="scale(0.015625)"/>
        <path id="DejaVuSans-30" d="M 2034 4250 
Q 1547 4250 1301 3770 
Q 1056 3291 1056 2328 
Q 1056 1369 1301 889 
Q 1547 409 2034 409 
Q 2525 409 2770 889 
Q 3016 1369 3016 2328 
Q 3016 3291 2770 3770 
Q 2525 4250 2034 4250 
z
M 2034 4750 
Q 2819 4750 3233 4129 
Q 3647 3509 3647 2328 
Q 3647 1150 3233 529 
Q 2819 -91 2034 -91 
Q 1250 -91 836 529 
Q 422 1150 422 2328 
Q 422 3509 836 4129 
Q 1250 4750 2034 4750 
z
" transform="scale(0.015625)"/>
        <path id="DejaVuSans-2e" d="M 684 794 
L 1344 794 
L 1344 0 
L 684 0 
L 684 794 
z
" transform="scale(0.015625)"/>
       </defs>
       <use xlink:href="#DejaVuSans-2212"/>
       <use xlink:href="#DejaVuSans-31" x="83.789062"/>
       <use xlink:href="#DejaVuSans-30" x="147.412109"/>
       <use xlink:href="#DejaVuSans-2e" x="211.035156"/>
       <use xlink:href="#DejaVuSans-30" x="242.822266"/>
      </g>
     </g>
    </g>
    <g id="xtick_2">
     <g id="line2d_2">
      <path d="M 97.164205 309.78 
L 97.164205 29.04 
" clip-path="url(#peb868d1dc4)" style="fill: none; stroke: #cccccc; stroke-linecap: round"/>
     </g>
     <g id="text_2">
      <!-- −7.5 -->
      <g style="fill: #262626" transform="translate(83.808658 327.638281) scale(0.11 -0.11)">
       <defs>
        <path id="DejaVuSans-37" d="M 525 4666 
L 3525 4666 
L 3525 4397 
L 1831 0 
L 1172 0 
L 2766 4134 
L 525 4134 
L 525 4666 
z
" transform="scale(0.015625)"/>
        <path id="DejaVuSans-35" d="M 691 4666 
L 3169 4666 
L 3169 4134 
L 1269 4134 
L 1269 2991 
Q 1406 3038 1543 3061 
Q 1681 3084 1819 3084 
Q 2600 3084 3056 2656 
Q 3513 2228 3513 1497 
Q 3513 744 3044 326 
Q 2575 -91 1722 -91 
Q 1428 -91 1123 -41 
Q 819 9 494 109 
L 494 744 
Q 775 591 1075 516 
Q 1375 441 1709 441 
Q 2250 441 2565 725 
Q 2881 1009 2881 1497 
Q 2881 1984 2565 2268 
Q 2250 2553 1709 2553 
Q 1456 2553 1204 2497 
Q 953 2441 691 2322 
L 691 4666 
z
" transform="scale(0.015625)"/>
       </defs>
       <use xlink:href="#DejaVuSans-2212"/>
       <use xlink:href="#DejaVuSans-37" x="83.789062"/>
       <use xlink:href="#DejaVuSans-2e" x="147.412109"/>
       <use xlink:href="#DejaVuSans-35" x="179.199219"/>
      </g>
     </g>
    </g>
    <g id="xtick_3">
     <g id="line2d_3">
      <path d="M 131.338636 309.78 
L 131.338636 29.04 
" clip-path="url(#peb868d1dc4)" style="fill: none; stroke: #cccccc; stroke-linecap: round"/>
     </g>
     <g id="text_3">
      <!-- −5.0 -->
      <g style="fill: #262626" transform="translate(117.983089 327.638281) scale(0.11 -0.11)">
       <use xlink:href="#DejaVuSans-2212"/>
       <use xlink:href="#DejaVuSans-35" x="83.789062"/>
       <use xlink:href="#DejaVuSans-2e" x="147.412109"/>
       <use xlink:href="#DejaVuSans-30" x="179.199219"/>
      </g>
     </g>
    </g>
    <g id="xtick_4">
     <g id="line2d_4">
      <path d="M 165.513068 309.78 
L 165.513068 29.04 
" clip-path="url(#peb868d1dc4)" style="fill: none; stroke: #cccccc; stroke-linecap: round"/>
     </g>
     <g id="text_4">
      <!-- −2.5 -->
      <g style="fill: #262626" transform="translate(152.157521 327.638281) scale(0.11 -0.11)">
       <defs>
        <path id="DejaVuSans-32" d="M 1228 531 
L 3431 531 
L 3431 0 
L 469 0 
L 469 531 
Q 828 903 1448 1529 
Q 2069 2156 2228 2338 
Q 2531 2678 2651 2914 
Q 2772 3150 2772 3378 
Q 2772 3750 2511 3984 
Q 2250 4219 1831 4219 
Q 1534 4219 1204 4116 
Q 875 4013 500 3803 
L 500 4441 
Q 881 4594 1212 4672 
Q 1544 4750 1819 4750 
Q 2544 4750 2975 4387 
Q 3406 4025 3406 3419 
Q 3406 3131 3298 2873 
Q 3191 2616 2906 2266 
Q 2828 2175 2409 1742 
Q 1991 1309 1228 531 
z
" transform="scale(0.015625)"/>
       </defs>
       <use xlink:href="#DejaVuSans-2212"/>
       <use xlink:href="#DejaVuSans-32" x="83.789062"/>
       <use xlink:href="#DejaVuSans-2e" x="147.412109"/>
       <use xlink:href="#DejaVuSans-35" x="179.199219"/>
      </g>
     </g>
    </g>
    <g id="xtick_5">
     <g id="line2d_5">
      <path d="M 199.6875 309.78 
L 199.6875 29.04 
" clip-path="url(#peb868d1dc4)" style="fill: none; stroke: #cccccc; stroke-linecap: round"/>
     </g>
     <g id="text_5">
      <!-- 0.0 -->
      <g style="fill: #262626" transform="translate(190.940781 327.638281) scale(0.11 -0.11)">
       <use xlink:href="#DejaVuSans-30"/>
       <use xlink:href="#DejaVuSans-2e" x="63.623047"/>
       <use xlink:href="#DejaVuSans-30" x="95.410156"/>
      </g>
     </g>
    </g>
    <g id="xtick_6">
     <g id="line2d_6">
      <path d="M 233.861932 309.78 
L 233.861932 29.04 
" clip-path="url(#peb868d1dc4)" style="fill: none; stroke: #cccccc; stroke-linecap: round"/>
     </g>
     <g id="text_6">
      <!-- 2.5 -->
      <g style="fill: #262626" transform="translate(225.115213 327.638281) scale(0.11 -0.11)">
       <use xlink:href="#DejaVuSans-32"/>
       <use xlink:href="#DejaVuSans-2e" x="63.623047"/>
       <use xlink:href="#DejaVuSans-35" x="95.410156"/>
      </g>
     </g>
    </g>
    <g id="xtick_7">
     <g id="line2d_7">
      <path d="M 268.036364 309.78 
L 268.036364 29.04 
" clip-path="url(#peb868d1dc4)" style="fill: none; stroke: #cccccc; stroke-linecap: round"/>
     </g>
     <g id="text_7">
      <!-- 5.0 -->
      <g style="fill: #262626" transform="translate(259.289645 327.638281) scale(0.11 -0.11)">
       <use xlink:href="#DejaVuSans-35"/>
       <use xlink:href="#DejaVuSans-2e" x="63.623047"/>
       <use xlink:href="#DejaVuSans-30" x="95.410156"/>
      </g>
     </g>
    </g>
    <g id="xtick_8">
     <g id="line2d_8">
      <path d="M 302.210795 309.78 
L 302.210795 29.04 
" clip-path="url(#peb868d1dc4)" style="fill: none; stroke: #cccccc; stroke-linecap: round"/>
     </g>
     <g id="text_8">
      <!-- 7.5 -->
      <g style="fill: #262626" transform="translate(293.464077 327.638281) scale(0.11 -0.11)">
       <use xlink:href="#DejaVuSans-37"/>
       <use xlink:href="#DejaVuSans-2e" x="63.623047"/>
       <use xlink:href="#DejaVuSans-35" x="95.410156"/>
      </g>
     </g>
    </g>
    <g id="xtick_9">
     <g id="line2d_9">
      <path d="M 336.385227 309.78 
L 336.385227 29.04 
" clip-path="url(#peb868d1dc4)" style="fill: none; stroke: #cccccc; stroke-linecap: round"/>
     </g>
     <g id="text_9">
      <!-- 10.0 -->
      <g style="fill: #262626" transform="translate(324.139134 327.638281) scale(0.11 -0.11)">
       <use xlink:href="#DejaVuSans-31"/>
       <use xlink:href="#DejaVuSans-30" x="63.623047"/>
       <use xlink:href="#DejaVuSans-2e" x="127.246094"/>
       <use xlink:href="#DejaVuSans-30" x="159.033203"/>
      </g>
     </g>
    </g>
    <g id="text_10">
     <!-- Energy (eV) -->
     <g style="fill: #262626" transform="translate(164.295 343.044062) scale(0.12 -0.12)">
      <defs>
       <path id="DejaVuSans-45" d="M 628 4666 
L 3578 4666 
L 3578 4134 
L 1259 4134 
L 1259 2753 
L 3481 2753 
L 3481 2222 
L 1259 2222 
L 1259 531 
L 3634 531 
L 3634 0 
L 628 0 
L 628 4666 
z
" transform="scale(0.015625)"/>
       <path id="DejaVuSans-6e" d="M 3513 2113 
L 3513 0 
L 2938 0 
L 2938 2094 
Q 2938 2591 2744 2837 
Q 2550 3084 2163 3084 
Q 1697 3084 1428 2787 
Q 1159 2491 1159 1978 
L 1159 0 
L 581 0 
L 581 3500 
L 1159 3500 
L 1159 2956 
Q 1366 3272 1645 3428 
Q 1925 3584 2291 3584 
Q 2894 3584 3203 3211 
Q 3513 2838 3513 2113 
z
" transform="scale(0.015625)"/>
       <path id="DejaVuSans-65" d="M 3597 1894 
L 3597 1613 
L 953 1613 
Q 991 1019 1311 708 
Q 1631 397 2203 397 
Q 2534 397 2845 478 
Q 3156 559 3463 722 
L 3463 178 
Q 3153 47 2828 -22 
Q 2503 -91 2169 -91 
Q 1331 -91 842 396 
Q 353 884 353 1716 
Q 353 2575 817 3079 
Q 1281 3584 2069 3584 
Q 2775 3584 3186 3129 
Q 3597 2675 3597 1894 
z
M 3022 2063 
Q 3016 2534 2758 2815 
Q 2500 3097 2075 3097 
Q 1594 3097 1305 2825 
Q 1016 2553 972 2059 
L 3022 2063 
z
" transform="scale(0.015625)"/>
       <path id="DejaVuSans-72" d="M 2631 2963 
Q 2534 3019 2420 3045 
Q 2306 3072 2169 3072 
Q 1681 3072 1420 2755 
Q 1159 2438 1159 1844 
L 1159 0 
L 581 0 
L 581 3500 
L 1159 3500 
L 1159 2956 
Q 1341 3275 1631 3429 
Q 1922 3584 2338 3584 
Q 2397 3584 2469 3576 
Q 2541 3569 2628 3553 
L 2631 2963 
z
" transform="scale(0.015625)"/>
       <path id="DejaVuSans-67" d="M 2906 1791 
Q 2906 2416 2648 2759 
Q 2391 3103 1925 3103 
Q 1463 3103 1205 2759 
Q 947 2416 947 1791 
Q 947 1169 1205 825 
Q 1463 481 1925 481 
Q 2391 481 2648 825 
Q 2906 1169 2906 1791 
z
M 3481 434 
Q 3481 -459 3084 -895 
Q 2688 -1331 1869 -1331 
Q 1566 -1331 1297 -1286 
Q 1028 -1241 775 -1147 
L 775 -588 
Q 1028 -725 1275 -790 
Q 1522 -856 1778 -856 
Q 2344 -856 2625 -561 
Q 2906 -266 2906 331 
L 2906 616 
Q 2728 306 2450 153 
Q 2172 0 1784 0 
Q 1141 0 747 490 
Q 353 981 353 1791 
Q 353 2603 747 3093 
Q 1141 3584 1784 3584 
Q 2172 3584 2450 3431 
Q 2728 3278 2906 2969 
L 2906 3500 
L 3481 3500 
L 3481 434 
z
" transform="scale(0.015625)"/>
       <path id="DejaVuSans-79" d="M 2059 -325 
Q 1816 -950 1584 -1140 
Q 1353 -1331 966 -1331 
L 506 -1331 
L 506 -850 
L 844 -850 
Q 1081 -850 1212 -737 
Q 1344 -625 1503 -206 
L 1606 56 
L 191 3500 
L 800 3500 
L 1894 763 
L 2988 3500 
L 3597 3500 
L 2059 -325 
z
" transform="scale(0.015625)"/>
       <path id="DejaVuSans-20" transform="scale(0.015625)"/>
       <path id="DejaVuSans-28" d="M 1984 4856 
Q 1566 4138 1362 3434 
Q 1159 2731 1159 2009 
Q 1159 1288 1364 580 
Q 1569 -128 1984 -844 
L 1484 -844 
Q 1016 -109 783 600 
Q 550 1309 550 2009 
Q 550 2706 781 3412 
Q 1013 4119 1484 4856 
L 1984 4856 
z
" transform="scale(0.015625)"/>
       <path id="DejaVuSans-56" d="M 1831 0 
L 50 4666 
L 709 4666 
L 2188 738 
L 3669 4666 
L 4325 4666 
L 2547 0 
L 1831 0 
z
" transform="scale(0.015625)"/>
       <path id="DejaVuSans-29" d="M 513 4856 
L 1013 4856 
Q 1481 4119 1714 3412 
Q 1947 2706 1947 2009 
Q 1947 1309 1714 600 
Q 1481 -109 1013 -844 
L 513 -844 
Q 928 -128 1133 580 
Q 1338 1288 1338 2009 
Q 1338 2731 1133 3434 
Q 928 4138 513 4856 
z
" transform="scale(0.015625)"/>
      </defs>
      <use xlink:href="#DejaVuSans-45"/>
      <use xlink:href="#DejaVuSans-6e" x="63.183594"/>
      <use xlink:href="#DejaVuSans-65" x="126.5625"/>
      <use xlink:href="#DejaVuSans-72" x="188.085938"/>
      <use xlink:href="#DejaVuSans-67" x="227.449219"/>
      <use xlink:href="#DejaVuSans-79" x="290.925781"/>
      <use xlink:href="#DejaVuSans-20" x="350.105469"/>
      <use xlink:href="#DejaVuSans-28" x="381.892578"/>
      <use xlink:href="#DejaVuSans-65" x="420.90625"/>
      <use xlink:href="#DejaVuSans-56" x="482.429688"/>
      <use xlink:href="#DejaVuSans-29" x="550.837891"/>
     </g>
    </g>
   </g>
   <g id="matplotlib.axis_2">
    <g id="ytick_1">
     <g id="line2d_10">
      <path d="M 49.32 297.019091 
L 350.055 297.019091 
" clip-path="url(#peb868d1dc4)" style="fill: none; stroke: #cccccc; stroke-linecap: round"/>
     </g>
     <g id="text_11">
      <!-- 0 -->
      <g style="fill: #262626" transform="translate(32.82125 301.198232) scale(0.11 -0.11)">
       <use xlink:href="#DejaVuSans-30"/>
      </g>
     </g>
    </g>
    <g id="ytick_2">
     <g id="line2d_11">
      <path d="M 49.32 264.019585 
L 350.055 264.019585 
" clip-path="url(#peb868d1dc4)" style="fill: none; stroke: #cccccc; stroke-linecap: round"/>
     </g>
     <g id="text_12">
      <!-- 1 -->
      <g style="fill: #262626" transform="translate(32.82125 268.198725) scale(0.11 -0.11)">
       <use xlink:href="#DejaVuSans-31"/>
      </g>
     </g>
    </g>
    <g id="ytick_3">
     <g id="line2d_12">
      <path d="M 49.32 231.020078 
L 350.055 231.020078 
" clip-path="url(#peb868d1dc4)" style="fill: none; stroke: #cccccc; stroke-linecap: round"/>
     </g>
     <g id="text_13">
      <!-- 2 -->
      <g style="fill: #262626" transform="translate(32.82125 235.199219) scale(0.11 -0.11)">
       <use xlink:href="#DejaVuSans-32"/>
      </g>
     </g>
    </g>
    <g id="ytick_4">
     <g id="line2d_13">
      <path d="M 49.32 198.020572 
L 350.055 198.020572 
" clip-path="url(#peb868d1dc4)" style="fill: none; stroke: #cccccc; stroke-linecap: round"/>
     </g>
     <g id="text_14">
      <!-- 3 -->
      <g style="fill: #262626" transform="translate(32.82125 202.199713) scale(0.11 -0.11)">
       <defs>
        <path id="DejaVuSans-33" d="M 2597 2516 
Q 3050 2419 3304 2112 
Q 3559 1806 3559 1356 
Q 3559 666 3084 287 
Q 2609 -91 1734 -91 
Q 1441 -91 1130 -33 
Q 819 25 488 141 
L 488 750 
Q 750 597 1062 519 
Q 1375 441 1716 441 
Q 2309 441 2620 675 
Q 2931 909 2931 1356 
Q 2931 1769 2642 2001 
Q 2353 2234 1838 2234 
L 1294 2234 
L 1294 2753 
L 1863 2753 
Q 2328 2753 2575 2939 
Q 2822 3125 2822 3475 
Q 2822 3834 2567 4026 
Q 2313 4219 1838 4219 
Q 1578 4219 1281 4162 
Q 984 4106 628 3988 
L 628 4550 
Q 988 4650 1302 4700 
Q 1616 4750 1894 4750 
Q 2613 4750 3031 4423 
Q 3450 4097 3450 3541 
Q 3450 3153 3228 2886 
Q 3006 2619 2597 2516 
z
" transform="scale(0.015625)"/>
       </defs>
       <use xlink:href="#DejaVuSans-33"/>
      </g>
     </g>
    </g>
    <g id="ytick_5">
     <g id="line2d_14">
      <path d="M 49.32 165.021066 
L 350.055 165.021066 
" clip-path="url(#peb868d1dc4)" style="fill: none; stroke: #cccccc; stroke-linecap: round"/>
     </g>
     <g id="text_15">
      <!-- 4 -->
      <g style="fill: #262626" transform="translate(32.82125 169.200206) scale(0.11 -0.11)">
       <defs>
        <path id="DejaVuSans-34" d="M 2419 4116 
L 825 1625 
L 2419 1625 
L 2419 4116 
z
M 2253 4666 
L 3047 4666 
L 3047 1625 
L 3713 1625 
L 3713 1100 
L 3047 1100 
L 3047 0 
L 2419 0 
L 2419 1100 
L 313 1100 
L 313 1709 
L 2253 4666 
z
" transform="scale(0.015625)"/>
       </defs>
       <use xlink:href="#DejaVuSans-34"/>
      </g>
     </g>
    </g>
    <g id="ytick_6">
     <g id="line2d_15">
      <path d="M 49.32 132.021559 
L 350.055 132.021559 
" clip-path="url(#peb868d1dc4)" style="fill: none; stroke: #cccccc; stroke-linecap: round"/>
     </g>
     <g id="text_16">
      <!-- 5 -->
      <g style="fill: #262626" transform="translate(32.82125 136.2007) scale(0.11 -0.11)">
       <use xlink:href="#DejaVuSans-35"/>
      </g>
     </g>
    </g>
    <g id="ytick_7">
     <g id="line2d_16">
      <path d="M 49.32 99.022053 
L 350.055 99.022053 
" clip-path="url(#peb868d1dc4)" style="fill: none; stroke: #cccccc; stroke-linecap: round"/>
     </g>
     <g id="text_17">
      <!-- 6 -->
      <g style="fill: #262626" transform="translate(32.82125 103.201194) scale(0.11 -0.11)">
       <defs>
        <path id="DejaVuSans-36" d="M 2113 2584 
Q 1688 2584 1439 2293 
Q 1191 2003 1191 1497 
Q 1191 994 1439 701 
Q 1688 409 2113 409 
Q 2538 409 2786 701 
Q 3034 994 3034 1497 
Q 3034 2003 2786 2293 
Q 2538 2584 2113 2584 
z
M 3366 4563 
L 3366 3988 
Q 3128 4100 2886 4159 
Q 2644 4219 2406 4219 
Q 1781 4219 1451 3797 
Q 1122 3375 1075 2522 
Q 1259 2794 1537 2939 
Q 1816 3084 2150 3084 
Q 2853 3084 3261 2657 
Q 3669 2231 3669 1497 
Q 3669 778 3244 343 
Q 2819 -91 2113 -91 
Q 1303 -91 875 529 
Q 447 1150 447 2328 
Q 447 3434 972 4092 
Q 1497 4750 2381 4750 
Q 2619 4750 2861 4703 
Q 3103 4656 3366 4563 
z
" transform="scale(0.015625)"/>
       </defs>
       <use xlink:href="#DejaVuSans-36"/>
      </g>
     </g>
    </g>
    <g id="ytick_8">
     <g id="line2d_17">
      <path d="M 49.32 66.022547 
L 350.055 66.022547 
" clip-path="url(#peb868d1dc4)" style="fill: none; stroke: #cccccc; stroke-linecap: round"/>
     </g>
     <g id="text_18">
      <!-- 7 -->
      <g style="fill: #262626" transform="translate(32.82125 70.201687) scale(0.11 -0.11)">
       <use xlink:href="#DejaVuSans-37"/>
      </g>
     </g>
    </g>
    <g id="ytick_9">
     <g id="line2d_18">
      <path d="M 49.32 33.02304 
L 350.055 33.02304 
" clip-path="url(#peb868d1dc4)" style="fill: none; stroke: #cccccc; stroke-linecap: round"/>
     </g>
     <g id="text_19">
      <!-- 8 -->
      <g style="fill: #262626" transform="translate(32.82125 37.202181) scale(0.11 -0.11)">
       <defs>
        <path id="DejaVuSans-38" d="M 2034 2216 
Q 1584 2216 1326 1975 
Q 1069 1734 1069 1313 
Q 1069 891 1326 650 
Q 1584 409 2034 409 
Q 2484 409 2743 651 
Q 3003 894 3003 1313 
Q 3003 1734 2745 1975 
Q 2488 2216 2034 2216 
z
M 1403 2484 
Q 997 2584 770 2862 
Q 544 3141 544 3541 
Q 544 4100 942 4425 
Q 1341 4750 2034 4750 
Q 2731 4750 3128 4425 
Q 3525 4100 3525 3541 
Q 3525 3141 3298 2862 
Q 3072 2584 2669 2484 
Q 3125 2378 3379 2068 
Q 3634 1759 3634 1313 
Q 3634 634 3220 271 
Q 2806 -91 2034 -91 
Q 1263 -91 848 271 
Q 434 634 434 1313 
Q 434 1759 690 2068 
Q 947 2378 1403 2484 
z
M 1172 3481 
Q 1172 3119 1398 2916 
Q 1625 2713 2034 2713 
Q 2441 2713 2670 2916 
Q 2900 3119 2900 3481 
Q 2900 3844 2670 4047 
Q 2441 4250 2034 4250 
Q 1625 4250 1398 4047 
Q 1172 3844 1172 3481 
z
" transform="scale(0.015625)"/>
       </defs>
       <use xlink:href="#DejaVuSans-38"/>
      </g>
     </g>
    </g>
    <g id="text_20">
     <!-- Density of States $(e^-/eV)$ -->
     <g style="fill: #262626" transform="translate(26.30125 246.57) rotate(-90) scale(0.12 -0.12)">
      <defs>
       <path id="DejaVuSans-44" d="M 1259 4147 
L 1259 519 
L 2022 519 
Q 2988 519 3436 956 
Q 3884 1394 3884 2338 
Q 3884 3275 3436 3711 
Q 2988 4147 2022 4147 
L 1259 4147 
z
M 628 4666 
L 1925 4666 
Q 3281 4666 3915 4102 
Q 4550 3538 4550 2338 
Q 4550 1131 3912 565 
Q 3275 0 1925 0 
L 628 0 
L 628 4666 
z
" transform="scale(0.015625)"/>
       <path id="DejaVuSans-73" d="M 2834 3397 
L 2834 2853 
Q 2591 2978 2328 3040 
Q 2066 3103 1784 3103 
Q 1356 3103 1142 2972 
Q 928 2841 928 2578 
Q 928 2378 1081 2264 
Q 1234 2150 1697 2047 
L 1894 2003 
Q 2506 1872 2764 1633 
Q 3022 1394 3022 966 
Q 3022 478 2636 193 
Q 2250 -91 1575 -91 
Q 1294 -91 989 -36 
Q 684 19 347 128 
L 347 722 
Q 666 556 975 473 
Q 1284 391 1588 391 
Q 1994 391 2212 530 
Q 2431 669 2431 922 
Q 2431 1156 2273 1281 
Q 2116 1406 1581 1522 
L 1381 1569 
Q 847 1681 609 1914 
Q 372 2147 372 2553 
Q 372 3047 722 3315 
Q 1072 3584 1716 3584 
Q 2034 3584 2315 3537 
Q 2597 3491 2834 3397 
z
" transform="scale(0.015625)"/>
       <path id="DejaVuSans-69" d="M 603 3500 
L 1178 3500 
L 1178 0 
L 603 0 
L 603 3500 
z
M 603 4863 
L 1178 4863 
L 1178 4134 
L 603 4134 
L 603 4863 
z
" transform="scale(0.015625)"/>
       <path id="DejaVuSans-74" d="M 1172 4494 
L 1172 3500 
L 2356 3500 
L 2356 3053 
L 1172 3053 
L 1172 1153 
Q 1172 725 1289 603 
Q 1406 481 1766 481 
L 2356 481 
L 2356 0 
L 1766 0 
Q 1100 0 847 248 
Q 594 497 594 1153 
L 594 3053 
L 172 3053 
L 172 3500 
L 594 3500 
L 594 4494 
L 1172 4494 
z
" transform="scale(0.015625)"/>
       <path id="DejaVuSans-6f" d="M 1959 3097 
Q 1497 3097 1228 2736 
Q 959 2375 959 1747 
Q 959 1119 1226 758 
Q 1494 397 1959 397 
Q 2419 397 2687 759 
Q 2956 1122 2956 1747 
Q 2956 2369 2687 2733 
Q 2419 3097 1959 3097 
z
M 1959 3584 
Q 2709 3584 3137 3096 
Q 3566 2609 3566 1747 
Q 3566 888 3137 398 
Q 2709 -91 1959 -91 
Q 1206 -91 779 398 
Q 353 888 353 1747 
Q 353 2609 779 3096 
Q 1206 3584 1959 3584 
z
" transform="scale(0.015625)"/>
       <path id="DejaVuSans-66" d="M 2375 4863 
L 2375 4384 
L 1825 4384 
Q 1516 4384 1395 4259 
Q 1275 4134 1275 3809 
L 1275 3500 
L 2222 3500 
L 2222 3053 
L 1275 3053 
L 1275 0 
L 697 0 
L 697 3053 
L 147 3053 
L 147 3500 
L 697 3500 
L 697 3744 
Q 697 4328 969 4595 
Q 1241 4863 1831 4863 
L 2375 4863 
z
" transform="scale(0.015625)"/>
       <path id="DejaVuSans-53" d="M 3425 4513 
L 3425 3897 
Q 3066 4069 2747 4153 
Q 2428 4238 2131 4238 
Q 1616 4238 1336 4038 
Q 1056 3838 1056 3469 
Q 1056 3159 1242 3001 
Q 1428 2844 1947 2747 
L 2328 2669 
Q 3034 2534 3370 2195 
Q 3706 1856 3706 1288 
Q 3706 609 3251 259 
Q 2797 -91 1919 -91 
Q 1588 -91 1214 -16 
Q 841 59 441 206 
L 441 856 
Q 825 641 1194 531 
Q 1563 422 1919 422 
Q 2459 422 2753 634 
Q 3047 847 3047 1241 
Q 3047 1584 2836 1778 
Q 2625 1972 2144 2069 
L 1759 2144 
Q 1053 2284 737 2584 
Q 422 2884 422 3419 
Q 422 4038 858 4394 
Q 1294 4750 2059 4750 
Q 2388 4750 2728 4690 
Q 3069 4631 3425 4513 
z
" transform="scale(0.015625)"/>
       <path id="DejaVuSans-61" d="M 2194 1759 
Q 1497 1759 1228 1600 
Q 959 1441 959 1056 
Q 959 750 1161 570 
Q 1363 391 1709 391 
Q 2188 391 2477 730 
Q 2766 1069 2766 1631 
L 2766 1759 
L 2194 1759 
z
M 3341 1997 
L 3341 0 
L 2766 0 
L 2766 531 
Q 2569 213 2275 61 
Q 1981 -91 1556 -91 
Q 1019 -91 701 211 
Q 384 513 384 1019 
Q 384 1609 779 1909 
Q 1175 2209 1959 2209 
L 2766 2209 
L 2766 2266 
Q 2766 2663 2505 2880 
Q 2244 3097 1772 3097 
Q 1472 3097 1187 3025 
Q 903 2953 641 2809 
L 641 3341 
Q 956 3463 1253 3523 
Q 1550 3584 1831 3584 
Q 2591 3584 2966 3190 
Q 3341 2797 3341 1997 
z
" transform="scale(0.015625)"/>
       <path id="DejaVuSans-Oblique-65" d="M 3078 2063 
Q 3088 2113 3092 2166 
Q 3097 2219 3097 2272 
Q 3097 2653 2873 2875 
Q 2650 3097 2266 3097 
Q 1838 3097 1509 2826 
Q 1181 2556 1013 2059 
L 3078 2063 
z
M 3578 1613 
L 903 1613 
Q 884 1494 878 1425 
Q 872 1356 872 1306 
Q 872 872 1139 634 
Q 1406 397 1894 397 
Q 2269 397 2603 481 
Q 2938 566 3225 728 
L 3116 159 
Q 2806 34 2476 -28 
Q 2147 -91 1806 -91 
Q 1078 -91 686 257 
Q 294 606 294 1247 
Q 294 1794 489 2264 
Q 684 2734 1063 3103 
Q 1306 3334 1642 3459 
Q 1978 3584 2356 3584 
Q 2950 3584 3301 3228 
Q 3653 2872 3653 2272 
Q 3653 2128 3634 1964 
Q 3616 1800 3578 1613 
z
" transform="scale(0.015625)"/>
       <path id="DejaVuSans-2f" d="M 1625 4666 
L 2156 4666 
L 531 -594 
L 0 -594 
L 1625 4666 
z
" transform="scale(0.015625)"/>
       <path id="DejaVuSans-Oblique-56" d="M 1319 0 
L 500 4666 
L 1119 4666 
L 1797 653 
L 4063 4666 
L 4750 4666 
L 2053 0 
L 1319 0 
z
" transform="scale(0.015625)"/>
      </defs>
      <use xlink:href="#DejaVuSans-44" transform="translate(0 0.015625)"/>
      <use xlink:href="#DejaVuSans-65" transform="translate(77.001953 0.015625)"/>
      <use xlink:href="#DejaVuSans-6e" transform="translate(138.525391 0.015625)"/>
      <use xlink:href="#DejaVuSans-73" transform="translate(201.904297 0.015625)"/>
      <use xlink:href="#DejaVuSans-69" transform="translate(254.003906 0.015625)"/>
      <use xlink:href="#DejaVuSans-74" transform="translate(281.787109 0.015625)"/>
      <use xlink:href="#DejaVuSans-79" transform="translate(320.996094 0.015625)"/>
      <use xlink:href="#DejaVuSans-20" transform="translate(380.175781 0.015625)"/>
      <use xlink:href="#DejaVuSans-6f" transform="translate(411.962891 0.015625)"/>
      <use xlink:href="#DejaVuSans-66" transform="translate(473.144531 0.015625)"/>
      <use xlink:href="#DejaVuSans-20" transform="translate(508.349609 0.015625)"/>
      <use xlink:href="#DejaVuSans-53" transform="translate(540.136719 0.015625)"/>
      <use xlink:href="#DejaVuSans-74" transform="translate(603.613281 0.015625)"/>
      <use xlink:href="#DejaVuSans-61" transform="translate(642.822266 0.015625)"/>
      <use xlink:href="#DejaVuSans-74" transform="translate(704.101562 0.015625)"/>
      <use xlink:href="#DejaVuSans-65" transform="translate(743.310547 0.015625)"/>
      <use xlink:href="#DejaVuSans-73" transform="translate(804.833984 0.015625)"/>
      <use xlink:href="#DejaVuSans-20" transform="translate(856.933594 0.015625)"/>
      <use xlink:href="#DejaVuSans-28" transform="translate(888.720703 0.015625)"/>
      <use xlink:href="#DejaVuSans-Oblique-65" transform="translate(927.734375 0.015625)"/>
      <use xlink:href="#DejaVuSans-2212" transform="translate(1007.545404 38.296875) scale(0.7)"/>
      <use xlink:href="#DejaVuSans-2f" transform="translate(1082.569818 0.015625)"/>
      <use xlink:href="#DejaVuSans-Oblique-65" transform="translate(1116.261224 0.015625)"/>
      <use xlink:href="#DejaVuSans-Oblique-56" transform="translate(1177.784661 0.015625)"/>
      <use xlink:href="#DejaVuSans-29" transform="translate(1246.192865 0.015625)"/>
     </g>
    </g>
   </g>
   <g id="line2d_19">
    <path d="M 62.989773 297.019091 
L 119.992725 296.923359 
L 121.086307 296.709226 
L 121.906493 296.341941 
L 122.589982 295.800749 
L 123.27347 294.947382 
L 123.956959 293.686141 
L 124.640448 291.937167 
L 125.460634 289.145409 
L 126.417518 285.01717 
L 130.108357 267.963026 
L 130.928543 265.514462 
L 131.74873 263.68959 
L 132.568916 262.30361 
L 133.389102 261.280626 
L 134.345986 260.29064 
L 137.079941 257.518682 
L 138.31022 255.868707 
L 139.267105 254.053734 
L 140.087291 251.809767 
L 140.77078 249.235806 
L 141.454268 245.836857 
L 142.274455 240.358939 
L 143.231339 231.845066 
L 144.188223 221.021228 
L 145.418502 204.356477 
L 147.742364 169.146004 
L 150.202923 128.820607 
L 153.483668 72.45745 
L 154.167157 64.702566 
L 154.57725 61.633612 
L 154.987343 60.049636 
L 155.124041 59.917638 
L 155.260739 59.950638 
L 155.397436 60.181634 
L 155.670832 61.336617 
L 156.080925 64.702566 
L 156.491018 70.213484 
L 157.037809 80.872325 
L 157.721298 99.319049 
L 158.541484 127.665625 
L 161.685532 244.714873 
L 162.505718 264.613576 
L 163.189207 276.526397 
L 163.872695 284.759774 
L 164.556184 290.089195 
L 165.102975 292.805054 
L 165.649766 294.551388 
L 166.196557 295.627502 
L 166.743348 296.264062 
L 167.426836 296.685796 
L 168.247023 296.903989 
L 169.614 297.003027 
L 175.218607 297.019091 
L 234.135327 296.923689 
L 235.228909 296.697643 
L 236.049095 296.289802 
L 236.732584 295.658851 
L 237.279375 294.863563 
L 237.826166 293.71584 
L 238.509655 291.636871 
L 239.193143 288.673516 
L 239.876632 284.693775 
L 240.696818 278.503068 
L 241.653702 269.500803 
L 243.294075 251.479772 
L 245.207843 231.284074 
L 246.711518 218.117271 
L 250.128961 190.001692 
L 254.639986 150.600281 
L 255.733568 143.769384 
L 256.553755 140.106438 
L 257.100545 138.555462 
L 257.510639 138.027469 
L 257.784034 137.96147 
L 258.05743 138.225467 
L 258.330825 138.753459 
L 258.740918 140.139438 
L 259.287709 143.142393 
L 259.8345 147.33333 
L 260.654686 155.418209 
L 262.568455 175.283912 
L 263.115245 179.078855 
L 263.662036 181.355821 
L 264.07213 181.982812 
L 264.208827 182.015811 
L 264.482223 181.751815 
L 264.755618 181.091825 
L 265.165711 179.507849 
L 265.712502 176.240898 
L 266.395991 170.663981 
L 267.216177 162.08411 
L 268.173061 149.643296 
L 269.676736 126.411643 
L 270.770318 110.901875 
L 271.317109 105.522956 
L 271.727202 103.047993 
L 272.000598 102.289004 
L 272.137295 102.190006 
L 272.273993 102.289004 
L 272.547389 103.080992 
L 272.957482 105.720953 
L 273.367575 110.010889 
L 274.051064 120.372734 
L 275.144645 142.086409 
L 276.64832 171.38997 
L 277.331809 181.124825 
L 277.8786 186.470745 
L 278.288693 188.945708 
L 278.562089 189.836694 
L 278.835484 190.10069 
L 278.972182 190.001692 
L 279.245577 189.308702 
L 279.518973 188.021722 
L 279.929066 184.919768 
L 280.475857 178.715861 
L 281.159345 168.024021 
L 282.11623 149.016305 
L 283.8933 112.716848 
L 284.576789 102.948994 
L 285.12358 98.098067 
L 285.533673 96.382093 
L 285.67037 96.184095 
L 285.807068 96.184095 
L 286.080464 96.679088 
L 286.353859 97.90007 
L 286.763952 100.870025 
L 287.310743 106.677939 
L 288.267627 120.075738 
L 290.591489 153.966231 
L 291.68507 166.506043 
L 292.641955 175.349911 
L 293.325443 180.068841 
L 293.872234 182.477804 
L 294.14563 183.104795 
L 294.419025 183.269793 
L 294.555723 183.170794 
L 294.829118 182.510804 
L 295.239211 180.398836 
L 295.649305 176.801889 
L 296.196095 169.475999 
L 296.879584 156.243197 
L 297.69977 135.090513 
L 300.570423 54.637717 
L 301.117214 46.486839 
L 301.527307 42.988891 
L 301.800702 41.932907 
L 301.9374 41.800909 
L 302.074098 41.899908 
L 302.347493 42.790894 
L 302.757586 45.793849 
L 303.304377 52.294752 
L 304.124564 65.692552 
L 306.311727 103.080992 
L 307.405309 117.039783 
L 308.908984 132.912546 
L 310.95945 152.580252 
L 311.779636 158.586162 
L 312.326427 161.39112 
L 312.73652 162.645101 
L 313.009916 163.041095 
L 313.283311 163.074095 
L 313.556707 162.7111 
L 313.9668 161.457119 
L 314.513591 158.487163 
L 315.19708 152.910247 
L 316.153964 143.043394 
L 317.384243 130.767578 
L 317.931034 127.005634 
L 318.341127 125.28966 
L 318.614523 124.728668 
L 318.75122 124.662669 
L 319.024616 124.893666 
L 319.298011 125.685654 
L 319.708105 127.863622 
L 320.254895 132.516552 
L 320.938384 140.832428 
L 321.895268 155.880202 
L 326.406293 232.670054 
L 327.77327 250.786783 
L 329.140248 266.002855 
L 330.23383 275.935706 
L 331.190714 282.845803 
L 332.0109 287.426134 
L 332.831086 290.851483 
L 333.651273 293.263747 
L 334.334761 294.645436 
L 335.01825 295.581962 
L 335.701739 296.187833 
L 336.385227 296.560398 
L 336.385227 296.560398 
" clip-path="url(#peb868d1dc4)" style="fill: none; stroke: #4c72b0; stroke-width: 1.5; stroke-linecap: round"/>
   </g>
   <g id="line2d_20">
    <path d="M 332.051909 309.78 
L 332.051909 29.04 
" clip-path="url(#peb868d1dc4)" style="fill: none; stroke-dasharray: 5.55,2.4; stroke-dashoffset: 0; stroke: #ff0000; stroke-width: 1.5"/>
   </g>
   <g id="patch_3">
    <path d="M 49.32 309.78 
L 49.32 29.04 
" style="fill: none; stroke: #cccccc; stroke-width: 1.25; stroke-linejoin: miter; stroke-linecap: square"/>
   </g>
   <g id="patch_4">
    <path d="M 350.055 309.78 
L 350.055 29.04 
" style="fill: none; stroke: #cccccc; stroke-width: 1.25; stroke-linejoin: miter; stroke-linecap: square"/>
   </g>
   <g id="patch_5">
    <path d="M 49.32 309.78 
L 350.055 309.78 
" style="fill: none; stroke: #cccccc; stroke-width: 1.25; stroke-linejoin: miter; stroke-linecap: square"/>
   </g>
   <g id="patch_6">
    <path d="M 49.32 29.04 
L 350.055 29.04 
" style="fill: none; stroke: #cccccc; stroke-width: 1.25; stroke-linejoin: miter; stroke-linecap: square"/>
   </g>
   <g id="text_21">
    <!-- Density of States -->
    <g style="fill: #262626" transform="translate(148.272188 23.04) scale(0.12 -0.12)">
     <use xlink:href="#DejaVuSans-44"/>
     <use xlink:href="#DejaVuSans-65" x="77.001953"/>
     <use xlink:href="#DejaVuSans-6e" x="138.525391"/>
     <use xlink:href="#DejaVuSans-73" x="201.904297"/>
     <use xlink:href="#DejaVuSans-69" x="254.003906"/>
     <use xlink:href="#DejaVuSans-74" x="281.787109"/>
     <use xlink:href="#DejaVuSans-79" x="320.996094"/>
     <use xlink:href="#DejaVuSans-20" x="380.175781"/>
     <use xlink:href="#DejaVuSans-6f" x="411.962891"/>
     <use xlink:href="#DejaVuSans-66" x="473.144531"/>
     <use xlink:href="#DejaVuSans-20" x="508.349609"/>
     <use xlink:href="#DejaVuSans-53" x="540.136719"/>
     <use xlink:href="#DejaVuSans-74" x="603.613281"/>
     <use xlink:href="#DejaVuSans-61" x="642.822266"/>
     <use xlink:href="#DejaVuSans-74" x="704.101562"/>
     <use xlink:href="#DejaVuSans-65" x="743.310547"/>
     <use xlink:href="#DejaVuSans-73" x="804.833984"/>
    </g>
   </g>
   <g id="legend_1">
    <g id="patch_7">
     <path d="M 57.02 70.131875 
L 186.481406 70.131875 
Q 188.681406 70.131875 188.681406 67.931875 
L 188.681406 36.74 
Q 188.681406 34.54 186.481406 34.54 
L 57.02 34.54 
Q 54.82 34.54 54.82 36.74 
L 54.82 67.931875 
Q 54.82 70.131875 57.02 70.131875 
z
" style="fill: #ffffff; opacity: 0.8; stroke: #cccccc; stroke-linejoin: miter"/>
    </g>
    <g id="line2d_21">
     <path d="M 59.22 43.448281 
L 70.22 43.448281 
L 81.22 43.448281 
" style="fill: none; stroke: #4c72b0; stroke-width: 1.5; stroke-linecap: round"/>
    </g>
    <g id="text_22">
     <!-- Density of States -->
     <g style="fill: #262626" transform="translate(90.02 47.298281) scale(0.11 -0.11)">
      <use xlink:href="#DejaVuSans-44"/>
      <use xlink:href="#DejaVuSans-65" x="77.001953"/>
      <use xlink:href="#DejaVuSans-6e" x="138.525391"/>
      <use xlink:href="#DejaVuSans-73" x="201.904297"/>
      <use xlink:href="#DejaVuSans-69" x="254.003906"/>
      <use xlink:href="#DejaVuSans-74" x="281.787109"/>
      <use xlink:href="#DejaVuSans-79" x="320.996094"/>
      <use xlink:href="#DejaVuSans-20" x="380.175781"/>
      <use xlink:href="#DejaVuSans-6f" x="411.962891"/>
      <use xlink:href="#DejaVuSans-66" x="473.144531"/>
      <use xlink:href="#DejaVuSans-20" x="508.349609"/>
      <use xlink:href="#DejaVuSans-53" x="540.136719"/>
      <use xlink:href="#DejaVuSans-74" x="603.613281"/>
      <use xlink:href="#DejaVuSans-61" x="642.822266"/>
      <use xlink:href="#DejaVuSans-74" x="704.101562"/>
      <use xlink:href="#DejaVuSans-65" x="743.310547"/>
      <use xlink:href="#DejaVuSans-73" x="804.833984"/>
     </g>
    </g>
    <g id="line2d_22">
     <path d="M 59.22 59.594219 
L 70.22 59.594219 
L 81.22 59.594219 
" style="fill: none; stroke-dasharray: 5.55,2.4; stroke-dashoffset: 0; stroke: #ff0000; stroke-width: 1.5"/>
    </g>
    <g id="text_23">
     <!-- $E_f$ = 9.683 eV -->
     <g style="fill: #262626" transform="translate(90.02 63.444219) scale(0.11 -0.11)">
      <defs>
       <path id="DejaVuSans-Oblique-45" d="M 1081 4666 
L 4031 4666 
L 3928 4134 
L 1606 4134 
L 1338 2753 
L 3566 2753 
L 3463 2222 
L 1234 2222 
L 909 531 
L 3284 531 
L 3181 0 
L 172 0 
L 1081 4666 
z
" transform="scale(0.015625)"/>
       <path id="DejaVuSans-Oblique-66" d="M 3059 4863 
L 2969 4384 
L 2419 4384 
Q 2106 4384 1964 4261 
Q 1822 4138 1753 3809 
L 1691 3500 
L 2638 3500 
L 2553 3053 
L 1606 3053 
L 1013 0 
L 434 0 
L 1031 3053 
L 481 3053 
L 563 3500 
L 1113 3500 
L 1159 3744 
Q 1278 4363 1576 4613 
Q 1875 4863 2516 4863 
L 3059 4863 
z
" transform="scale(0.015625)"/>
       <path id="DejaVuSans-3d" d="M 678 2906 
L 4684 2906 
L 4684 2381 
L 678 2381 
L 678 2906 
z
M 678 1631 
L 4684 1631 
L 4684 1100 
L 678 1100 
L 678 1631 
z
" transform="scale(0.015625)"/>
       <path id="DejaVuSans-39" d="M 703 97 
L 703 672 
Q 941 559 1184 500 
Q 1428 441 1663 441 
Q 2288 441 2617 861 
Q 2947 1281 2994 2138 
Q 2813 1869 2534 1725 
Q 2256 1581 1919 1581 
Q 1219 1581 811 2004 
Q 403 2428 403 3163 
Q 403 3881 828 4315 
Q 1253 4750 1959 4750 
Q 2769 4750 3195 4129 
Q 3622 3509 3622 2328 
Q 3622 1225 3098 567 
Q 2575 -91 1691 -91 
Q 1453 -91 1209 -44 
Q 966 3 703 97 
z
M 1959 2075 
Q 2384 2075 2632 2365 
Q 2881 2656 2881 3163 
Q 2881 3666 2632 3958 
Q 2384 4250 1959 4250 
Q 1534 4250 1286 3958 
Q 1038 3666 1038 3163 
Q 1038 2656 1286 2365 
Q 1534 2075 1959 2075 
z
" transform="scale(0.015625)"/>
      </defs>
      <use xlink:href="#DejaVuSans-Oblique-45" transform="translate(0 0.78125)"/>
      <use xlink:href="#DejaVuSans-Oblique-66" transform="translate(63.183594 -15.625) scale(0.7)"/>
      <use xlink:href="#DejaVuSans-20" transform="translate(90.561523 0.78125)"/>
      <use xlink:href="#DejaVuSans-3d" transform="translate(122.348633 0.78125)"/>
      <use xlink:href="#DejaVuSans-20" transform="translate(206.137695 0.78125)"/>
      <use xlink:href="#DejaVuSans-39" transform="translate(237.924805 0.78125)"/>
      <use xlink:href="#DejaVuSans-2e" transform="translate(301.547852 0.78125)"/>
      <use xlink:href="#DejaVuSans-36" transform="translate(333.334961 0.78125)"/>
      <use xlink:href="#DejaVuSans-38" transform="translate(396.958008 0.78125)"/>
      <use xlink:href="#DejaVuSans-33" transform="translate(460.581055 0.78125)"/>
      <use xlink:href="#DejaVuSans-20" transform="translate(524.204102 0.78125)"/>
      <use xlink:href="#DejaVuSans-65" transform="translate(555.991211 0.78125)"/>
      <use xlink:href="#DejaVuSans-56" transform="translate(617.514648 0.78125)"/>
     </g>
    </g>
   </g>
  </g>
  <g id="axes_2">
   <g id="patch_8">
    <path d="M 406.305 309.78 
L 707.04 309.78 
L 707.04 29.04 
L 406.305 29.04 
z
" style="fill: #ffffff"/>
   </g>
   <g id="matplotlib.axis_3">
    <g id="xtick_10">
     <g id="line2d_23">
      <path d="M 419.974773 309.78 
L 419.974773 29.04 
" clip-path="url(#pf69d14e93d)" style="fill: none; stroke: #cccccc; stroke-linecap: round"/>
     </g>
     <g id="text_24">
      <!-- −10.0 -->
      <g style="fill: #262626" transform="translate(403.119851 327.638281) scale(0.11 -0.11)">
       <use xlink:href="#DejaVuSans-2212"/>
       <use xlink:href="#DejaVuSans-31" x="83.789062"/>
       <use xlink:href="#DejaVuSans-30" x="147.412109"/>
       <use xlink:href="#DejaVuSans-2e" x="211.035156"/>
       <use xlink:href="#DejaVuSans-30" x="242.822266"/>
      </g>
     </g>
    </g>
    <g id="xtick_11">
     <g id="line2d_24">
      <path d="M 454.149205 309.78 
L 454.149205 29.04 
" clip-path="url(#pf69d14e93d)" style="fill: none; stroke: #cccccc; stroke-linecap: round"/>
     </g>
     <g id="text_25">
      <!-- −7.5 -->
      <g style="fill: #262626" transform="translate(440.793658 327.638281) scale(0.11 -0.11)">
       <use xlink:href="#DejaVuSans-2212"/>
       <use xlink:href="#DejaVuSans-37" x="83.789062"/>
       <use xlink:href="#DejaVuSans-2e" x="147.412109"/>
       <use xlink:href="#DejaVuSans-35" x="179.199219"/>
      </g>
     </g>
    </g>
    <g id="xtick_12">
     <g id="line2d_25">
      <path d="M 488.323636 309.78 
L 488.323636 29.04 
" clip-path="url(#pf69d14e93d)" style="fill: none; stroke: #cccccc; stroke-linecap: round"/>
     </g>
     <g id="text_26">
      <!-- −5.0 -->
      <g style="fill: #262626" transform="translate(474.968089 327.638281) scale(0.11 -0.11)">
       <use xlink:href="#DejaVuSans-2212"/>
       <use xlink:href="#DejaVuSans-35" x="83.789062"/>
       <use xlink:href="#DejaVuSans-2e" x="147.412109"/>
       <use xlink:href="#DejaVuSans-30" x="179.199219"/>
      </g>
     </g>
    </g>
    <g id="xtick_13">
     <g id="line2d_26">
      <path d="M 522.498068 309.78 
L 522.498068 29.04 
" clip-path="url(#pf69d14e93d)" style="fill: none; stroke: #cccccc; stroke-linecap: round"/>
     </g>
     <g id="text_27">
      <!-- −2.5 -->
      <g style="fill: #262626" transform="translate(509.142521 327.638281) scale(0.11 -0.11)">
       <use xlink:href="#DejaVuSans-2212"/>
       <use xlink:href="#DejaVuSans-32" x="83.789062"/>
       <use xlink:href="#DejaVuSans-2e" x="147.412109"/>
       <use xlink:href="#DejaVuSans-35" x="179.199219"/>
      </g>
     </g>
    </g>
    <g id="xtick_14">
     <g id="line2d_27">
      <path d="M 556.6725 309.78 
L 556.6725 29.04 
" clip-path="url(#pf69d14e93d)" style="fill: none; stroke: #cccccc; stroke-linecap: round"/>
     </g>
     <g id="text_28">
      <!-- 0.0 -->
      <g style="fill: #262626" transform="translate(547.925781 327.638281) scale(0.11 -0.11)">
       <use xlink:href="#DejaVuSans-30"/>
       <use xlink:href="#DejaVuSans-2e" x="63.623047"/>
       <use xlink:href="#DejaVuSans-30" x="95.410156"/>
      </g>
     </g>
    </g>
    <g id="xtick_15">
     <g id="line2d_28">
      <path d="M 590.846932 309.78 
L 590.846932 29.04 
" clip-path="url(#pf69d14e93d)" style="fill: none; stroke: #cccccc; stroke-linecap: round"/>
     </g>
     <g id="text_29">
      <!-- 2.5 -->
      <g style="fill: #262626" transform="translate(582.100213 327.638281) scale(0.11 -0.11)">
       <use xlink:href="#DejaVuSans-32"/>
       <use xlink:href="#DejaVuSans-2e" x="63.623047"/>
       <use xlink:href="#DejaVuSans-35" x="95.410156"/>
      </g>
     </g>
    </g>
    <g id="xtick_16">
     <g id="line2d_29">
      <path d="M 625.021364 309.78 
L 625.021364 29.04 
" clip-path="url(#pf69d14e93d)" style="fill: none; stroke: #cccccc; stroke-linecap: round"/>
     </g>
     <g id="text_30">
      <!-- 5.0 -->
      <g style="fill: #262626" transform="translate(616.274645 327.638281) scale(0.11 -0.11)">
       <use xlink:href="#DejaVuSans-35"/>
       <use xlink:href="#DejaVuSans-2e" x="63.623047"/>
       <use xlink:href="#DejaVuSans-30" x="95.410156"/>
      </g>
     </g>
    </g>
    <g id="xtick_17">
     <g id="line2d_30">
      <path d="M 659.195795 309.78 
L 659.195795 29.04 
" clip-path="url(#pf69d14e93d)" style="fill: none; stroke: #cccccc; stroke-linecap: round"/>
     </g>
     <g id="text_31">
      <!-- 7.5 -->
      <g style="fill: #262626" transform="translate(650.449077 327.638281) scale(0.11 -0.11)">
       <use xlink:href="#DejaVuSans-37"/>
       <use xlink:href="#DejaVuSans-2e" x="63.623047"/>
       <use xlink:href="#DejaVuSans-35" x="95.410156"/>
      </g>
     </g>
    </g>
    <g id="xtick_18">
     <g id="line2d_31">
      <path d="M 693.370227 309.78 
L 693.370227 29.04 
" clip-path="url(#pf69d14e93d)" style="fill: none; stroke: #cccccc; stroke-linecap: round"/>
     </g>
     <g id="text_32">
      <!-- 10.0 -->
      <g style="fill: #262626" transform="translate(681.124134 327.638281) scale(0.11 -0.11)">
       <use xlink:href="#DejaVuSans-31"/>
       <use xlink:href="#DejaVuSans-30" x="63.623047"/>
       <use xlink:href="#DejaVuSans-2e" x="127.246094"/>
       <use xlink:href="#DejaVuSans-30" x="159.033203"/>
      </g>
     </g>
    </g>
    <g id="text_33">
     <!-- Energy (eV) -->
     <g style="fill: #262626" transform="translate(521.28 343.044062) scale(0.12 -0.12)">
      <use xlink:href="#DejaVuSans-45"/>
      <use xlink:href="#DejaVuSans-6e" x="63.183594"/>
      <use xlink:href="#DejaVuSans-65" x="126.5625"/>
      <use xlink:href="#DejaVuSans-72" x="188.085938"/>
      <use xlink:href="#DejaVuSans-67" x="227.449219"/>
      <use xlink:href="#DejaVuSans-79" x="290.925781"/>
      <use xlink:href="#DejaVuSans-20" x="350.105469"/>
      <use xlink:href="#DejaVuSans-28" x="381.892578"/>
      <use xlink:href="#DejaVuSans-65" x="420.90625"/>
      <use xlink:href="#DejaVuSans-56" x="482.429688"/>
      <use xlink:href="#DejaVuSans-29" x="550.837891"/>
     </g>
    </g>
   </g>
   <g id="matplotlib.axis_4">
    <g id="ytick_10">
     <g id="line2d_32">
      <path d="M 406.305 297.019091 
L 707.04 297.019091 
" clip-path="url(#pf69d14e93d)" style="fill: none; stroke: #cccccc; stroke-linecap: round"/>
     </g>
     <g id="text_34">
      <!-- 0 -->
      <g style="fill: #262626" transform="translate(389.80625 301.198232) scale(0.11 -0.11)">
       <use xlink:href="#DejaVuSans-30"/>
      </g>
     </g>
    </g>
    <g id="ytick_11">
     <g id="line2d_33">
      <path d="M 406.305 261.572121 
L 707.04 261.572121 
" clip-path="url(#pf69d14e93d)" style="fill: none; stroke: #cccccc; stroke-linecap: round"/>
     </g>
     <g id="text_35">
      <!-- 5 -->
      <g style="fill: #262626" transform="translate(389.80625 265.751262) scale(0.11 -0.11)">
       <use xlink:href="#DejaVuSans-35"/>
      </g>
     </g>
    </g>
    <g id="ytick_12">
     <g id="line2d_34">
      <path d="M 406.305 226.125152 
L 707.04 226.125152 
" clip-path="url(#pf69d14e93d)" style="fill: none; stroke: #cccccc; stroke-linecap: round"/>
     </g>
     <g id="text_36">
      <!-- 10 -->
      <g style="fill: #262626" transform="translate(382.8075 230.304292) scale(0.11 -0.11)">
       <use xlink:href="#DejaVuSans-31"/>
       <use xlink:href="#DejaVuSans-30" x="63.623047"/>
      </g>
     </g>
    </g>
    <g id="ytick_13">
     <g id="line2d_35">
      <path d="M 406.305 190.678182 
L 707.04 190.678182 
" clip-path="url(#pf69d14e93d)" style="fill: none; stroke: #cccccc; stroke-linecap: round"/>
     </g>
     <g id="text_37">
      <!-- 15 -->
      <g style="fill: #262626" transform="translate(382.8075 194.857322) scale(0.11 -0.11)">
       <use xlink:href="#DejaVuSans-31"/>
       <use xlink:href="#DejaVuSans-35" x="63.623047"/>
      </g>
     </g>
    </g>
    <g id="ytick_14">
     <g id="line2d_36">
      <path d="M 406.305 155.231212 
L 707.04 155.231212 
" clip-path="url(#pf69d14e93d)" style="fill: none; stroke: #cccccc; stroke-linecap: round"/>
     </g>
     <g id="text_38">
      <!-- 20 -->
      <g style="fill: #262626" transform="translate(382.8075 159.410353) scale(0.11 -0.11)">
       <use xlink:href="#DejaVuSans-32"/>
       <use xlink:href="#DejaVuSans-30" x="63.623047"/>
      </g>
     </g>
    </g>
    <g id="ytick_15">
     <g id="line2d_37">
      <path d="M 406.305 119.784242 
L 707.04 119.784242 
" clip-path="url(#pf69d14e93d)" style="fill: none; stroke: #cccccc; stroke-linecap: round"/>
     </g>
     <g id="text_39">
      <!-- 25 -->
      <g style="fill: #262626" transform="translate(382.8075 123.963383) scale(0.11 -0.11)">
       <use xlink:href="#DejaVuSans-32"/>
       <use xlink:href="#DejaVuSans-35" x="63.623047"/>
      </g>
     </g>
    </g>
    <g id="ytick_16">
     <g id="line2d_38">
      <path d="M 406.305 84.337273 
L 707.04 84.337273 
" clip-path="url(#pf69d14e93d)" style="fill: none; stroke: #cccccc; stroke-linecap: round"/>
     </g>
     <g id="text_40">
      <!-- 30 -->
      <g style="fill: #262626" transform="translate(382.8075 88.516413) scale(0.11 -0.11)">
       <use xlink:href="#DejaVuSans-33"/>
       <use xlink:href="#DejaVuSans-30" x="63.623047"/>
      </g>
     </g>
    </g>
    <g id="ytick_17">
     <g id="line2d_39">
      <path d="M 406.305 48.890303 
L 707.04 48.890303 
" clip-path="url(#pf69d14e93d)" style="fill: none; stroke: #cccccc; stroke-linecap: round"/>
     </g>
     <g id="text_41">
      <!-- 35 -->
      <g style="fill: #262626" transform="translate(382.8075 53.069444) scale(0.11 -0.11)">
       <use xlink:href="#DejaVuSans-33"/>
       <use xlink:href="#DejaVuSans-35" x="63.623047"/>
      </g>
     </g>
    </g>
    <g id="text_42">
     <!-- Integrated Density of States $(e^-)$ -->
     <g style="fill: #262626" transform="translate(376.2875 270.09) rotate(-90) scale(0.12 -0.12)">
      <defs>
       <path id="DejaVuSans-49" d="M 628 4666 
L 1259 4666 
L 1259 0 
L 628 0 
L 628 4666 
z
" transform="scale(0.015625)"/>
       <path id="DejaVuSans-64" d="M 2906 2969 
L 2906 4863 
L 3481 4863 
L 3481 0 
L 2906 0 
L 2906 525 
Q 2725 213 2448 61 
Q 2172 -91 1784 -91 
Q 1150 -91 751 415 
Q 353 922 353 1747 
Q 353 2572 751 3078 
Q 1150 3584 1784 3584 
Q 2172 3584 2448 3432 
Q 2725 3281 2906 2969 
z
M 947 1747 
Q 947 1113 1208 752 
Q 1469 391 1925 391 
Q 2381 391 2643 752 
Q 2906 1113 2906 1747 
Q 2906 2381 2643 2742 
Q 2381 3103 1925 3103 
Q 1469 3103 1208 2742 
Q 947 2381 947 1747 
z
" transform="scale(0.015625)"/>
      </defs>
      <use xlink:href="#DejaVuSans-49" transform="translate(0 0.015625)"/>
      <use xlink:href="#DejaVuSans-6e" transform="translate(29.492188 0.015625)"/>
      <use xlink:href="#DejaVuSans-74" transform="translate(92.871094 0.015625)"/>
      <use xlink:href="#DejaVuSans-65" transform="translate(132.080078 0.015625)"/>
      <use xlink:href="#DejaVuSans-67" transform="translate(193.603516 0.015625)"/>
      <use xlink:href="#DejaVuSans-72" transform="translate(257.080078 0.015625)"/>
      <use xlink:href="#DejaVuSans-61" transform="translate(298.193359 0.015625)"/>
      <use xlink:href="#DejaVuSans-74" transform="translate(359.472656 0.015625)"/>
      <use xlink:href="#DejaVuSans-65" transform="translate(398.681641 0.015625)"/>
      <use xlink:href="#DejaVuSans-64" transform="translate(460.205078 0.015625)"/>
      <use xlink:href="#DejaVuSans-20" transform="translate(523.681641 0.015625)"/>
      <use xlink:href="#DejaVuSans-44" transform="translate(555.46875 0.015625)"/>
      <use xlink:href="#DejaVuSans-65" transform="translate(632.470703 0.015625)"/>
      <use xlink:href="#DejaVuSans-6e" transform="translate(693.994141 0.015625)"/>
      <use xlink:href="#DejaVuSans-73" transform="translate(757.373047 0.015625)"/>
      <use xlink:href="#DejaVuSans-69" transform="translate(809.472656 0.015625)"/>
      <use xlink:href="#DejaVuSans-74" transform="translate(837.255859 0.015625)"/>
      <use xlink:href="#DejaVuSans-79" transform="translate(876.464844 0.015625)"/>
      <use xlink:href="#DejaVuSans-20" transform="translate(935.644531 0.015625)"/>
      <use xlink:href="#DejaVuSans-6f" transform="translate(967.431641 0.015625)"/>
      <use xlink:href="#DejaVuSans-66" transform="translate(1028.613281 0.015625)"/>
      <use xlink:href="#DejaVuSans-20" transform="translate(1063.818359 0.015625)"/>
      <use xlink:href="#DejaVuSans-53" transform="translate(1095.605469 0.015625)"/>
      <use xlink:href="#DejaVuSans-74" transform="translate(1159.082031 0.015625)"/>
      <use xlink:href="#DejaVuSans-61" transform="translate(1198.291016 0.015625)"/>
      <use xlink:href="#DejaVuSans-74" transform="translate(1259.570312 0.015625)"/>
      <use xlink:href="#DejaVuSans-65" transform="translate(1298.779297 0.015625)"/>
      <use xlink:href="#DejaVuSans-73" transform="translate(1360.302734 0.015625)"/>
      <use xlink:href="#DejaVuSans-20" transform="translate(1412.402344 0.015625)"/>
      <use xlink:href="#DejaVuSans-28" transform="translate(1444.189453 0.015625)"/>
      <use xlink:href="#DejaVuSans-Oblique-65" transform="translate(1483.203125 0.015625)"/>
      <use xlink:href="#DejaVuSans-2212" transform="translate(1563.014154 38.296875) scale(0.7)"/>
      <use xlink:href="#DejaVuSans-29" transform="translate(1638.038568 0.015625)"/>
     </g>
    </g>
   </g>
   <g id="line2d_40">
    <path d="M 419.974773 297.019091 
L 481.48875 296.913317 
L 483.402518 296.663841 
L 485.042891 296.240675 
L 486.819961 295.552295 
L 489.28052 294.322285 
L 492.834661 292.285503 
L 496.662198 289.837535 
L 498.439268 288.511818 
L 500.079641 287.030135 
L 501.446618 285.484647 
L 502.813595 283.556332 
L 504.180573 281.188474 
L 505.684248 278.069141 
L 507.187923 274.368477 
L 508.691598 270.043947 
L 510.33197 264.613471 
L 513.202623 254.085721 
L 514.842995 248.591441 
L 515.936577 245.642253 
L 516.893461 243.664312 
L 517.713648 242.430758 
L 518.533834 241.565852 
L 519.35402 241.005789 
L 520.310905 240.622962 
L 521.541184 240.403191 
L 525.505418 240.303939 
L 595.357957 240.204688 
L 597.271725 239.906933 
L 598.228609 239.616268 
L 599.595586 238.942776 
L 600.825866 238.063691 
L 602.056145 236.922298 
L 603.55982 235.227933 
L 605.336891 232.838808 
L 606.977264 230.279536 
L 608.617636 227.344527 
L 610.394707 223.714758 
L 611.761684 220.666318 
L 613.402057 216.696258 
L 613.948848 215.349273 
L 616.409407 209.252394 
L 617.502989 206.771106 
L 618.186477 205.282333 
L 620.373641 200.957803 
L 621.05713 199.752606 
L 622.014014 197.980258 
L 622.560805 196.987742 
L 625.704852 190.252818 
L 627.892016 184.297727 
L 630.899366 175.294197 
L 633.08653 169.906258 
L 634.453507 167.283182 
L 635.547089 165.439939 
L 636.230577 164.234742 
L 637.187461 162.604182 
L 639.64802 157.287136 
L 641.288393 152.749924 
L 645.526023 139.918121 
L 647.713186 134.530182 
L 650.310443 129.354924 
L 650.993932 128.149727 
L 651.814118 126.660955 
L 652.360909 125.668439 
L 654.68477 120.63497 
L 655.91505 117.161167 
L 659.059098 105.392773 
L 660.69947 99.012318 
L 662.749936 91.922924 
L 664.800402 85.896939 
L 667.807752 78.382182 
L 670.9518 71.647258 
L 671.771986 69.804015 
L 672.865568 67.322727 
L 679.016966 51.655167 
L 680.657339 48.464939 
L 682.297711 46.054545 
L 684.75827 43.644152 
L 687.355527 42.368061 
L 687.76562 42.297167 
L 688.175714 42.155379 
L 688.859202 42.084485 
L 689.132598 42.013591 
L 690.089482 41.942697 
L 690.362877 41.871803 
L 693.370227 41.800909 
L 693.370227 41.800909 
" clip-path="url(#pf69d14e93d)" style="fill: none; stroke: #4c72b0; stroke-width: 1.5; stroke-linecap: round"/>
   </g>
   <g id="line2d_41">
    <path d="M 689.036909 309.78 
L 689.036909 29.04 
" clip-path="url(#pf69d14e93d)" style="fill: none; stroke-dasharray: 5.55,2.4; stroke-dashoffset: 0; stroke: #ff0000; stroke-width: 1.5"/>
   </g>
   <g id="patch_9">
    <path d="M 406.305 309.78 
L 406.305 29.04 
" style="fill: none; stroke: #cccccc; stroke-width: 1.25; stroke-linejoin: miter; stroke-linecap: square"/>
   </g>
   <g id="patch_10">
    <path d="M 707.04 309.78 
L 707.04 29.04 
" style="fill: none; stroke: #cccccc; stroke-width: 1.25; stroke-linejoin: miter; stroke-linecap: square"/>
   </g>
   <g id="patch_11">
    <path d="M 406.305 309.78 
L 707.04 309.78 
" style="fill: none; stroke: #cccccc; stroke-width: 1.25; stroke-linejoin: miter; stroke-linecap: square"/>
   </g>
   <g id="patch_12">
    <path d="M 406.305 29.04 
L 707.04 29.04 
" style="fill: none; stroke: #cccccc; stroke-width: 1.25; stroke-linejoin: miter; stroke-linecap: square"/>
   </g>
   <g id="text_43">
    <!-- Integrated Density of States -->
    <g style="fill: #262626" transform="translate(471.928125 23.04) scale(0.12 -0.12)">
     <use xlink:href="#DejaVuSans-49"/>
     <use xlink:href="#DejaVuSans-6e" x="29.492188"/>
     <use xlink:href="#DejaVuSans-74" x="92.871094"/>
     <use xlink:href="#DejaVuSans-65" x="132.080078"/>
     <use xlink:href="#DejaVuSans-67" x="193.603516"/>
     <use xlink:href="#DejaVuSans-72" x="257.080078"/>
     <use xlink:href="#DejaVuSans-61" x="298.193359"/>
     <use xlink:href="#DejaVuSans-74" x="359.472656"/>
     <use xlink:href="#DejaVuSans-65" x="398.681641"/>
     <use xlink:href="#DejaVuSans-64" x="460.205078"/>
     <use xlink:href="#DejaVuSans-20" x="523.681641"/>
     <use xlink:href="#DejaVuSans-44" x="555.46875"/>
     <use xlink:href="#DejaVuSans-65" x="632.470703"/>
     <use xlink:href="#DejaVuSans-6e" x="693.994141"/>
     <use xlink:href="#DejaVuSans-73" x="757.373047"/>
     <use xlink:href="#DejaVuSans-69" x="809.472656"/>
     <use xlink:href="#DejaVuSans-74" x="837.255859"/>
     <use xlink:href="#DejaVuSans-79" x="876.464844"/>
     <use xlink:href="#DejaVuSans-20" x="935.644531"/>
     <use xlink:href="#DejaVuSans-6f" x="967.431641"/>
     <use xlink:href="#DejaVuSans-66" x="1028.613281"/>
     <use xlink:href="#DejaVuSans-20" x="1063.818359"/>
     <use xlink:href="#DejaVuSans-53" x="1095.605469"/>
     <use xlink:href="#DejaVuSans-74" x="1159.082031"/>
     <use xlink:href="#DejaVuSans-61" x="1198.291016"/>
     <use xlink:href="#DejaVuSans-74" x="1259.570312"/>
     <use xlink:href="#DejaVuSans-65" x="1298.779297"/>
     <use xlink:href="#DejaVuSans-73" x="1360.302734"/>
    </g>
   </g>
   <g id="legend_2">
    <g id="patch_13">
     <path d="M 414.005 70.131875 
L 604.569687 70.131875 
Q 606.769688 70.131875 606.769688 67.931875 
L 606.769688 36.74 
Q 606.769688 34.54 604.569687 34.54 
L 414.005 34.54 
Q 411.805 34.54 411.805 36.74 
L 411.805 67.931875 
Q 411.805 70.131875 414.005 70.131875 
z
" style="fill: #ffffff; opacity: 0.8; stroke: #cccccc; stroke-linejoin: miter"/>
    </g>
    <g id="line2d_42">
     <path d="M 416.205 43.448281 
L 427.205 43.448281 
L 438.205 43.448281 
" style="fill: none; stroke: #4c72b0; stroke-width: 1.5; stroke-linecap: round"/>
    </g>
    <g id="text_44">
     <!-- Integrated Density of States -->
     <g style="fill: #262626" transform="translate(447.005 47.298281) scale(0.11 -0.11)">
      <use xlink:href="#DejaVuSans-49"/>
      <use xlink:href="#DejaVuSans-6e" x="29.492188"/>
      <use xlink:href="#DejaVuSans-74" x="92.871094"/>
      <use xlink:href="#DejaVuSans-65" x="132.080078"/>
      <use xlink:href="#DejaVuSans-67" x="193.603516"/>
      <use xlink:href="#DejaVuSans-72" x="257.080078"/>
      <use xlink:href="#DejaVuSans-61" x="298.193359"/>
      <use xlink:href="#DejaVuSans-74" x="359.472656"/>
      <use xlink:href="#DejaVuSans-65" x="398.681641"/>
      <use xlink:href="#DejaVuSans-64" x="460.205078"/>
      <use xlink:href="#DejaVuSans-20" x="523.681641"/>
      <use xlink:href="#DejaVuSans-44" x="555.46875"/>
      <use xlink:href="#DejaVuSans-65" x="632.470703"/>
      <use xlink:href="#DejaVuSans-6e" x="693.994141"/>
      <use xlink:href="#DejaVuSans-73" x="757.373047"/>
      <use xlink:href="#DejaVuSans-69" x="809.472656"/>
      <use xlink:href="#DejaVuSans-74" x="837.255859"/>
      <use xlink:href="#DejaVuSans-79" x="876.464844"/>
      <use xlink:href="#DejaVuSans-20" x="935.644531"/>
      <use xlink:href="#DejaVuSans-6f" x="967.431641"/>
      <use xlink:href="#DejaVuSans-66" x="1028.613281"/>
      <use xlink:href="#DejaVuSans-20" x="1063.818359"/>
      <use xlink:href="#DejaVuSans-53" x="1095.605469"/>
      <use xlink:href="#DejaVuSans-74" x="1159.082031"/>
      <use xlink:href="#DejaVuSans-61" x="1198.291016"/>
      <use xlink:href="#DejaVuSans-74" x="1259.570312"/>
      <use xlink:href="#DejaVuSans-65" x="1298.779297"/>
      <use xlink:href="#DejaVuSans-73" x="1360.302734"/>
     </g>
    </g>
    <g id="line2d_43">
     <path d="M 416.205 59.594219 
L 427.205 59.594219 
L 438.205 59.594219 
" style="fill: none; stroke-dasharray: 5.55,2.4; stroke-dashoffset: 0; stroke: #ff0000; stroke-width: 1.5"/>
    </g>
    <g id="text_45">
     <!-- $E_f$ = 9.683 eV -->
     <g style="fill: #262626" transform="translate(447.005 63.444219) scale(0.11 -0.11)">
      <use xlink:href="#DejaVuSans-Oblique-45" transform="translate(0 0.78125)"/>
      <use xlink:href="#DejaVuSans-Oblique-66" transform="translate(63.183594 -15.625) scale(0.7)"/>
      <use xlink:href="#DejaVuSans-20" transform="translate(90.561523 0.78125)"/>
      <use xlink:href="#DejaVuSans-3d" transform="translate(122.348633 0.78125)"/>
      <use xlink:href="#DejaVuSans-20" transform="translate(206.137695 0.78125)"/>
      <use xlink:href="#DejaVuSans-39" transform="translate(237.924805 0.78125)"/>
      <use xlink:href="#DejaVuSans-2e" transform="translate(301.547852 0.78125)"/>
      <use xlink:href="#DejaVuSans-36" transform="translate(333.334961 0.78125)"/>
      <use xlink:href="#DejaVuSans-38" transform="translate(396.958008 0.78125)"/>
      <use xlink:href="#DejaVuSans-33" transform="translate(460.581055 0.78125)"/>
      <use xlink:href="#DejaVuSans-20" transform="translate(524.204102 0.78125)"/>
      <use xlink:href="#DejaVuSans-65" transform="translate(555.991211 0.78125)"/>
      <use xlink:href="#DejaVuSans-56" transform="translate(617.514648 0.78125)"/>
     </g>
    </g>
   </g>
  </g>
 </g>
 <defs>
  <clipPath id="peb868d1dc4">
   <rect x="49.32" y="29.04" width="300.735" height="280.74"/>
  </clipPath>
  <clipPath id="pf69d14e93d">
   <rect x="406.305" y="29.04" width="300.735" height="280.74"/>
  </clipPath>
 </defs>
</svg>
