<?xml version="1.0" encoding="utf-8" standalone="no"?>
<!DOCTYPE svg PUBLIC "-//W3C//DTD SVG 1.1//EN"
  "http://www.w3.org/Graphics/SVG/1.1/DTD/svg11.dtd">
<svg xmlns:xlink="http://www.w3.org/1999/xlink" width="864pt" height="576pt" viewBox="0 0 864 576" xmlns="http://www.w3.org/2000/svg" version="1.1">
 <metadata>
  <rdf:RDF xmlns:dc="http://purl.org/dc/elements/1.1/" xmlns:cc="http://creativecommons.org/ns#" xmlns:rdf="http://www.w3.org/1999/02/22-rdf-syntax-ns#">
   <cc:Work>
    <dc:type rdf:resource="http://purl.org/dc/dcmitype/StillImage"/>
    <dc:date>2023-11-29T11:31:12.693919</dc:date>
    <dc:format>image/svg+xml</dc:format>
    <dc:creator>
     <cc:Agent>
      <dc:title>Matplotlib v3.8.1, https://matplotlib.org/</dc:title>
     </cc:Agent>
    </dc:creator>
   </cc:Work>
  </rdf:RDF>
 </metadata>
 <defs>
  <style type="text/css">*{stroke-linejoin: round; stroke-linecap: butt}</style>
 </defs>
 <g id="figure_1">
  <g id="patch_1">
   <path d="M 0 576 
L 864 576 
L 864 0 
L 0 0 
z
" style="fill: #ffffff"/>
  </g>
  <g id="axes_1">
   <g id="patch_2">
    <path d="M 108 512.64 
L 777.6 512.64 
L 777.6 69.12 
L 108 69.12 
z
" style="fill: #ffffff"/>
   </g>
   <g id="matplotlib.axis_1">
    <g id="xtick_1">
     <g id="line2d_1">
      <path d="M 138.436308 512.64 
L 138.436308 69.12 
" clip-path="url(#p602b6954ac)" style="fill: none; stroke: #b0b0b0; stroke-width: 0.8; stroke-linecap: square"/>
     </g>
     <g id="line2d_2">
      <defs>
       <path id="me6b8dde780" d="M 0 0 
L 0 3.5 
" style="stroke: #000000; stroke-width: 0.8"/>
      </defs>
      <g>
       <use xlink:href="#me6b8dde780" x="138.436308" y="512.64" style="stroke: #000000; stroke-width: 0.8"/>
      </g>
     </g>
     <g id="text_1">
      <!-- 0 -->
      <g transform="translate(135.255058 527.238438) scale(0.1 -0.1)">
       <defs>
        <path id="DejaVuSans-30" d="M 2034 4250 
Q 1547 4250 1301 3770 
Q 1056 3291 1056 2328 
Q 1056 1369 1301 889 
Q 1547 409 2034 409 
Q 2525 409 2770 889 
Q 3016 1369 3016 2328 
Q 3016 3291 2770 3770 
Q 2525 4250 2034 4250 
z
M 2034 4750 
Q 2819 4750 3233 4129 
Q 3647 3509 3647 2328 
Q 3647 1150 3233 529 
Q 2819 -91 2034 -91 
Q 1250 -91 836 529 
Q 422 1150 422 2328 
Q 422 3509 836 4129 
Q 1250 4750 2034 4750 
z
" transform="scale(0.015625)"/>
       </defs>
       <use xlink:href="#DejaVuSans-30"/>
      </g>
     </g>
    </g>
    <g id="xtick_2">
     <g id="line2d_3">
      <path d="M 249.114004 512.64 
L 249.114004 69.12 
" clip-path="url(#p602b6954ac)" style="fill: none; stroke: #b0b0b0; stroke-width: 0.8; stroke-linecap: square"/>
     </g>
     <g id="line2d_4">
      <g>
       <use xlink:href="#me6b8dde780" x="249.114004" y="512.64" style="stroke: #000000; stroke-width: 0.8"/>
      </g>
     </g>
     <g id="text_2">
      <!-- 10 -->
      <g transform="translate(242.751504 527.238438) scale(0.1 -0.1)">
       <defs>
        <path id="DejaVuSans-31" d="M 794 531 
L 1825 531 
L 1825 4091 
L 703 3866 
L 703 4441 
L 1819 4666 
L 2450 4666 
L 2450 531 
L 3481 531 
L 3481 0 
L 794 0 
L 794 531 
z
" transform="scale(0.015625)"/>
       </defs>
       <use xlink:href="#DejaVuSans-31"/>
       <use xlink:href="#DejaVuSans-30" x="63.623047"/>
      </g>
     </g>
    </g>
    <g id="xtick_3">
     <g id="line2d_5">
      <path d="M 359.7917 512.64 
L 359.7917 69.12 
" clip-path="url(#p602b6954ac)" style="fill: none; stroke: #b0b0b0; stroke-width: 0.8; stroke-linecap: square"/>
     </g>
     <g id="line2d_6">
      <g>
       <use xlink:href="#me6b8dde780" x="359.7917" y="512.64" style="stroke: #000000; stroke-width: 0.8"/>
      </g>
     </g>
     <g id="text_3">
      <!-- 20 -->
      <g transform="translate(353.4292 527.238438) scale(0.1 -0.1)">
       <defs>
        <path id="DejaVuSans-32" d="M 1228 531 
L 3431 531 
L 3431 0 
L 469 0 
L 469 531 
Q 828 903 1448 1529 
Q 2069 2156 2228 2338 
Q 2531 2678 2651 2914 
Q 2772 3150 2772 3378 
Q 2772 3750 2511 3984 
Q 2250 4219 1831 4219 
Q 1534 4219 1204 4116 
Q 875 4013 500 3803 
L 500 4441 
Q 881 4594 1212 4672 
Q 1544 4750 1819 4750 
Q 2544 4750 2975 4387 
Q 3406 4025 3406 3419 
Q 3406 3131 3298 2873 
Q 3191 2616 2906 2266 
Q 2828 2175 2409 1742 
Q 1991 1309 1228 531 
z
" transform="scale(0.015625)"/>
       </defs>
       <use xlink:href="#DejaVuSans-32"/>
       <use xlink:href="#DejaVuSans-30" x="63.623047"/>
      </g>
     </g>
    </g>
    <g id="xtick_4">
     <g id="line2d_7">
      <path d="M 470.469396 512.64 
L 470.469396 69.12 
" clip-path="url(#p602b6954ac)" style="fill: none; stroke: #b0b0b0; stroke-width: 0.8; stroke-linecap: square"/>
     </g>
     <g id="line2d_8">
      <g>
       <use xlink:href="#me6b8dde780" x="470.469396" y="512.64" style="stroke: #000000; stroke-width: 0.8"/>
      </g>
     </g>
     <g id="text_4">
      <!-- 30 -->
      <g transform="translate(464.106896 527.238438) scale(0.1 -0.1)">
       <defs>
        <path id="DejaVuSans-33" d="M 2597 2516 
Q 3050 2419 3304 2112 
Q 3559 1806 3559 1356 
Q 3559 666 3084 287 
Q 2609 -91 1734 -91 
Q 1441 -91 1130 -33 
Q 819 25 488 141 
L 488 750 
Q 750 597 1062 519 
Q 1375 441 1716 441 
Q 2309 441 2620 675 
Q 2931 909 2931 1356 
Q 2931 1769 2642 2001 
Q 2353 2234 1838 2234 
L 1294 2234 
L 1294 2753 
L 1863 2753 
Q 2328 2753 2575 2939 
Q 2822 3125 2822 3475 
Q 2822 3834 2567 4026 
Q 2313 4219 1838 4219 
Q 1578 4219 1281 4162 
Q 984 4106 628 3988 
L 628 4550 
Q 988 4650 1302 4700 
Q 1616 4750 1894 4750 
Q 2613 4750 3031 4423 
Q 3450 4097 3450 3541 
Q 3450 3153 3228 2886 
Q 3006 2619 2597 2516 
z
" transform="scale(0.015625)"/>
       </defs>
       <use xlink:href="#DejaVuSans-33"/>
       <use xlink:href="#DejaVuSans-30" x="63.623047"/>
      </g>
     </g>
    </g>
    <g id="xtick_5">
     <g id="line2d_9">
      <path d="M 581.147092 512.64 
L 581.147092 69.12 
" clip-path="url(#p602b6954ac)" style="fill: none; stroke: #b0b0b0; stroke-width: 0.8; stroke-linecap: square"/>
     </g>
     <g id="line2d_10">
      <g>
       <use xlink:href="#me6b8dde780" x="581.147092" y="512.64" style="stroke: #000000; stroke-width: 0.8"/>
      </g>
     </g>
     <g id="text_5">
      <!-- 40 -->
      <g transform="translate(574.784592 527.238438) scale(0.1 -0.1)">
       <defs>
        <path id="DejaVuSans-34" d="M 2419 4116 
L 825 1625 
L 2419 1625 
L 2419 4116 
z
M 2253 4666 
L 3047 4666 
L 3047 1625 
L 3713 1625 
L 3713 1100 
L 3047 1100 
L 3047 0 
L 2419 0 
L 2419 1100 
L 313 1100 
L 313 1709 
L 2253 4666 
z
" transform="scale(0.015625)"/>
       </defs>
       <use xlink:href="#DejaVuSans-34"/>
       <use xlink:href="#DejaVuSans-30" x="63.623047"/>
      </g>
     </g>
    </g>
    <g id="xtick_6">
     <g id="line2d_11">
      <path d="M 691.824788 512.64 
L 691.824788 69.12 
" clip-path="url(#p602b6954ac)" style="fill: none; stroke: #b0b0b0; stroke-width: 0.8; stroke-linecap: square"/>
     </g>
     <g id="line2d_12">
      <g>
       <use xlink:href="#me6b8dde780" x="691.824788" y="512.64" style="stroke: #000000; stroke-width: 0.8"/>
      </g>
     </g>
     <g id="text_6">
      <!-- 50 -->
      <g transform="translate(685.462288 527.238438) scale(0.1 -0.1)">
       <defs>
        <path id="DejaVuSans-35" d="M 691 4666 
L 3169 4666 
L 3169 4134 
L 1269 4134 
L 1269 2991 
Q 1406 3038 1543 3061 
Q 1681 3084 1819 3084 
Q 2600 3084 3056 2656 
Q 3513 2228 3513 1497 
Q 3513 744 3044 326 
Q 2575 -91 1722 -91 
Q 1428 -91 1123 -41 
Q 819 9 494 109 
L 494 744 
Q 775 591 1075 516 
Q 1375 441 1709 441 
Q 2250 441 2565 725 
Q 2881 1009 2881 1497 
Q 2881 1984 2565 2268 
Q 2250 2553 1709 2553 
Q 1456 2553 1204 2497 
Q 953 2441 691 2322 
L 691 4666 
z
" transform="scale(0.015625)"/>
       </defs>
       <use xlink:href="#DejaVuSans-35"/>
       <use xlink:href="#DejaVuSans-30" x="63.623047"/>
      </g>
     </g>
    </g>
    <g id="text_7">
     <!-- $x/a_0$ -->
     <g transform="translate(432.7 540.916563) scale(0.1 -0.1)">
      <defs>
       <path id="DejaVuSans-Oblique-78" d="M 3841 3500 
L 2234 1784 
L 3219 0 
L 2559 0 
L 1819 1388 
L 531 0 
L -166 0 
L 1556 1844 
L 641 3500 
L 1300 3500 
L 1972 2234 
L 3144 3500 
L 3841 3500 
z
" transform="scale(0.015625)"/>
       <path id="DejaVuSans-2f" d="M 1625 4666 
L 2156 4666 
L 531 -594 
L 0 -594 
L 1625 4666 
z
" transform="scale(0.015625)"/>
       <path id="DejaVuSans-Oblique-61" d="M 3438 1997 
L 3047 0 
L 2472 0 
L 2578 531 
Q 2325 219 2001 64 
Q 1678 -91 1281 -91 
Q 834 -91 548 182 
Q 263 456 263 884 
Q 263 1497 752 1853 
Q 1241 2209 2100 2209 
L 2900 2209 
L 2931 2363 
Q 2938 2388 2941 2417 
Q 2944 2447 2944 2509 
Q 2944 2788 2717 2942 
Q 2491 3097 2081 3097 
Q 1800 3097 1504 3025 
Q 1209 2953 897 2809 
L 997 3341 
Q 1322 3463 1633 3523 
Q 1944 3584 2234 3584 
Q 2853 3584 3176 3315 
Q 3500 3047 3500 2534 
Q 3500 2431 3484 2292 
Q 3469 2153 3438 1997 
z
M 2816 1759 
L 2241 1759 
Q 1534 1759 1195 1570 
Q 856 1381 856 984 
Q 856 709 1029 553 
Q 1203 397 1509 397 
Q 1978 397 2328 733 
Q 2678 1069 2791 1631 
L 2816 1759 
z
" transform="scale(0.015625)"/>
      </defs>
      <use xlink:href="#DejaVuSans-Oblique-78" transform="translate(0 0.09375)"/>
      <use xlink:href="#DejaVuSans-2f" transform="translate(59.179688 0.09375)"/>
      <use xlink:href="#DejaVuSans-Oblique-61" transform="translate(92.871094 0.09375)"/>
      <use xlink:href="#DejaVuSans-30" transform="translate(154.150391 -16.3125) scale(0.7)"/>
     </g>
    </g>
   </g>
   <g id="matplotlib.axis_2">
    <g id="ytick_1">
     <g id="line2d_13">
      <path d="M 108 492.48 
L 777.6 492.48 
" clip-path="url(#p602b6954ac)" style="fill: none; stroke: #b0b0b0; stroke-width: 0.8; stroke-linecap: square"/>
     </g>
     <g id="line2d_14">
      <defs>
       <path id="mf44ffeff2e" d="M 0 0 
L -3.5 0 
" style="stroke: #000000; stroke-width: 0.8"/>
      </defs>
      <g>
       <use xlink:href="#mf44ffeff2e" x="108" y="492.48" style="stroke: #000000; stroke-width: 0.8"/>
      </g>
     </g>
     <g id="text_8">
      <!-- 0.0 -->
      <g transform="translate(85.096875 496.279219) scale(0.1 -0.1)">
       <defs>
        <path id="DejaVuSans-2e" d="M 684 794 
L 1344 794 
L 1344 0 
L 684 0 
L 684 794 
z
" transform="scale(0.015625)"/>
       </defs>
       <use xlink:href="#DejaVuSans-30"/>
       <use xlink:href="#DejaVuSans-2e" x="63.623047"/>
       <use xlink:href="#DejaVuSans-30" x="95.410156"/>
      </g>
     </g>
    </g>
    <g id="ytick_2">
     <g id="line2d_15">
      <path d="M 108 435.850946 
L 777.6 435.850946 
" clip-path="url(#p602b6954ac)" style="fill: none; stroke: #b0b0b0; stroke-width: 0.8; stroke-linecap: square"/>
     </g>
     <g id="line2d_16">
      <g>
       <use xlink:href="#mf44ffeff2e" x="108" y="435.850946" style="stroke: #000000; stroke-width: 0.8"/>
      </g>
     </g>
     <g id="text_9">
      <!-- 0.1 -->
      <g transform="translate(85.096875 439.650164) scale(0.1 -0.1)">
       <use xlink:href="#DejaVuSans-30"/>
       <use xlink:href="#DejaVuSans-2e" x="63.623047"/>
       <use xlink:href="#DejaVuSans-31" x="95.410156"/>
      </g>
     </g>
    </g>
    <g id="ytick_3">
     <g id="line2d_17">
      <path d="M 108 379.221891 
L 777.6 379.221891 
" clip-path="url(#p602b6954ac)" style="fill: none; stroke: #b0b0b0; stroke-width: 0.8; stroke-linecap: square"/>
     </g>
     <g id="line2d_18">
      <g>
       <use xlink:href="#mf44ffeff2e" x="108" y="379.221891" style="stroke: #000000; stroke-width: 0.8"/>
      </g>
     </g>
     <g id="text_10">
      <!-- 0.2 -->
      <g transform="translate(85.096875 383.02111) scale(0.1 -0.1)">
       <use xlink:href="#DejaVuSans-30"/>
       <use xlink:href="#DejaVuSans-2e" x="63.623047"/>
       <use xlink:href="#DejaVuSans-32" x="95.410156"/>
      </g>
     </g>
    </g>
    <g id="ytick_4">
     <g id="line2d_19">
      <path d="M 108 322.592837 
L 777.6 322.592837 
" clip-path="url(#p602b6954ac)" style="fill: none; stroke: #b0b0b0; stroke-width: 0.8; stroke-linecap: square"/>
     </g>
     <g id="line2d_20">
      <g>
       <use xlink:href="#mf44ffeff2e" x="108" y="322.592837" style="stroke: #000000; stroke-width: 0.8"/>
      </g>
     </g>
     <g id="text_11">
      <!-- 0.3 -->
      <g transform="translate(85.096875 326.392056) scale(0.1 -0.1)">
       <use xlink:href="#DejaVuSans-30"/>
       <use xlink:href="#DejaVuSans-2e" x="63.623047"/>
       <use xlink:href="#DejaVuSans-33" x="95.410156"/>
      </g>
     </g>
    </g>
    <g id="ytick_5">
     <g id="line2d_21">
      <path d="M 108 265.963782 
L 777.6 265.963782 
" clip-path="url(#p602b6954ac)" style="fill: none; stroke: #b0b0b0; stroke-width: 0.8; stroke-linecap: square"/>
     </g>
     <g id="line2d_22">
      <g>
       <use xlink:href="#mf44ffeff2e" x="108" y="265.963782" style="stroke: #000000; stroke-width: 0.8"/>
      </g>
     </g>
     <g id="text_12">
      <!-- 0.4 -->
      <g transform="translate(85.096875 269.763001) scale(0.1 -0.1)">
       <use xlink:href="#DejaVuSans-30"/>
       <use xlink:href="#DejaVuSans-2e" x="63.623047"/>
       <use xlink:href="#DejaVuSans-34" x="95.410156"/>
      </g>
     </g>
    </g>
    <g id="ytick_6">
     <g id="line2d_23">
      <path d="M 108 209.334728 
L 777.6 209.334728 
" clip-path="url(#p602b6954ac)" style="fill: none; stroke: #b0b0b0; stroke-width: 0.8; stroke-linecap: square"/>
     </g>
     <g id="line2d_24">
      <g>
       <use xlink:href="#mf44ffeff2e" x="108" y="209.334728" style="stroke: #000000; stroke-width: 0.8"/>
      </g>
     </g>
     <g id="text_13">
      <!-- 0.5 -->
      <g transform="translate(85.096875 213.133947) scale(0.1 -0.1)">
       <use xlink:href="#DejaVuSans-30"/>
       <use xlink:href="#DejaVuSans-2e" x="63.623047"/>
       <use xlink:href="#DejaVuSans-35" x="95.410156"/>
      </g>
     </g>
    </g>
    <g id="ytick_7">
     <g id="line2d_25">
      <path d="M 108 152.705674 
L 777.6 152.705674 
" clip-path="url(#p602b6954ac)" style="fill: none; stroke: #b0b0b0; stroke-width: 0.8; stroke-linecap: square"/>
     </g>
     <g id="line2d_26">
      <g>
       <use xlink:href="#mf44ffeff2e" x="108" y="152.705674" style="stroke: #000000; stroke-width: 0.8"/>
      </g>
     </g>
     <g id="text_14">
      <!-- 0.6 -->
      <g transform="translate(85.096875 156.504892) scale(0.1 -0.1)">
       <defs>
        <path id="DejaVuSans-36" d="M 2113 2584 
Q 1688 2584 1439 2293 
Q 1191 2003 1191 1497 
Q 1191 994 1439 701 
Q 1688 409 2113 409 
Q 2538 409 2786 701 
Q 3034 994 3034 1497 
Q 3034 2003 2786 2293 
Q 2538 2584 2113 2584 
z
M 3366 4563 
L 3366 3988 
Q 3128 4100 2886 4159 
Q 2644 4219 2406 4219 
Q 1781 4219 1451 3797 
Q 1122 3375 1075 2522 
Q 1259 2794 1537 2939 
Q 1816 3084 2150 3084 
Q 2853 3084 3261 2657 
Q 3669 2231 3669 1497 
Q 3669 778 3244 343 
Q 2819 -91 2113 -91 
Q 1303 -91 875 529 
Q 447 1150 447 2328 
Q 447 3434 972 4092 
Q 1497 4750 2381 4750 
Q 2619 4750 2861 4703 
Q 3103 4656 3366 4563 
z
" transform="scale(0.015625)"/>
       </defs>
       <use xlink:href="#DejaVuSans-30"/>
       <use xlink:href="#DejaVuSans-2e" x="63.623047"/>
       <use xlink:href="#DejaVuSans-36" x="95.410156"/>
      </g>
     </g>
    </g>
    <g id="ytick_8">
     <g id="line2d_27">
      <path d="M 108 96.076619 
L 777.6 96.076619 
" clip-path="url(#p602b6954ac)" style="fill: none; stroke: #b0b0b0; stroke-width: 0.8; stroke-linecap: square"/>
     </g>
     <g id="line2d_28">
      <g>
       <use xlink:href="#mf44ffeff2e" x="108" y="96.076619" style="stroke: #000000; stroke-width: 0.8"/>
      </g>
     </g>
     <g id="text_15">
      <!-- 0.7 -->
      <g transform="translate(85.096875 99.875838) scale(0.1 -0.1)">
       <defs>
        <path id="DejaVuSans-37" d="M 525 4666 
L 3525 4666 
L 3525 4397 
L 1831 0 
L 1172 0 
L 2766 4134 
L 525 4134 
L 525 4666 
z
" transform="scale(0.015625)"/>
       </defs>
       <use xlink:href="#DejaVuSans-30"/>
       <use xlink:href="#DejaVuSans-2e" x="63.623047"/>
       <use xlink:href="#DejaVuSans-37" x="95.410156"/>
      </g>
     </g>
    </g>
    <g id="text_16">
     <!-- |Ψ(x)|² -->
     <g transform="translate(78.739062 307.050313) rotate(-90) scale(0.1 -0.1)">
      <defs>
       <path id="DejaVuSans-7c" d="M 1344 4891 
L 1344 -1509 
L 813 -1509 
L 813 4891 
L 1344 4891 
z
" transform="scale(0.015625)"/>
       <path id="DejaVuSans-3a8" d="M 2206 0 
Q 2209 419 2206 969 
Q 1538 969 950 1625 
Q 375 2263 359 3388 
L 359 4666 
L 1025 4666 
L 1025 3388 
Q 1025 2506 1431 1994 
Q 1775 1556 2206 1513 
L 2206 4666 
L 2838 4666 
L 2838 1513 
Q 3269 1556 3613 1994 
Q 4019 2506 4019 3388 
L 4019 4666 
L 4684 4666 
L 4684 3388 
Q 4669 2263 4094 1625 
Q 3506 969 2838 969 
Q 2834 744 2838 0 
L 2206 0 
z
" transform="scale(0.015625)"/>
       <path id="DejaVuSans-28" d="M 1984 4856 
Q 1566 4138 1362 3434 
Q 1159 2731 1159 2009 
Q 1159 1288 1364 580 
Q 1569 -128 1984 -844 
L 1484 -844 
Q 1016 -109 783 600 
Q 550 1309 550 2009 
Q 550 2706 781 3412 
Q 1013 4119 1484 4856 
L 1984 4856 
z
" transform="scale(0.015625)"/>
       <path id="DejaVuSans-78" d="M 3513 3500 
L 2247 1797 
L 3578 0 
L 2900 0 
L 1881 1375 
L 863 0 
L 184 0 
L 1544 1831 
L 300 3500 
L 978 3500 
L 1906 2253 
L 2834 3500 
L 3513 3500 
z
" transform="scale(0.015625)"/>
       <path id="DejaVuSans-29" d="M 513 4856 
L 1013 4856 
Q 1481 4119 1714 3412 
Q 1947 2706 1947 2009 
Q 1947 1309 1714 600 
Q 1481 -109 1013 -844 
L 513 -844 
Q 928 -128 1133 580 
Q 1338 1288 1338 2009 
Q 1338 2731 1133 3434 
Q 928 4138 513 4856 
z
" transform="scale(0.015625)"/>
       <path id="DejaVuSans-b2" d="M 838 2444 
L 2163 2444 
L 2163 2088 
L 294 2088 
L 294 2431 
Q 400 2528 597 2703 
Q 1672 3656 1672 3950 
Q 1672 4156 1509 4282 
Q 1347 4409 1081 4409 
Q 919 4409 728 4354 
Q 538 4300 313 4191 
L 313 4575 
Q 553 4663 761 4706 
Q 969 4750 1147 4750 
Q 1600 4750 1872 4544 
Q 2144 4338 2144 4000 
Q 2144 3566 1109 2678 
Q 934 2528 838 2444 
z
" transform="scale(0.015625)"/>
      </defs>
      <use xlink:href="#DejaVuSans-7c"/>
      <use xlink:href="#DejaVuSans-3a8" x="33.691406"/>
      <use xlink:href="#DejaVuSans-28" x="112.402344"/>
      <use xlink:href="#DejaVuSans-78" x="151.416016"/>
      <use xlink:href="#DejaVuSans-29" x="210.595703"/>
      <use xlink:href="#DejaVuSans-7c" x="249.609375"/>
      <use xlink:href="#DejaVuSans-b2" x="283.300781"/>
     </g>
    </g>
   </g>
   <g id="line2d_29">
    <path d="M 138.436364 492.48 
L 516.99509 492.386842 
L 518.779436 492.189839 
L 519.968889 491.888973 
L 520.861062 491.496339 
L 521.753124 490.87641 
L 522.645297 489.919344 
L 523.537359 488.47485 
L 524.132141 487.14498 
L 524.726923 485.438624 
L 525.618985 481.985826 
L 526.511158 477.160351 
L 527.403331 470.574189 
L 528.295394 461.798288 
L 529.187566 450.387012 
L 530.079629 435.914738 
L 530.971802 418.024006 
L 532.161255 388.476381 
L 533.350819 352.452091 
L 534.837663 299.640062 
L 539.000915 144.548598 
L 539.893088 120.137738 
L 540.78515 102.177833 
L 541.379932 94.331142 
L 541.974714 90.046248 
L 542.271994 89.28 
L 542.569385 89.440373 
L 542.866776 90.526292 
L 543.164167 92.530225 
L 543.758949 99.231027 
L 544.35362 109.360663 
L 545.245793 130.368739 
L 546.137966 157.236847 
L 547.62481 210.915245 
L 551.193281 345.987828 
L 552.382845 383.018473 
L 553.572298 413.643692 
L 554.761862 437.752142 
L 555.653924 451.851417 
L 556.546097 462.936305 
L 557.438159 471.436994 
L 558.330332 477.798833 
L 559.222394 482.447172 
L 560.114567 485.76423 
L 561.00674 488.076698 
L 561.898802 489.652056 
L 562.790975 490.701012 
L 563.683037 491.383812 
L 564.57521 491.818382 
L 565.764663 492.153223 
L 567.548899 492.374135 
L 570.522698 492.466541 
L 584.499298 492.48 
L 747.163636 492.48 
L 747.163636 492.48 
" clip-path="url(#p602b6954ac)" style="fill: none; stroke: #1f77b4; stroke-width: 1.5; stroke-linecap: square"/>
   </g>
   <g id="line2d_30">
    <path d="M 138.436364 492.48 
L 456.033151 492.378485 
L 459.899123 492.147282 
L 462.57542 491.766484 
L 464.657046 491.230809 
L 466.144001 490.649345 
L 467.630845 489.836847 
L 468.820299 488.971816 
L 470.009863 487.867816 
L 471.199316 486.47386 
L 472.38888 484.732738 
L 473.578333 482.581581 
L 474.767897 479.952991 
L 475.95735 476.776605 
L 477.146803 472.981376 
L 478.336367 468.498366 
L 479.52582 463.264193 
L 481.012775 455.584274 
L 482.499619 446.573708 
L 483.986463 436.206174 
L 485.770698 422.027284 
L 487.852325 403.356231 
L 490.528733 376.962165 
L 494.989376 332.567592 
L 496.773611 317.055082 
L 498.260455 306.060777 
L 499.450019 298.856655 
L 500.342081 294.512527 
L 501.234254 291.152216 
L 501.829036 289.48534 
L 502.423707 288.291373 
L 503.018489 287.578753 
L 503.613271 287.352576 
L 503.910662 287.422513 
L 504.505333 287.927927 
L 505.100115 288.917294 
L 505.694897 290.38359 
L 506.58696 293.453621 
L 507.479132 297.52406 
L 508.371305 302.531485 
L 509.560759 310.530961 
L 511.047603 322.351767 
L 512.831838 338.580012 
L 515.508246 365.280781 
L 519.374107 403.766735 
L 521.455733 422.394523 
L 523.239968 436.528761 
L 525.024314 448.759386 
L 526.511158 457.460615 
L 527.998003 464.844404 
L 529.484957 470.993425 
L 530.674411 475.09906 
L 531.863864 478.553443 
L 533.053428 481.427045 
L 534.242881 483.790844 
L 535.432445 485.713859 
L 536.621898 487.261221 
L 537.811462 488.492864 
L 539.298306 489.669973 
L 540.78515 490.528817 
L 542.271994 491.145177 
L 544.05634 491.650064 
L 546.137966 492.016011 
L 549.111655 492.287792 
L 553.572298 492.434165 
L 563.980428 492.47904 
L 747.163636 492.48 
L 747.163636 492.48 
" clip-path="url(#p602b6954ac)" style="fill: none; stroke: #ff7f0e; stroke-width: 1.5; stroke-linecap: square"/>
   </g>
   <g id="line2d_31">
    <path d="M 138.436364 492.48 
L 395.963385 492.370804 
L 401.910872 492.124772 
L 405.776734 491.757729 
L 408.750533 491.270865 
L 411.426941 490.600747 
L 413.508567 489.871069 
L 415.590193 488.905016 
L 417.374428 487.845194 
L 419.158663 486.528502 
L 420.942898 484.910655 
L 422.727133 482.944845 
L 424.511368 480.583079 
L 426.295714 477.77792 
L 428.079949 474.484657 
L 429.864185 470.66381 
L 431.64842 466.284 
L 433.432655 461.324948 
L 435.514281 454.800109 
L 437.595907 447.499429 
L 439.974924 438.281114 
L 442.651332 426.98159 
L 446.814584 408.235051 
L 451.275228 388.364369 
L 453.654245 378.735731 
L 455.43848 372.285851 
L 457.222715 366.681783 
L 458.709559 362.765884 
L 459.899123 360.181108 
L 461.088576 358.118451 
L 461.980749 356.929807 
L 462.872811 356.058003 
L 463.764984 355.509154 
L 464.657046 355.287282 
L 465.549219 355.393857 
L 466.441392 355.828259 
L 467.333454 356.587315 
L 468.225627 357.665532 
L 469.11769 359.055322 
L 470.307254 361.375698 
L 471.496707 364.203356 
L 472.983551 368.39787 
L 474.470506 373.251433 
L 476.254741 379.820064 
L 478.633758 389.564678 
L 481.904837 404.095977 
L 488.149716 432.040716 
L 490.826124 442.938236 
L 493.205141 451.708649 
L 495.286767 458.576446 
L 497.368393 464.6528 
L 499.152628 469.229198 
L 500.936863 473.238291 
L 502.721098 476.707999 
L 504.505333 479.675367 
L 506.289679 482.183615 
L 508.073914 484.279507 
L 509.85815 486.011071 
L 511.642385 487.425688 
L 513.42662 488.568628 
L 515.508246 489.614638 
L 517.589872 490.408123 
L 519.968889 491.072351 
L 522.645297 491.587116 
L 525.916376 491.9829 
L 530.079629 492.254842 
L 536.324507 492.417761 
L 549.409046 492.477125 
L 710.586429 492.48 
L 747.163636 492.48 
L 747.163636 492.48 
" clip-path="url(#p602b6954ac)" style="fill: none; stroke: #2ca02c; stroke-width: 1.5; stroke-linecap: square"/>
   </g>
   <g id="line2d_32">
    <path d="M 138.436364 492.48 
L 336.190899 492.37096 
L 344.220123 492.128753 
L 349.572829 491.759069 
L 353.736081 491.260514 
L 357.304551 490.610702 
L 360.27835 489.855225 
L 362.954758 488.962853 
L 365.631056 487.824049 
L 368.010073 486.566318 
L 370.38909 485.040641 
L 372.470716 483.457417 
L 374.552342 481.617454 
L 376.633968 479.498101 
L 378.715594 477.078947 
L 380.79722 474.34288 
L 383.176237 470.811934 
L 385.555254 466.841077 
L 387.934271 462.432584 
L 390.61068 456.970802 
L 393.584368 450.335508 
L 396.855558 442.470656 
L 401.910872 429.619315 
L 407.561079 415.372351 
L 410.534768 408.468533 
L 412.913785 403.470226 
L 414.995411 399.588304 
L 416.779646 396.68884 
L 418.563881 394.231309 
L 420.050836 392.548576 
L 421.53768 391.217794 
L 422.727133 390.416549 
L 423.916697 389.855695 
L 425.10615 389.539365 
L 426.295714 389.469711 
L 427.485168 389.6473 
L 428.674621 390.070829 
L 429.864185 390.73724 
L 431.053638 391.641832 
L 432.540593 393.097425 
L 434.027437 394.898965 
L 435.514281 397.026689 
L 437.298516 399.978138 
L 439.380142 403.913348 
L 441.759159 408.961772 
L 444.435567 415.190741 
L 448.004038 424.085297 
L 457.222715 447.356146 
L 460.493794 454.873976 
L 463.170202 460.518126 
L 465.84661 465.643457 
L 468.225627 469.738355 
L 470.604644 473.392679 
L 472.983551 476.612964 
L 475.065177 479.087693 
L 477.146803 481.259287 
L 479.228429 483.147645 
L 481.607446 484.987653 
L 483.986463 486.522386 
L 486.36548 487.788037 
L 488.744497 488.820139 
L 491.420906 489.744094 
L 494.394594 490.527889 
L 497.665784 491.156517 
L 501.531645 491.663278 
L 506.289679 492.044562 
L 512.534558 492.300074 
L 522.050515 492.438798 
L 544.948402 492.479368 
L 747.163636 492.48 
L 747.163636 492.48 
" clip-path="url(#p602b6954ac)" style="fill: none; stroke: #d62728; stroke-width: 1.5; stroke-linecap: square"/>
   </g>
   <g id="line2d_33">
    <path d="M 138.436364 492.48 
L 276.715915 492.372706 
L 287.124045 492.126497 
L 293.963706 491.754204 
L 299.316411 491.249997 
L 303.777054 490.615858 
L 307.642916 489.853522 
L 311.211386 488.927369 
L 314.482576 487.85074 
L 317.456264 486.65043 
L 320.430063 485.209152 
L 323.106471 483.682331 
L 325.782769 481.917492 
L 328.459177 479.897024 
L 331.135585 477.606379 
L 333.811993 475.035165 
L 336.785681 471.843138 
L 339.75948 468.300691 
L 342.733168 464.4213 
L 346.004358 459.796434 
L 349.87022 453.921209 
L 354.925645 445.77564 
L 364.144211 430.811583 
L 367.712682 425.489697 
L 370.686481 421.460937 
L 373.065498 418.577612 
L 375.444515 416.049181 
L 377.526141 414.162301 
L 379.310376 412.807338 
L 381.094611 411.709074 
L 382.878846 410.878665 
L 384.663081 410.324663 
L 386.150036 410.078327 
L 387.636881 410.029739 
L 389.123725 410.17924 
L 390.61068 410.525696 
L 392.394915 411.19794 
L 394.17915 412.143249 
L 395.963385 413.352052 
L 397.74762 414.811949 
L 399.829246 416.81305 
L 401.910872 419.109132 
L 404.289889 422.055598 
L 406.966297 425.722103 
L 410.237377 430.603244 
L 414.400629 437.240458 
L 426.592995 456.929469 
L 430.458967 462.591989 
L 433.730046 466.998381 
L 436.703845 470.659296 
L 439.677533 473.973093 
L 442.651332 476.933869 
L 445.32774 479.300137 
L 448.004038 481.392943 
L 450.680446 483.225799 
L 453.654245 484.97806 
L 456.627933 486.456736 
L 459.601732 487.690242 
L 462.872811 488.798547 
L 466.441392 489.753717 
L 470.307254 490.541505 
L 474.470506 491.161525 
L 479.52582 491.674985 
L 485.473308 492.045219 
L 493.502532 492.301927 
L 505.694897 492.43985 
L 535.135054 492.479435 
L 747.163636 492.48 
L 747.163636 492.48 
" clip-path="url(#p602b6954ac)" style="fill: none; stroke: #9467bd; stroke-width: 1.5; stroke-linecap: square"/>
   </g>
   <g id="line2d_34">
    <path d="M 138.436364 492.48 
L 222.593581 492.372401 
L 232.704343 492.120702 
L 240.138718 491.723914 
L 246.383608 491.173871 
L 251.736402 490.489692 
L 256.494325 489.67098 
L 260.954968 488.676801 
L 264.82083 487.596415 
L 268.686801 486.279543 
L 272.255272 484.827908 
L 275.823742 483.126868 
L 279.094932 481.331965 
L 282.366011 479.299622 
L 285.637091 477.022261 
L 289.205672 474.255672 
L 292.774142 471.199679 
L 296.640003 467.579995 
L 300.803255 463.360536 
L 305.561289 458.209982 
L 312.698341 450.107848 
L 320.132672 441.744552 
L 324.295924 437.374103 
L 327.864395 433.942999 
L 330.838194 431.371871 
L 333.514602 429.323371 
L 336.190899 427.558527 
L 338.569916 426.250112 
L 340.948933 425.203607 
L 343.030559 424.513243 
L 345.112185 424.04022 
L 347.193812 423.78924 
L 349.275438 423.762681 
L 351.357064 423.960826 
L 353.43869 424.381807 
L 355.520316 425.021375 
L 357.601942 425.873416 
L 359.980959 427.096717 
L 362.359976 428.571394 
L 365.036384 430.508334 
L 368.010073 432.970735 
L 371.281263 436.004031 
L 374.849733 439.626699 
L 379.310376 444.483909 
L 387.636881 453.968998 
L 394.17915 461.25573 
L 398.639793 465.913742 
L 402.803045 469.93996 
L 406.668906 473.355768 
L 410.237377 476.211401 
L 413.805958 478.773164 
L 417.077037 480.864061 
L 420.645507 482.872031 
L 424.214088 484.609003 
L 427.782558 486.093704 
L 431.351029 487.347971 
L 435.21689 488.474101 
L 439.380142 489.450648 
L 443.840785 490.266806 
L 448.896211 490.957287 
L 454.546307 491.500091 
L 461.385967 491.92354 
L 470.009863 492.220766 
L 482.202228 492.400011 
L 505.100115 492.473512 
L 660.627402 492.48 
L 747.163636 492.48 
L 747.163636 492.48 
" clip-path="url(#p602b6954ac)" style="fill: none; stroke: #8c564b; stroke-width: 1.5; stroke-linecap: square"/>
   </g>
   <g id="line2d_35">
    <path d="M 138.436364 492.48 
L 195.23505 492.369916 
L 202.372057 492.120196 
L 207.427438 491.73259 
L 211.59069 491.199068 
L 215.159194 490.533349 
L 218.430329 489.716923 
L 221.701452 488.675696 
L 224.972576 487.391413 
L 228.24371 485.857141 
L 231.514834 484.078961 
L 235.083337 481.88377 
L 239.246601 479.038947 
L 244.301982 475.28589 
L 252.033682 469.219491 
L 262.441923 460.788733 
L 279.094932 447.052241 
L 283.555464 443.743807 
L 287.421436 441.14314 
L 290.989907 439.014856 
L 294.260986 437.330193 
L 297.234785 436.044424 
L 300.208584 435.011646 
L 302.884881 434.310749 
L 305.561289 433.835065 
L 308.237697 433.5902 
L 310.913995 433.579101 
L 313.590403 433.801937 
L 316.266811 434.255988 
L 318.943219 434.935877 
L 321.619516 435.833617 
L 324.593315 437.07381 
L 327.567114 438.552361 
L 330.838194 440.42932 
L 334.406664 442.740742 
L 338.272525 445.505486 
L 343.030559 449.194206 
L 349.572829 454.583944 
L 362.657367 465.432859 
L 368.010073 469.555539 
L 372.768107 472.952099 
L 377.22875 475.86862 
L 381.392002 478.338049 
L 385.555254 480.555711 
L 389.718507 482.521928 
L 393.881759 484.243599 
L 398.045011 485.732869 
L 402.505654 487.088935 
L 407.263688 488.287778 
L 412.319003 489.314778 
L 417.671819 490.16545 
L 423.619306 490.875574 
L 430.458967 491.452567 
L 438.48808 491.890984 
L 448.59882 492.202197 
L 462.57542 492.390473 
L 488.149716 492.471486 
L 631.782028 492.48 
L 747.163636 492.48 
L 747.163636 492.48 
" clip-path="url(#p602b6954ac)" style="fill: none; stroke: #e377c2; stroke-width: 1.5; stroke-linecap: square"/>
   </g>
   <g id="line2d_36">
    <path d="M 138.436364 492.48 
L 184.826909 492.372654 
L 191.071798 492.118215 
L 195.23505 491.737856 
L 198.506174 491.237644 
L 201.479929 490.56641 
L 204.156304 489.737132 
L 206.53531 488.785595 
L 208.914316 487.603978 
L 211.293322 486.170102 
L 213.672317 484.469209 
L 216.051323 482.496281 
L 218.727697 479.960188 
L 221.404072 477.116758 
L 224.675207 473.296325 
L 229.135839 467.694901 
L 236.272846 458.718794 
L 239.54397 454.98041 
L 242.220344 452.225797 
L 244.89673 449.794372 
L 247.275725 447.924713 
L 249.654776 446.33342 
L 252.033682 445.011352 
L 254.412699 443.938039 
L 257.089107 442.989831 
L 260.062906 442.192454 
L 263.333985 441.542839 
L 266.605175 441.119107 
L 269.876255 440.926914 
L 273.147334 440.969057 
L 276.418524 441.244784 
L 279.689603 441.750436 
L 282.960793 442.479201 
L 286.529264 443.517025 
L 290.097734 444.792266 
L 293.963706 446.418726 
L 298.126958 448.422607 
L 302.58749 450.815173 
L 307.940307 453.948227 
L 315.077247 458.414113 
L 332.91982 469.707549 
L 339.164698 473.324237 
L 344.814794 476.331364 
L 349.87022 478.778108 
L 354.925645 480.979811 
L 359.980959 482.932081 
L 365.036384 484.638626 
L 370.091699 486.109769 
L 375.444515 487.427985 
L 381.094611 488.576635 
L 387.042099 489.548112 
L 393.286977 490.343961 
L 400.424028 491.02252 
L 408.453142 491.556154 
L 417.96921 491.960591 
L 430.161576 492.245232 
L 447.706647 492.412984 
L 482.499619 492.476213 
L 747.163636 492.48 
L 747.163636 492.48 
" clip-path="url(#p602b6954ac)" style="fill: none; stroke: #7f7f7f; stroke-width: 1.5; stroke-linecap: square"/>
   </g>
   <g id="patch_3">
    <path d="M 108 512.64 
L 108 69.12 
" style="fill: none; stroke: #000000; stroke-width: 0.8; stroke-linejoin: miter; stroke-linecap: square"/>
   </g>
   <g id="patch_4">
    <path d="M 777.6 512.64 
L 777.6 69.12 
" style="fill: none; stroke: #000000; stroke-width: 0.8; stroke-linejoin: miter; stroke-linecap: square"/>
   </g>
   <g id="patch_5">
    <path d="M 108 512.64 
L 777.6 512.64 
" style="fill: none; stroke: #000000; stroke-width: 0.8; stroke-linejoin: miter; stroke-linecap: square"/>
   </g>
   <g id="patch_6">
    <path d="M 108 69.12 
L 777.6 69.12 
" style="fill: none; stroke: #000000; stroke-width: 0.8; stroke-linejoin: miter; stroke-linecap: square"/>
   </g>
   <g id="text_17">
    <!-- Wavepacket Squared Amplitude -->
    <g transform="translate(346.753125 63.12) scale(0.12 -0.12)">
     <defs>
      <path id="DejaVuSans-57" d="M 213 4666 
L 850 4666 
L 1831 722 
L 2809 4666 
L 3519 4666 
L 4500 722 
L 5478 4666 
L 6119 4666 
L 4947 0 
L 4153 0 
L 3169 4050 
L 2175 0 
L 1381 0 
L 213 4666 
z
" transform="scale(0.015625)"/>
      <path id="DejaVuSans-61" d="M 2194 1759 
Q 1497 1759 1228 1600 
Q 959 1441 959 1056 
Q 959 750 1161 570 
Q 1363 391 1709 391 
Q 2188 391 2477 730 
Q 2766 1069 2766 1631 
L 2766 1759 
L 2194 1759 
z
M 3341 1997 
L 3341 0 
L 2766 0 
L 2766 531 
Q 2569 213 2275 61 
Q 1981 -91 1556 -91 
Q 1019 -91 701 211 
Q 384 513 384 1019 
Q 384 1609 779 1909 
Q 1175 2209 1959 2209 
L 2766 2209 
L 2766 2266 
Q 2766 2663 2505 2880 
Q 2244 3097 1772 3097 
Q 1472 3097 1187 3025 
Q 903 2953 641 2809 
L 641 3341 
Q 956 3463 1253 3523 
Q 1550 3584 1831 3584 
Q 2591 3584 2966 3190 
Q 3341 2797 3341 1997 
z
" transform="scale(0.015625)"/>
      <path id="DejaVuSans-76" d="M 191 3500 
L 800 3500 
L 1894 563 
L 2988 3500 
L 3597 3500 
L 2284 0 
L 1503 0 
L 191 3500 
z
" transform="scale(0.015625)"/>
      <path id="DejaVuSans-65" d="M 3597 1894 
L 3597 1613 
L 953 1613 
Q 991 1019 1311 708 
Q 1631 397 2203 397 
Q 2534 397 2845 478 
Q 3156 559 3463 722 
L 3463 178 
Q 3153 47 2828 -22 
Q 2503 -91 2169 -91 
Q 1331 -91 842 396 
Q 353 884 353 1716 
Q 353 2575 817 3079 
Q 1281 3584 2069 3584 
Q 2775 3584 3186 3129 
Q 3597 2675 3597 1894 
z
M 3022 2063 
Q 3016 2534 2758 2815 
Q 2500 3097 2075 3097 
Q 1594 3097 1305 2825 
Q 1016 2553 972 2059 
L 3022 2063 
z
" transform="scale(0.015625)"/>
      <path id="DejaVuSans-70" d="M 1159 525 
L 1159 -1331 
L 581 -1331 
L 581 3500 
L 1159 3500 
L 1159 2969 
Q 1341 3281 1617 3432 
Q 1894 3584 2278 3584 
Q 2916 3584 3314 3078 
Q 3713 2572 3713 1747 
Q 3713 922 3314 415 
Q 2916 -91 2278 -91 
Q 1894 -91 1617 61 
Q 1341 213 1159 525 
z
M 3116 1747 
Q 3116 2381 2855 2742 
Q 2594 3103 2138 3103 
Q 1681 3103 1420 2742 
Q 1159 2381 1159 1747 
Q 1159 1113 1420 752 
Q 1681 391 2138 391 
Q 2594 391 2855 752 
Q 3116 1113 3116 1747 
z
" transform="scale(0.015625)"/>
      <path id="DejaVuSans-63" d="M 3122 3366 
L 3122 2828 
Q 2878 2963 2633 3030 
Q 2388 3097 2138 3097 
Q 1578 3097 1268 2742 
Q 959 2388 959 1747 
Q 959 1106 1268 751 
Q 1578 397 2138 397 
Q 2388 397 2633 464 
Q 2878 531 3122 666 
L 3122 134 
Q 2881 22 2623 -34 
Q 2366 -91 2075 -91 
Q 1284 -91 818 406 
Q 353 903 353 1747 
Q 353 2603 823 3093 
Q 1294 3584 2113 3584 
Q 2378 3584 2631 3529 
Q 2884 3475 3122 3366 
z
" transform="scale(0.015625)"/>
      <path id="DejaVuSans-6b" d="M 581 4863 
L 1159 4863 
L 1159 1991 
L 2875 3500 
L 3609 3500 
L 1753 1863 
L 3688 0 
L 2938 0 
L 1159 1709 
L 1159 0 
L 581 0 
L 581 4863 
z
" transform="scale(0.015625)"/>
      <path id="DejaVuSans-74" d="M 1172 4494 
L 1172 3500 
L 2356 3500 
L 2356 3053 
L 1172 3053 
L 1172 1153 
Q 1172 725 1289 603 
Q 1406 481 1766 481 
L 2356 481 
L 2356 0 
L 1766 0 
Q 1100 0 847 248 
Q 594 497 594 1153 
L 594 3053 
L 172 3053 
L 172 3500 
L 594 3500 
L 594 4494 
L 1172 4494 
z
" transform="scale(0.015625)"/>
      <path id="DejaVuSans-20" transform="scale(0.015625)"/>
      <path id="DejaVuSans-53" d="M 3425 4513 
L 3425 3897 
Q 3066 4069 2747 4153 
Q 2428 4238 2131 4238 
Q 1616 4238 1336 4038 
Q 1056 3838 1056 3469 
Q 1056 3159 1242 3001 
Q 1428 2844 1947 2747 
L 2328 2669 
Q 3034 2534 3370 2195 
Q 3706 1856 3706 1288 
Q 3706 609 3251 259 
Q 2797 -91 1919 -91 
Q 1588 -91 1214 -16 
Q 841 59 441 206 
L 441 856 
Q 825 641 1194 531 
Q 1563 422 1919 422 
Q 2459 422 2753 634 
Q 3047 847 3047 1241 
Q 3047 1584 2836 1778 
Q 2625 1972 2144 2069 
L 1759 2144 
Q 1053 2284 737 2584 
Q 422 2884 422 3419 
Q 422 4038 858 4394 
Q 1294 4750 2059 4750 
Q 2388 4750 2728 4690 
Q 3069 4631 3425 4513 
z
" transform="scale(0.015625)"/>
      <path id="DejaVuSans-71" d="M 947 1747 
Q 947 1113 1208 752 
Q 1469 391 1925 391 
Q 2381 391 2643 752 
Q 2906 1113 2906 1747 
Q 2906 2381 2643 2742 
Q 2381 3103 1925 3103 
Q 1469 3103 1208 2742 
Q 947 2381 947 1747 
z
M 2906 525 
Q 2725 213 2448 61 
Q 2172 -91 1784 -91 
Q 1150 -91 751 415 
Q 353 922 353 1747 
Q 353 2572 751 3078 
Q 1150 3584 1784 3584 
Q 2172 3584 2448 3432 
Q 2725 3281 2906 2969 
L 2906 3500 
L 3481 3500 
L 3481 -1331 
L 2906 -1331 
L 2906 525 
z
" transform="scale(0.015625)"/>
      <path id="DejaVuSans-75" d="M 544 1381 
L 544 3500 
L 1119 3500 
L 1119 1403 
Q 1119 906 1312 657 
Q 1506 409 1894 409 
Q 2359 409 2629 706 
Q 2900 1003 2900 1516 
L 2900 3500 
L 3475 3500 
L 3475 0 
L 2900 0 
L 2900 538 
Q 2691 219 2414 64 
Q 2138 -91 1772 -91 
Q 1169 -91 856 284 
Q 544 659 544 1381 
z
M 1991 3584 
L 1991 3584 
z
" transform="scale(0.015625)"/>
      <path id="DejaVuSans-72" d="M 2631 2963 
Q 2534 3019 2420 3045 
Q 2306 3072 2169 3072 
Q 1681 3072 1420 2755 
Q 1159 2438 1159 1844 
L 1159 0 
L 581 0 
L 581 3500 
L 1159 3500 
L 1159 2956 
Q 1341 3275 1631 3429 
Q 1922 3584 2338 3584 
Q 2397 3584 2469 3576 
Q 2541 3569 2628 3553 
L 2631 2963 
z
" transform="scale(0.015625)"/>
      <path id="DejaVuSans-64" d="M 2906 2969 
L 2906 4863 
L 3481 4863 
L 3481 0 
L 2906 0 
L 2906 525 
Q 2725 213 2448 61 
Q 2172 -91 1784 -91 
Q 1150 -91 751 415 
Q 353 922 353 1747 
Q 353 2572 751 3078 
Q 1150 3584 1784 3584 
Q 2172 3584 2448 3432 
Q 2725 3281 2906 2969 
z
M 947 1747 
Q 947 1113 1208 752 
Q 1469 391 1925 391 
Q 2381 391 2643 752 
Q 2906 1113 2906 1747 
Q 2906 2381 2643 2742 
Q 2381 3103 1925 3103 
Q 1469 3103 1208 2742 
Q 947 2381 947 1747 
z
" transform="scale(0.015625)"/>
      <path id="DejaVuSans-41" d="M 2188 4044 
L 1331 1722 
L 3047 1722 
L 2188 4044 
z
M 1831 4666 
L 2547 4666 
L 4325 0 
L 3669 0 
L 3244 1197 
L 1141 1197 
L 716 0 
L 50 0 
L 1831 4666 
z
" transform="scale(0.015625)"/>
      <path id="DejaVuSans-6d" d="M 3328 2828 
Q 3544 3216 3844 3400 
Q 4144 3584 4550 3584 
Q 5097 3584 5394 3201 
Q 5691 2819 5691 2113 
L 5691 0 
L 5113 0 
L 5113 2094 
Q 5113 2597 4934 2840 
Q 4756 3084 4391 3084 
Q 3944 3084 3684 2787 
Q 3425 2491 3425 1978 
L 3425 0 
L 2847 0 
L 2847 2094 
Q 2847 2600 2669 2842 
Q 2491 3084 2119 3084 
Q 1678 3084 1418 2786 
Q 1159 2488 1159 1978 
L 1159 0 
L 581 0 
L 581 3500 
L 1159 3500 
L 1159 2956 
Q 1356 3278 1631 3431 
Q 1906 3584 2284 3584 
Q 2666 3584 2933 3390 
Q 3200 3197 3328 2828 
z
" transform="scale(0.015625)"/>
      <path id="DejaVuSans-6c" d="M 603 4863 
L 1178 4863 
L 1178 0 
L 603 0 
L 603 4863 
z
" transform="scale(0.015625)"/>
      <path id="DejaVuSans-69" d="M 603 3500 
L 1178 3500 
L 1178 0 
L 603 0 
L 603 3500 
z
M 603 4863 
L 1178 4863 
L 1178 4134 
L 603 4134 
L 603 4863 
z
" transform="scale(0.015625)"/>
     </defs>
     <use xlink:href="#DejaVuSans-57"/>
     <use xlink:href="#DejaVuSans-61" x="92.501953"/>
     <use xlink:href="#DejaVuSans-76" x="153.78125"/>
     <use xlink:href="#DejaVuSans-65" x="212.960938"/>
     <use xlink:href="#DejaVuSans-70" x="274.484375"/>
     <use xlink:href="#DejaVuSans-61" x="337.960938"/>
     <use xlink:href="#DejaVuSans-63" x="399.240234"/>
     <use xlink:href="#DejaVuSans-6b" x="454.220703"/>
     <use xlink:href="#DejaVuSans-65" x="508.505859"/>
     <use xlink:href="#DejaVuSans-74" x="570.029297"/>
     <use xlink:href="#DejaVuSans-20" x="609.238281"/>
     <use xlink:href="#DejaVuSans-53" x="641.025391"/>
     <use xlink:href="#DejaVuSans-71" x="704.501953"/>
     <use xlink:href="#DejaVuSans-75" x="767.978516"/>
     <use xlink:href="#DejaVuSans-61" x="831.357422"/>
     <use xlink:href="#DejaVuSans-72" x="892.636719"/>
     <use xlink:href="#DejaVuSans-65" x="931.5"/>
     <use xlink:href="#DejaVuSans-64" x="993.023438"/>
     <use xlink:href="#DejaVuSans-20" x="1056.5"/>
     <use xlink:href="#DejaVuSans-41" x="1088.287109"/>
     <use xlink:href="#DejaVuSans-6d" x="1156.695312"/>
     <use xlink:href="#DejaVuSans-70" x="1254.107422"/>
     <use xlink:href="#DejaVuSans-6c" x="1317.583984"/>
     <use xlink:href="#DejaVuSans-69" x="1345.367188"/>
     <use xlink:href="#DejaVuSans-74" x="1373.150391"/>
     <use xlink:href="#DejaVuSans-75" x="1412.359375"/>
     <use xlink:href="#DejaVuSans-64" x="1475.738281"/>
     <use xlink:href="#DejaVuSans-65" x="1539.214844"/>
    </g>
   </g>
   <g id="legend_1">
    <g id="patch_7">
     <path d="M 663.873438 194.545 
L 770.6 194.545 
Q 772.6 194.545 772.6 192.545 
L 772.6 76.12 
Q 772.6 74.12 770.6 74.12 
L 663.873438 74.12 
Q 661.873438 74.12 661.873438 76.12 
L 661.873438 192.545 
Q 661.873438 194.545 663.873438 194.545 
z
" style="fill: #ffffff; opacity: 0.8; stroke: #cccccc; stroke-linejoin: miter"/>
    </g>
    <g id="line2d_37">
     <path d="M 665.873438 82.218437 
L 675.873438 82.218437 
L 685.873438 82.218437 
" style="fill: none; stroke: #1f77b4; stroke-width: 1.5; stroke-linecap: square"/>
    </g>
    <g id="text_18">
     <!-- Timestep 500 -->
     <g transform="translate(693.873438 85.718437) scale(0.1 -0.1)">
      <defs>
       <path id="DejaVuSans-54" d="M -19 4666 
L 3928 4666 
L 3928 4134 
L 2272 4134 
L 2272 0 
L 1638 0 
L 1638 4134 
L -19 4134 
L -19 4666 
z
" transform="scale(0.015625)"/>
       <path id="DejaVuSans-73" d="M 2834 3397 
L 2834 2853 
Q 2591 2978 2328 3040 
Q 2066 3103 1784 3103 
Q 1356 3103 1142 2972 
Q 928 2841 928 2578 
Q 928 2378 1081 2264 
Q 1234 2150 1697 2047 
L 1894 2003 
Q 2506 1872 2764 1633 
Q 3022 1394 3022 966 
Q 3022 478 2636 193 
Q 2250 -91 1575 -91 
Q 1294 -91 989 -36 
Q 684 19 347 128 
L 347 722 
Q 666 556 975 473 
Q 1284 391 1588 391 
Q 1994 391 2212 530 
Q 2431 669 2431 922 
Q 2431 1156 2273 1281 
Q 2116 1406 1581 1522 
L 1381 1569 
Q 847 1681 609 1914 
Q 372 2147 372 2553 
Q 372 3047 722 3315 
Q 1072 3584 1716 3584 
Q 2034 3584 2315 3537 
Q 2597 3491 2834 3397 
z
" transform="scale(0.015625)"/>
      </defs>
      <use xlink:href="#DejaVuSans-54"/>
      <use xlink:href="#DejaVuSans-69" x="57.958984"/>
      <use xlink:href="#DejaVuSans-6d" x="85.742188"/>
      <use xlink:href="#DejaVuSans-65" x="183.154297"/>
      <use xlink:href="#DejaVuSans-73" x="244.677734"/>
      <use xlink:href="#DejaVuSans-74" x="296.777344"/>
      <use xlink:href="#DejaVuSans-65" x="335.986328"/>
      <use xlink:href="#DejaVuSans-70" x="397.509766"/>
      <use xlink:href="#DejaVuSans-20" x="460.986328"/>
      <use xlink:href="#DejaVuSans-35" x="492.773438"/>
      <use xlink:href="#DejaVuSans-30" x="556.396484"/>
      <use xlink:href="#DejaVuSans-30" x="620.019531"/>
     </g>
    </g>
    <g id="line2d_38">
     <path d="M 665.873438 96.896563 
L 675.873438 96.896563 
L 685.873438 96.896563 
" style="fill: none; stroke: #ff7f0e; stroke-width: 1.5; stroke-linecap: square"/>
    </g>
    <g id="text_19">
     <!-- Timestep 1000 -->
     <g transform="translate(693.873438 100.396563) scale(0.1 -0.1)">
      <use xlink:href="#DejaVuSans-54"/>
      <use xlink:href="#DejaVuSans-69" x="57.958984"/>
      <use xlink:href="#DejaVuSans-6d" x="85.742188"/>
      <use xlink:href="#DejaVuSans-65" x="183.154297"/>
      <use xlink:href="#DejaVuSans-73" x="244.677734"/>
      <use xlink:href="#DejaVuSans-74" x="296.777344"/>
      <use xlink:href="#DejaVuSans-65" x="335.986328"/>
      <use xlink:href="#DejaVuSans-70" x="397.509766"/>
      <use xlink:href="#DejaVuSans-20" x="460.986328"/>
      <use xlink:href="#DejaVuSans-31" x="492.773438"/>
      <use xlink:href="#DejaVuSans-30" x="556.396484"/>
      <use xlink:href="#DejaVuSans-30" x="620.019531"/>
      <use xlink:href="#DejaVuSans-30" x="683.642578"/>
     </g>
    </g>
    <g id="line2d_39">
     <path d="M 665.873438 111.574687 
L 675.873438 111.574687 
L 685.873438 111.574687 
" style="fill: none; stroke: #2ca02c; stroke-width: 1.5; stroke-linecap: square"/>
    </g>
    <g id="text_20">
     <!-- Timestep 1500 -->
     <g transform="translate(693.873438 115.074687) scale(0.1 -0.1)">
      <use xlink:href="#DejaVuSans-54"/>
      <use xlink:href="#DejaVuSans-69" x="57.958984"/>
      <use xlink:href="#DejaVuSans-6d" x="85.742188"/>
      <use xlink:href="#DejaVuSans-65" x="183.154297"/>
      <use xlink:href="#DejaVuSans-73" x="244.677734"/>
      <use xlink:href="#DejaVuSans-74" x="296.777344"/>
      <use xlink:href="#DejaVuSans-65" x="335.986328"/>
      <use xlink:href="#DejaVuSans-70" x="397.509766"/>
      <use xlink:href="#DejaVuSans-20" x="460.986328"/>
      <use xlink:href="#DejaVuSans-31" x="492.773438"/>
      <use xlink:href="#DejaVuSans-35" x="556.396484"/>
      <use xlink:href="#DejaVuSans-30" x="620.019531"/>
      <use xlink:href="#DejaVuSans-30" x="683.642578"/>
     </g>
    </g>
    <g id="line2d_40">
     <path d="M 665.873438 126.252813 
L 675.873438 126.252813 
L 685.873438 126.252813 
" style="fill: none; stroke: #d62728; stroke-width: 1.5; stroke-linecap: square"/>
    </g>
    <g id="text_21">
     <!-- Timestep 2000 -->
     <g transform="translate(693.873438 129.752813) scale(0.1 -0.1)">
      <use xlink:href="#DejaVuSans-54"/>
      <use xlink:href="#DejaVuSans-69" x="57.958984"/>
      <use xlink:href="#DejaVuSans-6d" x="85.742188"/>
      <use xlink:href="#DejaVuSans-65" x="183.154297"/>
      <use xlink:href="#DejaVuSans-73" x="244.677734"/>
      <use xlink:href="#DejaVuSans-74" x="296.777344"/>
      <use xlink:href="#DejaVuSans-65" x="335.986328"/>
      <use xlink:href="#DejaVuSans-70" x="397.509766"/>
      <use xlink:href="#DejaVuSans-20" x="460.986328"/>
      <use xlink:href="#DejaVuSans-32" x="492.773438"/>
      <use xlink:href="#DejaVuSans-30" x="556.396484"/>
      <use xlink:href="#DejaVuSans-30" x="620.019531"/>
      <use xlink:href="#DejaVuSans-30" x="683.642578"/>
     </g>
    </g>
    <g id="line2d_41">
     <path d="M 665.873438 140.930938 
L 675.873438 140.930938 
L 685.873438 140.930938 
" style="fill: none; stroke: #9467bd; stroke-width: 1.5; stroke-linecap: square"/>
    </g>
    <g id="text_22">
     <!-- Timestep 2500 -->
     <g transform="translate(693.873438 144.430938) scale(0.1 -0.1)">
      <use xlink:href="#DejaVuSans-54"/>
      <use xlink:href="#DejaVuSans-69" x="57.958984"/>
      <use xlink:href="#DejaVuSans-6d" x="85.742188"/>
      <use xlink:href="#DejaVuSans-65" x="183.154297"/>
      <use xlink:href="#DejaVuSans-73" x="244.677734"/>
      <use xlink:href="#DejaVuSans-74" x="296.777344"/>
      <use xlink:href="#DejaVuSans-65" x="335.986328"/>
      <use xlink:href="#DejaVuSans-70" x="397.509766"/>
      <use xlink:href="#DejaVuSans-20" x="460.986328"/>
      <use xlink:href="#DejaVuSans-32" x="492.773438"/>
      <use xlink:href="#DejaVuSans-35" x="556.396484"/>
      <use xlink:href="#DejaVuSans-30" x="620.019531"/>
      <use xlink:href="#DejaVuSans-30" x="683.642578"/>
     </g>
    </g>
    <g id="line2d_42">
     <path d="M 665.873438 155.609062 
L 675.873438 155.609062 
L 685.873438 155.609062 
" style="fill: none; stroke: #8c564b; stroke-width: 1.5; stroke-linecap: square"/>
    </g>
    <g id="text_23">
     <!-- Timestep 3000 -->
     <g transform="translate(693.873438 159.109062) scale(0.1 -0.1)">
      <use xlink:href="#DejaVuSans-54"/>
      <use xlink:href="#DejaVuSans-69" x="57.958984"/>
      <use xlink:href="#DejaVuSans-6d" x="85.742188"/>
      <use xlink:href="#DejaVuSans-65" x="183.154297"/>
      <use xlink:href="#DejaVuSans-73" x="244.677734"/>
      <use xlink:href="#DejaVuSans-74" x="296.777344"/>
      <use xlink:href="#DejaVuSans-65" x="335.986328"/>
      <use xlink:href="#DejaVuSans-70" x="397.509766"/>
      <use xlink:href="#DejaVuSans-20" x="460.986328"/>
      <use xlink:href="#DejaVuSans-33" x="492.773438"/>
      <use xlink:href="#DejaVuSans-30" x="556.396484"/>
      <use xlink:href="#DejaVuSans-30" x="620.019531"/>
      <use xlink:href="#DejaVuSans-30" x="683.642578"/>
     </g>
    </g>
    <g id="line2d_43">
     <path d="M 665.873438 170.287187 
L 675.873438 170.287187 
L 685.873438 170.287187 
" style="fill: none; stroke: #e377c2; stroke-width: 1.5; stroke-linecap: square"/>
    </g>
    <g id="text_24">
     <!-- Timestep 3500 -->
     <g transform="translate(693.873438 173.787187) scale(0.1 -0.1)">
      <use xlink:href="#DejaVuSans-54"/>
      <use xlink:href="#DejaVuSans-69" x="57.958984"/>
      <use xlink:href="#DejaVuSans-6d" x="85.742188"/>
      <use xlink:href="#DejaVuSans-65" x="183.154297"/>
      <use xlink:href="#DejaVuSans-73" x="244.677734"/>
      <use xlink:href="#DejaVuSans-74" x="296.777344"/>
      <use xlink:href="#DejaVuSans-65" x="335.986328"/>
      <use xlink:href="#DejaVuSans-70" x="397.509766"/>
      <use xlink:href="#DejaVuSans-20" x="460.986328"/>
      <use xlink:href="#DejaVuSans-33" x="492.773438"/>
      <use xlink:href="#DejaVuSans-35" x="556.396484"/>
      <use xlink:href="#DejaVuSans-30" x="620.019531"/>
      <use xlink:href="#DejaVuSans-30" x="683.642578"/>
     </g>
    </g>
    <g id="line2d_44">
     <path d="M 665.873438 184.965312 
L 675.873438 184.965312 
L 685.873438 184.965312 
" style="fill: none; stroke: #7f7f7f; stroke-width: 1.5; stroke-linecap: square"/>
    </g>
    <g id="text_25">
     <!-- Timestep 4000 -->
     <g transform="translate(693.873438 188.465312) scale(0.1 -0.1)">
      <use xlink:href="#DejaVuSans-54"/>
      <use xlink:href="#DejaVuSans-69" x="57.958984"/>
      <use xlink:href="#DejaVuSans-6d" x="85.742188"/>
      <use xlink:href="#DejaVuSans-65" x="183.154297"/>
      <use xlink:href="#DejaVuSans-73" x="244.677734"/>
      <use xlink:href="#DejaVuSans-74" x="296.777344"/>
      <use xlink:href="#DejaVuSans-65" x="335.986328"/>
      <use xlink:href="#DejaVuSans-70" x="397.509766"/>
      <use xlink:href="#DejaVuSans-20" x="460.986328"/>
      <use xlink:href="#DejaVuSans-34" x="492.773438"/>
      <use xlink:href="#DejaVuSans-30" x="556.396484"/>
      <use xlink:href="#DejaVuSans-30" x="620.019531"/>
      <use xlink:href="#DejaVuSans-30" x="683.642578"/>
     </g>
    </g>
   </g>
  </g>
 </g>
 <defs>
  <clipPath id="p602b6954ac">
   <rect x="108" y="69.12" width="669.6" height="443.52"/>
  </clipPath>
 </defs>
</svg>
