<svg class="main-svg" xmlns="http://www.w3.org/2000/svg" xmlns:xlink="http://www.w3.org/1999/xlink" width="1500" height="750" style="" viewBox="0 0 1000 500"><rect x="0" y="0" width="1000" height="500" style="fill: rgb(255, 255, 255); fill-opacity: 1;"/><defs id="defs-6010c1"><g class="clips"><clipPath id="clip6010c1xyplot" class="plotclip"><rect width="791" height="320"/></clipPath><clipPath class="axesclip" id="clip6010c1x"><rect x="80" y="0" width="791" height="500"/></clipPath><clipPath class="axesclip" id="clip6010c1y"><rect x="0" y="100" width="1000" height="320"/></clipPath><clipPath class="axesclip" id="clip6010c1xy"><rect x="80" y="100" width="791" height="320"/></clipPath></g><g class="gradients"/><g class="patterns"/></defs><g class="bglayer"><rect class="bg" x="80" y="100" width="791" height="320" style="fill: rgb(229, 236, 246); fill-opacity: 1; stroke-width: 0px;"/></g><g class="layer-below"><g class="imagelayer"/><g class="shapelayer"/></g><g class="cartesianlayer"><g class="subplot xy"><g class="layer-subplot"><g class="shapelayer"/><g class="imagelayer"/></g><g class="minor-gridlayer"><g class="x"/><g class="y"/></g><g class="gridlayer"><g class="x"><path class="xgrid crisp" transform="translate(213.87,0)" d="M0,100v320" style="stroke: rgb(255, 255, 255); stroke-opacity: 1; stroke-width: 1px;"/><path class="xgrid crisp" transform="translate(327.08000000000004,0)" d="M0,100v320" style="stroke: rgb(255, 255, 255); stroke-opacity: 1; stroke-width: 1px;"/><path class="xgrid crisp" transform="translate(440.29,0)" d="M0,100v320" style="stroke: rgb(255, 255, 255); stroke-opacity: 1; stroke-width: 1px;"/><path class="xgrid crisp" transform="translate(553.5,0)" d="M0,100v320" style="stroke: rgb(255, 255, 255); stroke-opacity: 1; stroke-width: 1px;"/><path class="xgrid crisp" transform="translate(666.71,0)" d="M0,100v320" style="stroke: rgb(255, 255, 255); stroke-opacity: 1; stroke-width: 1px;"/><path class="xgrid crisp" transform="translate(779.92,0)" d="M0,100v320" style="stroke: rgb(255, 255, 255); stroke-opacity: 1; stroke-width: 1px;"/></g><g class="y"><path class="ygrid crisp" transform="translate(0,350.31)" d="M80,0h791" style="stroke: rgb(255, 255, 255); stroke-opacity: 1; stroke-width: 1px;"/><path class="ygrid crisp" transform="translate(0,302.12)" d="M80,0h791" style="stroke: rgb(255, 255, 255); stroke-opacity: 1; stroke-width: 1px;"/><path class="ygrid crisp" transform="translate(0,253.92)" d="M80,0h791" style="stroke: rgb(255, 255, 255); stroke-opacity: 1; stroke-width: 1px;"/><path class="ygrid crisp" transform="translate(0,205.73000000000002)" d="M80,0h791" style="stroke: rgb(255, 255, 255); stroke-opacity: 1; stroke-width: 1px;"/><path class="ygrid crisp" transform="translate(0,157.54)" d="M80,0h791" style="stroke: rgb(255, 255, 255); stroke-opacity: 1; stroke-width: 1px;"/><path class="ygrid crisp" transform="translate(0,109.34)" d="M80,0h791" style="stroke: rgb(255, 255, 255); stroke-opacity: 1; stroke-width: 1px;"/></g></g><g class="zerolinelayer"><path class="xzl zl crisp" transform="translate(100.66,0)" d="M0,100v320" style="stroke: rgb(255, 255, 255); stroke-opacity: 1; stroke-width: 2px;"/><path class="yzl zl crisp" transform="translate(0,398.51)" d="M80,0h791" style="stroke: rgb(255, 255, 255); stroke-opacity: 1; stroke-width: 2px;"/></g><path class="xlines-below"/><path class="ylines-below"/><g class="overlines-below"/><g class="xaxislayer-below"/><g class="yaxislayer-below"/><g class="overaxes-below"/><g class="plot" transform="translate(80,100)" clip-path="url(#clip6010c1xyplot)"><g class="scatterlayer mlayer"><g class="trace scatter tracea597bd" style="stroke-miterlimit: 2; opacity: 1;"><g class="fills"/><g class="errorbars"><g class="errorbar"><path style="vector-effect: none; stroke-width: 2px; stroke: rgb(0, 0, 255); stroke-opacity: 1;" class="yerror" d="M39.3,292.64h8m-4,0V292.64m-4,0h8"/></g><g class="errorbar"><path style="vector-effect: none; stroke-width: 2px; stroke: rgb(0, 0, 255); stroke-opacity: 1;" class="yerror" d="M61.94,295.32h8m-4,0V295.34m-4,0h8"/></g><g class="errorbar"><path style="vector-effect: none; stroke-width: 2px; stroke: rgb(0, 0, 255); stroke-opacity: 1;" class="yerror" d="M107.23,296.7h8m-4,0V296.73m-4,0h8"/></g><g class="errorbar"><path style="vector-effect: none; stroke-width: 2px; stroke: rgb(0, 0, 255); stroke-opacity: 1;" class="yerror" d="M152.51,297.16h8m-4,0V297.18m-4,0h8"/></g><g class="errorbar"><path style="vector-effect: none; stroke-width: 2px; stroke: rgb(0, 0, 255); stroke-opacity: 1;" class="yerror" d="M197.79,297.39h8m-4,0V297.39m-4,0h8"/></g><g class="errorbar"><path style="vector-effect: none; stroke-width: 2px; stroke: rgb(0, 0, 255); stroke-opacity: 1;" class="yerror" d="M288.36,297.58h8m-4,0V297.62m-4,0h8"/></g><g class="errorbar"><path style="vector-effect: none; stroke-width: 2px; stroke: rgb(0, 0, 255); stroke-opacity: 1;" class="yerror" d="M378.93,297.68h8m-4,0V297.7m-4,0h8"/></g><g class="errorbar"><path style="vector-effect: none; stroke-width: 2px; stroke: rgb(0, 0, 255); stroke-opacity: 1;" class="yerror" d="M469.5,297.71h8m-4,0V297.78m-4,0h8"/></g><g class="errorbar"><path style="vector-effect: none; stroke-width: 2px; stroke: rgb(0, 0, 255); stroke-opacity: 1;" class="yerror" d="M560.06,297.71h8m-4,0V297.77m-4,0h8"/></g><g class="errorbar"><path style="vector-effect: none; stroke-width: 2px; stroke: rgb(0, 0, 255); stroke-opacity: 1;" class="yerror" d="M650.63,297.68h8m-4,0V297.82m-4,0h8"/></g><g class="errorbar"><path style="vector-effect: none; stroke-width: 2px; stroke: rgb(0, 0, 255); stroke-opacity: 1;" class="yerror" d="M741.2,297.7h8m-4,0V297.75m-4,0h8"/></g></g><g class="lines"><path class="js-line" style="vector-effect: none; fill: none; stroke: rgb(0, 0, 255); stroke-opacity: 1; stroke-width: 2px; opacity: 1;" d="M43.3,292.64L65.94,295.33L111.23,296.72L201.79,297.39L292.36,297.6L745.2,297.73"/></g><g class="points"><path class="point" transform="translate(43.3,292.64)" style="opacity: 1; stroke-width: 0px; fill: rgb(0, 0, 255); fill-opacity: 1;" d="M3,0A3,3 0 1,1 0,-3A3,3 0 0,1 3,0Z"/><path class="point" transform="translate(65.94,295.33)" style="opacity: 1; stroke-width: 0px; fill: rgb(0, 0, 255); fill-opacity: 1;" d="M3,0A3,3 0 1,1 0,-3A3,3 0 0,1 3,0Z"/><path class="point" transform="translate(111.23,296.72)" style="opacity: 1; stroke-width: 0px; fill: rgb(0, 0, 255); fill-opacity: 1;" d="M3,0A3,3 0 1,1 0,-3A3,3 0 0,1 3,0Z"/><path class="point" transform="translate(156.51,297.17)" style="opacity: 1; stroke-width: 0px; fill: rgb(0, 0, 255); fill-opacity: 1;" d="M3,0A3,3 0 1,1 0,-3A3,3 0 0,1 3,0Z"/><path class="point" transform="translate(201.79,297.39)" style="opacity: 1; stroke-width: 0px; fill: rgb(0, 0, 255); fill-opacity: 1;" d="M3,0A3,3 0 1,1 0,-3A3,3 0 0,1 3,0Z"/><path class="point" transform="translate(292.36,297.6)" style="opacity: 1; stroke-width: 0px; fill: rgb(0, 0, 255); fill-opacity: 1;" d="M3,0A3,3 0 1,1 0,-3A3,3 0 0,1 3,0Z"/><path class="point" transform="translate(382.93,297.69)" style="opacity: 1; stroke-width: 0px; fill: rgb(0, 0, 255); fill-opacity: 1;" d="M3,0A3,3 0 1,1 0,-3A3,3 0 0,1 3,0Z"/><path class="point" transform="translate(473.5,297.74)" style="opacity: 1; stroke-width: 0px; fill: rgb(0, 0, 255); fill-opacity: 1;" d="M3,0A3,3 0 1,1 0,-3A3,3 0 0,1 3,0Z"/><path class="point" transform="translate(564.06,297.74)" style="opacity: 1; stroke-width: 0px; fill: rgb(0, 0, 255); fill-opacity: 1;" d="M3,0A3,3 0 1,1 0,-3A3,3 0 0,1 3,0Z"/><path class="point" transform="translate(654.63,297.75)" style="opacity: 1; stroke-width: 0px; fill: rgb(0, 0, 255); fill-opacity: 1;" d="M3,0A3,3 0 1,1 0,-3A3,3 0 0,1 3,0Z"/><path class="point" transform="translate(745.2,297.73)" style="opacity: 1; stroke-width: 0px; fill: rgb(0, 0, 255); fill-opacity: 1;" d="M3,0A3,3 0 1,1 0,-3A3,3 0 0,1 3,0Z"/></g><g class="text"/></g><g class="trace scatter traceb3b5be" style="stroke-miterlimit: 2; opacity: 1;"><g class="fills"/><g class="errorbars"><g class="errorbar"><path style="vector-effect: none; stroke-width: 2px; stroke: rgb(0, 128, 0); stroke-opacity: 1;" class="yerror" d="M39.3,230.74h8m-4,0V230.93m-4,0h8"/></g><g class="errorbar"><path style="vector-effect: none; stroke-width: 2px; stroke: rgb(0, 128, 0); stroke-opacity: 1;" class="yerror" d="M61.94,263.86h8m-4,0V264.13m-4,0h8"/></g><g class="errorbar"><path style="vector-effect: none; stroke-width: 2px; stroke: rgb(0, 128, 0); stroke-opacity: 1;" class="yerror" d="M107.23,280.48h8m-4,0V280.78m-4,0h8"/></g><g class="errorbar"><path style="vector-effect: none; stroke-width: 2px; stroke: rgb(0, 128, 0); stroke-opacity: 1;" class="yerror" d="M152.51,285.86h8m-4,0V286.03m-4,0h8"/></g><g class="errorbar"><path style="vector-effect: none; stroke-width: 2px; stroke: rgb(0, 128, 0); stroke-opacity: 1;" class="yerror" d="M197.79,288.6h8m-4,0V289.03m-4,0h8"/></g><g class="errorbar"><path style="vector-effect: none; stroke-width: 2px; stroke: rgb(0, 128, 0); stroke-opacity: 1;" class="yerror" d="M288.36,291.44h8m-4,0V291.47m-4,0h8"/></g><g class="errorbar"><path style="vector-effect: none; stroke-width: 2px; stroke: rgb(0, 128, 0); stroke-opacity: 1;" class="yerror" d="M378.93,292.79h8m-4,0V293.11m-4,0h8"/></g><g class="errorbar"><path style="vector-effect: none; stroke-width: 2px; stroke: rgb(0, 128, 0); stroke-opacity: 1;" class="yerror" d="M469.5,293.63h8m-4,0V293.87m-4,0h8"/></g><g class="errorbar"><path style="vector-effect: none; stroke-width: 2px; stroke: rgb(0, 128, 0); stroke-opacity: 1;" class="yerror" d="M560.06,294.11h8m-4,0V294.21m-4,0h8"/></g><g class="errorbar"><path style="vector-effect: none; stroke-width: 2px; stroke: rgb(0, 128, 0); stroke-opacity: 1;" class="yerror" d="M650.63,294.13h8m-4,0V294.58m-4,0h8"/></g><g class="errorbar"><path style="vector-effect: none; stroke-width: 2px; stroke: rgb(0, 128, 0); stroke-opacity: 1;" class="yerror" d="M741.2,294.75h8m-4,0V294.86m-4,0h8"/></g></g><g class="lines"><path class="js-line" style="vector-effect: none; fill: none; stroke: rgb(0, 128, 0); stroke-opacity: 1; stroke-width: 2px; opacity: 1;" d="M43.3,230.84L65.94,264L111.23,280.63L156.51,285.95L201.79,288.82L292.36,291.45L382.93,292.95L564.06,294.16L654.63,294.35L745.2,294.81"/></g><g class="points"><path class="point" transform="translate(43.3,230.84)" style="opacity: 1; stroke-width: 0px; fill: rgb(0, 128, 0); fill-opacity: 1;" d="M3,0A3,3 0 1,1 0,-3A3,3 0 0,1 3,0Z"/><path class="point" transform="translate(65.94,264)" style="opacity: 1; stroke-width: 0px; fill: rgb(0, 128, 0); fill-opacity: 1;" d="M3,0A3,3 0 1,1 0,-3A3,3 0 0,1 3,0Z"/><path class="point" transform="translate(111.23,280.63)" style="opacity: 1; stroke-width: 0px; fill: rgb(0, 128, 0); fill-opacity: 1;" d="M3,0A3,3 0 1,1 0,-3A3,3 0 0,1 3,0Z"/><path class="point" transform="translate(156.51,285.95)" style="opacity: 1; stroke-width: 0px; fill: rgb(0, 128, 0); fill-opacity: 1;" d="M3,0A3,3 0 1,1 0,-3A3,3 0 0,1 3,0Z"/><path class="point" transform="translate(201.79,288.82)" style="opacity: 1; stroke-width: 0px; fill: rgb(0, 128, 0); fill-opacity: 1;" d="M3,0A3,3 0 1,1 0,-3A3,3 0 0,1 3,0Z"/><path class="point" transform="translate(292.36,291.45)" style="opacity: 1; stroke-width: 0px; fill: rgb(0, 128, 0); fill-opacity: 1;" d="M3,0A3,3 0 1,1 0,-3A3,3 0 0,1 3,0Z"/><path class="point" transform="translate(382.93,292.95)" style="opacity: 1; stroke-width: 0px; fill: rgb(0, 128, 0); fill-opacity: 1;" d="M3,0A3,3 0 1,1 0,-3A3,3 0 0,1 3,0Z"/><path class="point" transform="translate(473.5,293.75)" style="opacity: 1; stroke-width: 0px; fill: rgb(0, 128, 0); fill-opacity: 1;" d="M3,0A3,3 0 1,1 0,-3A3,3 0 0,1 3,0Z"/><path class="point" transform="translate(564.06,294.16)" style="opacity: 1; stroke-width: 0px; fill: rgb(0, 128, 0); fill-opacity: 1;" d="M3,0A3,3 0 1,1 0,-3A3,3 0 0,1 3,0Z"/><path class="point" transform="translate(654.63,294.35)" style="opacity: 1; stroke-width: 0px; fill: rgb(0, 128, 0); fill-opacity: 1;" d="M3,0A3,3 0 1,1 0,-3A3,3 0 0,1 3,0Z"/><path class="point" transform="translate(745.2,294.81)" style="opacity: 1; stroke-width: 0px; fill: rgb(0, 128, 0); fill-opacity: 1;" d="M3,0A3,3 0 1,1 0,-3A3,3 0 0,1 3,0Z"/></g><g class="text"/></g><g class="trace scatter tracea7a655" style="stroke-miterlimit: 2; opacity: 1;"><g class="fills"/><g class="errorbars"><g class="errorbar"><path style="vector-effect: none; stroke-width: 2px; stroke: rgb(255, 0, 0); stroke-opacity: 1;" class="yerror" d="M39.3,28.33h8m-4,0V28.85m-4,0h8"/></g><g class="errorbar"><path style="vector-effect: none; stroke-width: 2px; stroke: rgb(255, 0, 0); stroke-opacity: 1;" class="yerror" d="M61.94,161.82h8m-4,0V162.67m-4,0h8"/></g><g class="errorbar"><path style="vector-effect: none; stroke-width: 2px; stroke: rgb(255, 0, 0); stroke-opacity: 1;" class="yerror" d="M107.23,227.54h8m-4,0V229.56m-4,0h8"/></g><g class="errorbar"><path style="vector-effect: none; stroke-width: 2px; stroke: rgb(255, 0, 0); stroke-opacity: 1;" class="yerror" d="M152.51,250.58h8m-4,0V251.45m-4,0h8"/></g><g class="errorbar"><path style="vector-effect: none; stroke-width: 2px; stroke: rgb(255, 0, 0); stroke-opacity: 1;" class="yerror" d="M197.79,260.7h8m-4,0V262.5m-4,0h8"/></g><g class="errorbar"><path style="vector-effect: none; stroke-width: 2px; stroke: rgb(255, 0, 0); stroke-opacity: 1;" class="yerror" d="M288.36,272.27h8m-4,0V273.66m-4,0h8"/></g><g class="errorbar"><path style="vector-effect: none; stroke-width: 2px; stroke: rgb(255, 0, 0); stroke-opacity: 1;" class="yerror" d="M378.93,278.34h8m-4,0V279.37m-4,0h8"/></g><g class="errorbar"><path style="vector-effect: none; stroke-width: 2px; stroke: rgb(255, 0, 0); stroke-opacity: 1;" class="yerror" d="M469.5,280.78h8m-4,0V282.58m-4,0h8"/></g><g class="errorbar"><path style="vector-effect: none; stroke-width: 2px; stroke: rgb(255, 0, 0); stroke-opacity: 1;" class="yerror" d="M560.06,283.76h8m-4,0V284.01m-4,0h8"/></g><g class="errorbar"><path style="vector-effect: none; stroke-width: 2px; stroke: rgb(255, 0, 0); stroke-opacity: 1;" class="yerror" d="M650.63,271.72h8m-4,0V288.56m-4,0h8"/></g><g class="errorbar"><path style="vector-effect: none; stroke-width: 2px; stroke: rgb(255, 0, 0); stroke-opacity: 1;" class="yerror" d="M741.2,286.03h8m-4,0V286.66m-4,0h8"/></g></g><g class="lines"><path class="js-line" style="vector-effect: none; fill: none; stroke: rgb(255, 0, 0); stroke-opacity: 1; stroke-width: 2px; opacity: 1;" d="M43.3,28.59L65.94,162.25L111.23,228.55L156.51,251.01L201.79,261.6L292.36,272.97L382.93,278.86L564.06,283.88L654.63,280.14L745.2,286.35"/></g><g class="points"><path class="point" transform="translate(43.3,28.59)" style="opacity: 1; stroke-width: 0px; fill: rgb(255, 0, 0); fill-opacity: 1;" d="M3,0A3,3 0 1,1 0,-3A3,3 0 0,1 3,0Z"/><path class="point" transform="translate(65.94,162.25)" style="opacity: 1; stroke-width: 0px; fill: rgb(255, 0, 0); fill-opacity: 1;" d="M3,0A3,3 0 1,1 0,-3A3,3 0 0,1 3,0Z"/><path class="point" transform="translate(111.23,228.55)" style="opacity: 1; stroke-width: 0px; fill: rgb(255, 0, 0); fill-opacity: 1;" d="M3,0A3,3 0 1,1 0,-3A3,3 0 0,1 3,0Z"/><path class="point" transform="translate(156.51,251.01)" style="opacity: 1; stroke-width: 0px; fill: rgb(255, 0, 0); fill-opacity: 1;" d="M3,0A3,3 0 1,1 0,-3A3,3 0 0,1 3,0Z"/><path class="point" transform="translate(201.79,261.6)" style="opacity: 1; stroke-width: 0px; fill: rgb(255, 0, 0); fill-opacity: 1;" d="M3,0A3,3 0 1,1 0,-3A3,3 0 0,1 3,0Z"/><path class="point" transform="translate(292.36,272.97)" style="opacity: 1; stroke-width: 0px; fill: rgb(255, 0, 0); fill-opacity: 1;" d="M3,0A3,3 0 1,1 0,-3A3,3 0 0,1 3,0Z"/><path class="point" transform="translate(382.93,278.86)" style="opacity: 1; stroke-width: 0px; fill: rgb(255, 0, 0); fill-opacity: 1;" d="M3,0A3,3 0 1,1 0,-3A3,3 0 0,1 3,0Z"/><path class="point" transform="translate(473.5,281.68)" style="opacity: 1; stroke-width: 0px; fill: rgb(255, 0, 0); fill-opacity: 1;" d="M3,0A3,3 0 1,1 0,-3A3,3 0 0,1 3,0Z"/><path class="point" transform="translate(564.06,283.88)" style="opacity: 1; stroke-width: 0px; fill: rgb(255, 0, 0); fill-opacity: 1;" d="M3,0A3,3 0 1,1 0,-3A3,3 0 0,1 3,0Z"/><path class="point" transform="translate(654.63,280.14)" style="opacity: 1; stroke-width: 0px; fill: rgb(255, 0, 0); fill-opacity: 1;" d="M3,0A3,3 0 1,1 0,-3A3,3 0 0,1 3,0Z"/><path class="point" transform="translate(745.2,286.35)" style="opacity: 1; stroke-width: 0px; fill: rgb(255, 0, 0); fill-opacity: 1;" d="M3,0A3,3 0 1,1 0,-3A3,3 0 0,1 3,0Z"/></g><g class="text"/></g><g class="trace scatter traced2d544" style="stroke-miterlimit: 2; opacity: 1;"><g class="fills"/><g class="errorbars"/><g class="lines"><path class="js-line" style="vector-effect: none; fill: none; stroke: rgb(0, 0, 255); stroke-opacity: 1; stroke-dasharray: 9px, 9px; stroke-width: 2px; opacity: 1;" d="M43.3,292L65.94,290.19L111.23,292.04L201.79,291.36L292.36,291.09L473.5,290.8L564.06,289.2L654.63,290.44L745.2,290.05"/></g><g class="points"/><g class="text"/></g><g class="trace scatter trace5895b1" style="stroke-miterlimit: 2; opacity: 1;"><g class="fills"/><g class="errorbars"/><g class="lines"><path class="js-line" style="vector-effect: none; fill: none; stroke: rgb(0, 128, 0); stroke-opacity: 1; stroke-dasharray: 9px, 9px; stroke-width: 2px; opacity: 1;" d="M43.3,232.98L65.94,233.23L111.23,231.87L156.51,231.84L201.79,230.24L292.36,229.65L382.93,226.94L473.5,228.39L564.06,228.37L654.63,227.18L745.2,226.85"/></g><g class="points"/><g class="text"/></g><g class="trace scatter trace314251" style="stroke-miterlimit: 2; opacity: 1;"><g class="fills"/><g class="errorbars"/><g class="lines"><path class="js-line" style="vector-effect: none; fill: none; stroke: rgb(255, 0, 0); stroke-opacity: 1; stroke-dasharray: 9px, 9px; stroke-width: 2px; opacity: 1;" d="M43.3,40.91L65.94,40.74L111.23,35.03L156.51,35.33L201.79,31.63L382.93,24.62L473.5,24.05L564.06,24.14L654.63,19.67L745.2,16"/></g><g class="points"/><g class="text"/></g><g class="trace scatter trace7918f8" style="stroke-miterlimit: 2; opacity: 1;"><g class="fills"/><g class="errorbars"/><g class="lines"/><g class="points"><path class="point" transform="translate(654.63,297.75)" style="opacity: 1; stroke-width: 0px; fill: rgb(0, 0, 255); fill-opacity: 1;" d="M5,0A5,5 0 1,1 0,-5A5,5 0 0,1 5,0Z"/></g><g class="text"/></g><g class="trace scatter tracefc7166" style="stroke-miterlimit: 2; opacity: 1;"><g class="fills"/><g class="errorbars"/><g class="lines"/><g class="points"><path class="point" transform="translate(745.2,294.81)" style="opacity: 1; stroke-width: 0px; fill: rgb(0, 128, 0); fill-opacity: 1;" d="M5,0A5,5 0 1,1 0,-5A5,5 0 0,1 5,0Z"/></g><g class="text"/></g><g class="trace scatter trace9d31aa" style="stroke-miterlimit: 2; opacity: 1;"><g class="fills"/><g class="errorbars"/><g class="lines"/><g class="points"><path class="point" transform="translate(745.2,286.35)" style="opacity: 1; stroke-width: 0px; fill: rgb(255, 0, 0); fill-opacity: 1;" d="M5,0A5,5 0 1,1 0,-5A5,5 0 0,1 5,0Z"/></g><g class="text"/></g></g></g><g class="overplot"/><path class="xlines-above crisp" style="fill: none;" d="M0,0"/><path class="ylines-above crisp" style="fill: none;" d="M0,0"/><g class="overlines-above"/><g class="xaxislayer-above"><g class="xtick"><text text-anchor="middle" x="0" y="433" style="font-family: TOBESTRIPPEDOpen SansTOBESTRIPPED, verdana, arial, sans-serif; font-size: 12px; fill: rgb(42, 63, 95); fill-opacity: 1; white-space: pre; opacity: 1;" transform="translate(100.66,0)">0</text></g><g class="xtick"><text text-anchor="middle" x="0" y="433" style="font-family: TOBESTRIPPEDOpen SansTOBESTRIPPED, verdana, arial, sans-serif; font-size: 12px; fill: rgb(42, 63, 95); fill-opacity: 1; white-space: pre; opacity: 1;" transform="translate(213.87,0)">5</text></g><g class="xtick"><text text-anchor="middle" x="0" y="433" style="font-family: TOBESTRIPPEDOpen SansTOBESTRIPPED, verdana, arial, sans-serif; font-size: 12px; fill: rgb(42, 63, 95); fill-opacity: 1; white-space: pre; opacity: 1;" transform="translate(327.08000000000004,0)">10</text></g><g class="xtick"><text text-anchor="middle" x="0" y="433" style="font-family: TOBESTRIPPEDOpen SansTOBESTRIPPED, verdana, arial, sans-serif; font-size: 12px; fill: rgb(42, 63, 95); fill-opacity: 1; white-space: pre; opacity: 1;" transform="translate(440.29,0)">15</text></g><g class="xtick"><text text-anchor="middle" x="0" y="433" style="font-family: TOBESTRIPPEDOpen SansTOBESTRIPPED, verdana, arial, sans-serif; font-size: 12px; fill: rgb(42, 63, 95); fill-opacity: 1; white-space: pre; opacity: 1;" transform="translate(553.5,0)">20</text></g><g class="xtick"><text text-anchor="middle" x="0" y="433" style="font-family: TOBESTRIPPEDOpen SansTOBESTRIPPED, verdana, arial, sans-serif; font-size: 12px; fill: rgb(42, 63, 95); fill-opacity: 1; white-space: pre; opacity: 1;" transform="translate(666.71,0)">25</text></g><g class="xtick"><text text-anchor="middle" x="0" y="433" style="font-family: TOBESTRIPPEDOpen SansTOBESTRIPPED, verdana, arial, sans-serif; font-size: 12px; fill: rgb(42, 63, 95); fill-opacity: 1; white-space: pre; opacity: 1;" transform="translate(779.92,0)">30</text></g></g><g class="yaxislayer-above"><g class="ytick"><text text-anchor="end" x="79" y="4.199999999999999" style="font-family: TOBESTRIPPEDOpen SansTOBESTRIPPED, verdana, arial, sans-serif; font-size: 12px; fill: rgb(42, 63, 95); fill-opacity: 1; white-space: pre; opacity: 1;" transform="translate(0,398.51)">0</text></g><g class="ytick"><text text-anchor="end" x="79" y="4.199999999999999" style="font-family: TOBESTRIPPEDOpen SansTOBESTRIPPED, verdana, arial, sans-serif; font-size: 12px; fill: rgb(42, 63, 95); fill-opacity: 1; white-space: pre; opacity: 1;" transform="translate(0,350.31)">10</text></g><g class="ytick"><text text-anchor="end" x="79" y="4.199999999999999" style="font-family: TOBESTRIPPEDOpen SansTOBESTRIPPED, verdana, arial, sans-serif; font-size: 12px; fill: rgb(42, 63, 95); fill-opacity: 1; white-space: pre; opacity: 1;" transform="translate(0,302.12)">20</text></g><g class="ytick"><text text-anchor="end" x="79" y="4.199999999999999" style="font-family: TOBESTRIPPEDOpen SansTOBESTRIPPED, verdana, arial, sans-serif; font-size: 12px; fill: rgb(42, 63, 95); fill-opacity: 1; white-space: pre; opacity: 1;" transform="translate(0,253.92)">30</text></g><g class="ytick"><text text-anchor="end" x="79" y="4.199999999999999" style="font-family: TOBESTRIPPEDOpen SansTOBESTRIPPED, verdana, arial, sans-serif; font-size: 12px; fill: rgb(42, 63, 95); fill-opacity: 1; white-space: pre; opacity: 1;" transform="translate(0,205.73000000000002)">40</text></g><g class="ytick"><text text-anchor="end" x="79" y="4.199999999999999" style="font-family: TOBESTRIPPEDOpen SansTOBESTRIPPED, verdana, arial, sans-serif; font-size: 12px; fill: rgb(42, 63, 95); fill-opacity: 1; white-space: pre; opacity: 1;" transform="translate(0,157.54)">50</text></g><g class="ytick"><text text-anchor="end" x="79" y="4.199999999999999" style="font-family: TOBESTRIPPEDOpen SansTOBESTRIPPED, verdana, arial, sans-serif; font-size: 12px; fill: rgb(42, 63, 95); fill-opacity: 1; white-space: pre; opacity: 1;" transform="translate(0,109.34)">60</text></g></g><g class="overaxes-above"/></g></g><g class="polarlayer"/><g class="smithlayer"/><g class="ternarylayer"/><g class="geolayer"/><g class="funnelarealayer"/><g class="pielayer"/><g class="iciclelayer"/><g class="treemaplayer"/><g class="sunburstlayer"/><g class="glimages"/><defs id="topdefs-6010c1"><g class="clips"/><clipPath id="legend6010c1"><rect width="101" height="200" x="0" y="0"/></clipPath></defs><g class="layer-above"><g class="imagelayer"/><g class="shapelayer"/></g><g class="infolayer"><g class="legend" pointer-events="all" transform="translate(886.82,100)"><rect class="bg" shape-rendering="crispEdges" style="stroke: rgb(68, 68, 68); stroke-opacity: 1; fill: rgb(255, 255, 255); fill-opacity: 1; stroke-width: 0px;" width="101" height="200" x="0" y="0"/><g class="scrollbox" transform="" clip-path="url(#legend6010c1)"><text class="legendtitletext" text-anchor="start" style="font-family: TOBESTRIPPEDOpen SansTOBESTRIPPED, verdana, arial, sans-serif; font-size: 14px; fill: rgb(42, 63, 95); fill-opacity: 1; white-space: pre;" x="2" y="18.2">Grid Size</text><g class="groups" transform=""><g class="traces" style="opacity: 1;" transform="translate(0,32.7)"><text class="legendtext" text-anchor="start" style="font-family: TOBESTRIPPEDOpen SansTOBESTRIPPED, verdana, arial, sans-serif; font-size: 12px; fill: rgb(42, 63, 95); fill-opacity: 1; white-space: pre;" x="40" y="4.680000000000001">100</text><g class="layers" style="opacity: 1;"><g class="legendfill"/><g class="legendlines"><path class="js-line" d="M5,0h30" style="fill: none; stroke: rgb(0, 0, 255); stroke-opacity: 1; stroke-width: 2px;"/></g><g class="legendsymbols"><g class="legendpoints"><path class="scatterpts" transform="translate(20,0)" style="opacity: 1; stroke-width: 0px; fill: rgb(0, 0, 255); fill-opacity: 1;" d="M3,0A3,3 0 1,1 0,-3A3,3 0 0,1 3,0Z"/></g></g></g><rect class="legendtoggle" style="fill: rgb(0, 0, 0); fill-opacity: 0;" x="0" y="-9.5" width="95.98332214355469" height="19"/></g></g><g class="groups" transform=""><g class="traces" style="opacity: 1;" transform="translate(0,51.7)"><text class="legendtext" text-anchor="start" style="font-family: TOBESTRIPPEDOpen SansTOBESTRIPPED, verdana, arial, sans-serif; font-size: 12px; fill: rgb(42, 63, 95); fill-opacity: 1; white-space: pre;" x="40" y="4.680000000000001">200</text><g class="layers" style="opacity: 1;"><g class="legendfill"/><g class="legendlines"><path class="js-line" d="M5,0h30" style="fill: none; stroke: rgb(0, 128, 0); stroke-opacity: 1; stroke-width: 2px;"/></g><g class="legendsymbols"><g class="legendpoints"><path class="scatterpts" transform="translate(20,0)" style="opacity: 1; stroke-width: 0px; fill: rgb(0, 128, 0); fill-opacity: 1;" d="M3,0A3,3 0 1,1 0,-3A3,3 0 0,1 3,0Z"/></g></g></g><rect class="legendtoggle" style="fill: rgb(0, 0, 0); fill-opacity: 0;" x="0" y="-9.5" width="95.98332214355469" height="19"/></g></g><g class="groups" transform=""><g class="traces" style="opacity: 1;" transform="translate(0,70.7)"><text class="legendtext" text-anchor="start" style="font-family: TOBESTRIPPEDOpen SansTOBESTRIPPED, verdana, arial, sans-serif; font-size: 12px; fill: rgb(42, 63, 95); fill-opacity: 1; white-space: pre;" x="40" y="4.680000000000001">300</text><g class="layers" style="opacity: 1;"><g class="legendfill"/><g class="legendlines"><path class="js-line" d="M5,0h30" style="fill: none; stroke: rgb(255, 0, 0); stroke-opacity: 1; stroke-width: 2px;"/></g><g class="legendsymbols"><g class="legendpoints"><path class="scatterpts" transform="translate(20,0)" style="opacity: 1; stroke-width: 0px; fill: rgb(255, 0, 0); fill-opacity: 1;" d="M3,0A3,3 0 1,1 0,-3A3,3 0 0,1 3,0Z"/></g></g></g><rect class="legendtoggle" style="fill: rgb(0, 0, 0); fill-opacity: 0;" x="0" y="-9.5" width="95.98332214355469" height="19"/></g></g><g class="groups" transform=""><g class="traces" style="opacity: 1;" transform="translate(0,89.7)"><text class="legendtext" text-anchor="start" style="font-family: TOBESTRIPPEDOpen SansTOBESTRIPPED, verdana, arial, sans-serif; font-size: 12px; fill: rgb(42, 63, 95); fill-opacity: 1; white-space: pre;" x="40" y="4.680000000000001">Serial 100</text><g class="layers" style="opacity: 1;"><g class="legendfill"/><g class="legendlines"><path class="js-line" d="M5,0h30" style="fill: none; stroke: rgb(0, 0, 255); stroke-opacity: 1; stroke-dasharray: 9px, 9px; stroke-width: 2px;"/></g><g class="legendsymbols"><g class="legendpoints"/></g></g><rect class="legendtoggle" style="fill: rgb(0, 0, 0); fill-opacity: 0;" x="0" y="-9.5" width="95.98332214355469" height="19"/></g></g><g class="groups" transform=""><g class="traces" style="opacity: 1;" transform="translate(0,108.7)"><text class="legendtext" text-anchor="start" style="font-family: TOBESTRIPPEDOpen SansTOBESTRIPPED, verdana, arial, sans-serif; font-size: 12px; fill: rgb(42, 63, 95); fill-opacity: 1; white-space: pre;" x="40" y="4.680000000000001">Serial 200</text><g class="layers" style="opacity: 1;"><g class="legendfill"/><g class="legendlines"><path class="js-line" d="M5,0h30" style="fill: none; stroke: rgb(0, 128, 0); stroke-opacity: 1; stroke-dasharray: 9px, 9px; stroke-width: 2px;"/></g><g class="legendsymbols"><g class="legendpoints"/></g></g><rect class="legendtoggle" style="fill: rgb(0, 0, 0); fill-opacity: 0;" x="0" y="-9.5" width="95.98332214355469" height="19"/></g></g><g class="groups" transform=""><g class="traces" style="opacity: 1;" transform="translate(0,127.7)"><text class="legendtext" text-anchor="start" style="font-family: TOBESTRIPPEDOpen SansTOBESTRIPPED, verdana, arial, sans-serif; font-size: 12px; fill: rgb(42, 63, 95); fill-opacity: 1; white-space: pre;" x="40" y="4.680000000000001">Serial 300</text><g class="layers" style="opacity: 1;"><g class="legendfill"/><g class="legendlines"><path class="js-line" d="M5,0h30" style="fill: none; stroke: rgb(255, 0, 0); stroke-opacity: 1; stroke-dasharray: 9px, 9px; stroke-width: 2px;"/></g><g class="legendsymbols"><g class="legendpoints"/></g></g><rect class="legendtoggle" style="fill: rgb(0, 0, 0); fill-opacity: 0;" x="0" y="-9.5" width="95.98332214355469" height="19"/></g></g><g class="groups" transform=""><g class="traces" style="opacity: 1;" transform="translate(0,146.7)"><text class="legendtext" text-anchor="start" style="font-family: TOBESTRIPPEDOpen SansTOBESTRIPPED, verdana, arial, sans-serif; font-size: 12px; fill: rgb(42, 63, 95); fill-opacity: 1; white-space: pre;" x="40" y="4.680000000000001">Min 100</text><g class="layers" style="opacity: 1;"><g class="legendfill"/><g class="legendlines"/><g class="legendsymbols"><g class="legendpoints"><path class="scatterpts" transform="translate(20,0)" style="opacity: 1; stroke-width: 0px; fill: rgb(0, 0, 255); fill-opacity: 1;" d="M5,0A5,5 0 1,1 0,-5A5,5 0 0,1 5,0Z"/></g></g></g><rect class="legendtoggle" style="fill: rgb(0, 0, 0); fill-opacity: 0;" x="0" y="-9.5" width="95.98332214355469" height="19"/></g></g><g class="groups" transform=""><g class="traces" style="opacity: 1;" transform="translate(0,165.7)"><text class="legendtext" text-anchor="start" style="font-family: TOBESTRIPPEDOpen SansTOBESTRIPPED, verdana, arial, sans-serif; font-size: 12px; fill: rgb(42, 63, 95); fill-opacity: 1; white-space: pre;" x="40" y="4.680000000000001">Min 200</text><g class="layers" style="opacity: 1;"><g class="legendfill"/><g class="legendlines"/><g class="legendsymbols"><g class="legendpoints"><path class="scatterpts" transform="translate(20,0)" style="opacity: 1; stroke-width: 0px; fill: rgb(0, 128, 0); fill-opacity: 1;" d="M5,0A5,5 0 1,1 0,-5A5,5 0 0,1 5,0Z"/></g></g></g><rect class="legendtoggle" style="fill: rgb(0, 0, 0); fill-opacity: 0;" x="0" y="-9.5" width="95.98332214355469" height="19"/></g></g><g class="groups" transform=""><g class="traces" style="opacity: 1;" transform="translate(0,184.7)"><text class="legendtext" text-anchor="start" style="font-family: TOBESTRIPPEDOpen SansTOBESTRIPPED, verdana, arial, sans-serif; font-size: 12px; fill: rgb(42, 63, 95); fill-opacity: 1; white-space: pre;" x="40" y="4.680000000000001">Min 300</text><g class="layers" style="opacity: 1;"><g class="legendfill"/><g class="legendlines"/><g class="legendsymbols"><g class="legendpoints"><path class="scatterpts" transform="translate(20,0)" style="opacity: 1; stroke-width: 0px; fill: rgb(255, 0, 0); fill-opacity: 1;" d="M5,0A5,5 0 1,1 0,-5A5,5 0 0,1 5,0Z"/></g></g></g><rect class="legendtoggle" style="fill: rgb(0, 0, 0); fill-opacity: 0;" x="0" y="-9.5" width="95.98332214355469" height="19"/></g></g></g><rect class="scrollbar" rx="20" ry="3" width="0" height="0" style="fill: rgb(128, 139, 164); fill-opacity: 1;" x="0" y="0"/></g><g class="g-gtitle"><text class="gtitle" style="font-family: TOBESTRIPPEDOpen SansTOBESTRIPPED, verdana, arial, sans-serif; font-size: 17px; fill: rgb(42, 63, 95); opacity: 1; font-weight: normal; white-space: pre;" x="50" y="50" text-anchor="start" dy="0em">Execution Time vs MPI Ranks for Non-blocking MPI</text></g><g class="g-xtitle"><text class="xtitle" style="font-family: TOBESTRIPPEDOpen SansTOBESTRIPPED, verdana, arial, sans-serif; font-size: 14px; fill: rgb(42, 63, 95); opacity: 1; font-weight: normal; white-space: pre;" x="475.5" y="461.95005493164064" text-anchor="middle">MPI ranks</text></g><g class="g-ytitle"><text class="ytitle" transform="rotate(-90,40.3162109375,260)" style="font-family: TOBESTRIPPEDOpen SansTOBESTRIPPED, verdana, arial, sans-serif; font-size: 14px; fill: rgb(42, 63, 95); opacity: 1; font-weight: normal; white-space: pre;" x="40.3162109375" y="260" text-anchor="middle">time/seconds</text></g></g></svg>